<svg width="44" height="44" viewBox="0 0 44 44" fill="none" xmlns="http://www.w3.org/2000/svg">
<g clip-path="url(#clip0_506_204)">
<path d="M22.0013 40.3332C11.918 40.3332 3.66797 32.0832 3.66797 21.9998C3.66797 11.9165 11.918 3.6665 22.0013 3.6665C32.0846 3.6665 40.3346 11.9165 40.3346 21.9998C40.3346 32.0832 32.0846 40.3332 22.0013 40.3332ZM22.0013 5.49984C12.8346 5.49984 5.5013 12.8332 5.5013 21.9998C5.5013 31.1665 12.8346 38.4998 22.0013 38.4998C31.168 38.4998 38.5013 31.1665 38.5013 21.9998C38.5013 12.8332 31.168 5.49984 22.0013 5.49984Z" fill="black"/>
<path d="M21.9987 9.16667C21.4487 9.16667 21.082 8.8 21.082 8.25V0.916667C21.082 0.366667 21.4487 0 21.9987 0C22.5487 0 22.9154 0.366667 22.9154 0.916667V8.25C22.9154 8.8 22.5487 9.16667 21.9987 9.16667Z" fill="black"/>
<path d="M21.9987 9.16667C21.4487 9.16667 21.082 8.8 21.082 8.25V0.916667C21.082 0.366667 21.4487 0 21.9987 0C22.5487 0 22.9154 0.366667 22.9154 0.916667V8.25C22.9154 8.8 22.5487 9.16667 21.9987 9.16667Z" fill="black"/>
<path d="M43.082 22.9168H35.7487C35.1987 22.9168 34.832 22.5502 34.832 22.0002C34.832 21.4502 35.1987 21.0835 35.7487 21.0835H43.082C43.632 21.0835 43.9987 21.4502 43.9987 22.0002C43.9987 22.5502 43.632 22.9168 43.082 22.9168Z" fill="black"/>
<path d="M21.9987 44.0002C21.4487 44.0002 21.082 43.6335 21.082 43.0835V35.7502C21.082 35.2002 21.4487 34.8335 21.9987 34.8335C22.5487 34.8335 22.9154 35.2002 22.9154 35.7502V43.0835C22.9154 43.6335 22.5487 44.0002 21.9987 44.0002Z" fill="black"/>
<path d="M8.25 22.9168H0.916667C0.366667 22.9168 0 22.5502 0 22.0002C0 21.4502 0.366667 21.0835 0.916667 21.0835H8.25C8.8 21.0835 9.16667 21.4502 9.16667 22.0002C9.16667 22.5502 8.8 22.9168 8.25 22.9168Z" fill="black"/>
<path d="M22 27.5C18.8833 27.5 16.5 25.1167 16.5 22C16.5 18.8833 18.8833 16.5 22 16.5C25.1167 16.5 27.5 18.8833 27.5 22C27.5 25.1167 25.1167 27.5 22 27.5ZM22 18.3333C19.9833 18.3333 18.3333 19.9833 18.3333 22C18.3333 24.0167 19.9833 25.6667 22 25.6667C24.0167 25.6667 25.6667 24.0167 25.6667 22C25.6667 19.9833 24.0167 18.3333 22 18.3333Z" fill="black"/>
</g>
<defs>
<clipPath id="clip0_506_204">
<rect width="44" height="44" fill="white"/>
</clipPath>
</defs>
</svg>
