<svg xmlns="http://www.w3.org/2000/svg" viewBox="0 0 442.76 119.88"><title>Asset 1Studio 52</title><g id="Layer_2" data-name="Layer 2"><g id="Layer_1-2" data-name="Layer 1"><g id="Layer_3" data-name="Layer 3"><path d="M197,87.48a4,4,0,0,1-1.14.48,5.3,5.3,0,0,1-1.32.16,4.81,4.81,0,0,1-3.57-1.39,5,5,0,0,1-1.37-3.61A4.78,4.78,0,0,1,191,79.58a4.89,4.89,0,0,1,3.59-1.37,5.8,5.8,0,0,1,1.32.14,4,4,0,0,1,1.11.44v2.69a3,3,0,0,0-2.18-.9,2.42,2.42,0,0,0-1.8.69,2.52,2.52,0,0,0-.68,1.83,2.39,2.39,0,0,0,2.2,2.55h.37a2.56,2.56,0,0,0,1.15-.24,2.53,2.53,0,0,0,.92-.73v2.8Zm9-4.33a2.42,2.42,0,0,0-.66-1.8,2.65,2.65,0,0,0-3.53,0,2.85,2.85,0,0,0,0,3.61,2.62,2.62,0,0,0,3.52,0,2.36,2.36,0,0,0,.67-1.8Zm2.74,0a4.7,4.7,0,0,1-1.46,3.55,5.55,5.55,0,0,1-7.39,0,5,5,0,0,1,0-7.08,5.55,5.55,0,0,1,7.39,0,4.72,4.72,0,0,1,1.45,3.55Zm4.66,4.59h-2.68V78.5h2.68V80a4.59,4.59,0,0,1,1.41-1.33,3.38,3.38,0,0,1,1.7-.42,3.31,3.31,0,0,1,1.87.47,2.5,2.5,0,0,1,1,1.41,4.76,4.76,0,0,1,1.45-1.41,3.79,3.79,0,0,1,3.44-.11,2.33,2.33,0,0,1,1.06,1.09,3.1,3.1,0,0,1,.29.89,9.56,9.56,0,0,1,.08,1.51v5.69H223V83.18a4.66,4.66,0,0,0-.35-2.24,1.27,1.27,0,0,0-1.19-.55,1.63,1.63,0,0,0-1.51.77,5.22,5.22,0,0,0-.46,2.52v4.07H216.8V83.18a5,5,0,0,0-.32-2.2,1.14,1.14,0,0,0-1.1-.58,1.72,1.72,0,0,0-1.55.78,5,5,0,0,0-.48,2.5v4.07Zm17.53,0h-2.66V78.5h2.68V80a4.67,4.67,0,0,1,1.4-1.33,3.51,3.51,0,0,1,1.7-.42,3.34,3.34,0,0,1,1.88.47,2.5,2.5,0,0,1,1,1.41,4.76,4.76,0,0,1,1.45-1.41,3.79,3.79,0,0,1,3.44-.11,2.33,2.33,0,0,1,1.06,1.09,2.8,2.8,0,0,1,.28.89,7.66,7.66,0,0,1,.09,1.51v5.69h-2.68V83.18a4.66,4.66,0,0,0-.35-2.24,1.27,1.27,0,0,0-1.19-.55,1.63,1.63,0,0,0-1.51.77,5.22,5.22,0,0,0-.46,2.52v4.07h-2.68V83.18A5,5,0,0,0,234,81a1.15,1.15,0,0,0-1.11-.58,1.66,1.66,0,0,0-1.54.78,5,5,0,0,0-.48,2.5v4.07Zm17.51-9.24v4.88a2.66,2.66,0,0,0,.47,1.75,2.52,2.52,0,0,0,3.1,0,2.56,2.56,0,0,0,.48-1.75V78.52h2.68v4.86A4.89,4.89,0,0,1,254,87a4.74,4.74,0,0,1-3.53,1.16A4.89,4.89,0,0,1,246.89,87a5,5,0,0,1-1.14-3.6V78.52Zm9.31,9.24V78.5h2.63V80a5.08,5.08,0,0,1,1.55-1.33,4.11,4.11,0,0,1,1.85-.42,4,4,0,0,1,1.8.36,2.63,2.63,0,0,1,1.16,1.1,2.48,2.48,0,0,1,.29.87,8.57,8.57,0,0,1,.1,1.52v5.69h-2.68V83.18a4.46,4.46,0,0,0-.39-2.25,1.6,1.6,0,0,0-1.36-.54,2.29,2.29,0,0,0-1,.23,2.2,2.2,0,0,0-1.13,1.4,5.16,5.16,0,0,0-.11,1.3v4.43Zm11.79-13a1.61,1.61,0,0,1,1.57-1.57,1.58,1.58,0,0,1,1.13,2.67l0,0a1.57,1.57,0,0,1-1.11.46,1.47,1.47,0,0,1-1.11-.47A1.57,1.57,0,0,1,269.51,74.74Zm.23,13V78.5h2.68v9.24ZM282,87.47a3.89,3.89,0,0,1-1.15.48,5.3,5.3,0,0,1-1.32.16,4.81,4.81,0,0,1-3.56-1.39,4.93,4.93,0,0,1-1.38-3.61,4.77,4.77,0,0,1,1.39-3.54,4.86,4.86,0,0,1,3.59-1.37,6,6,0,0,1,1.33.14,4.21,4.21,0,0,1,1.11.44v2.69a3.38,3.38,0,0,0-1-.67,3.22,3.22,0,0,0-1.18-.23,2.36,2.36,0,0,0-2.49,2.52,2.38,2.38,0,0,0,2.19,2.55,2.28,2.28,0,0,0,.37,0,2.59,2.59,0,0,0,2.09-1v2.8Zm8.82-4.36a2.9,2.9,0,0,0-.62-2,2.16,2.16,0,0,0-1.69-.73,2.2,2.2,0,0,0-1.72.72,3.46,3.46,0,0,0,0,4,2.48,2.48,0,0,0,3.43,0,2.91,2.91,0,0,0,.61-2Zm2.46,4.63h-2.61V86.41a3.38,3.38,0,0,1-1.31,1.29,3.9,3.9,0,0,1-1.87.41,3.64,3.64,0,0,1-3-1.37,6.42,6.42,0,0,1,0-7.24,3.83,3.83,0,0,1,3.07-1.3,3.46,3.46,0,0,1,1.81.46,3.64,3.64,0,0,1,1.3,1.37V78.5h2.62v9.24Zm2.86,0V80.61h-1.31V78.5h1.31V75.44h2.66V78.5h1.3v2.11h-1.3v7.13Zm5.49-13a1.59,1.59,0,0,1,1.56-1.57,1.58,1.58,0,1,1,0,3.15,1.54,1.54,0,0,1-1.11-.47A1.52,1.52,0,0,1,301.58,74.74Zm.22,13V78.5h2.68v9.24Zm12.38-4.6a2.42,2.42,0,0,0-.66-1.8,2.65,2.65,0,0,0-3.53,0,2.85,2.85,0,0,0,0,3.61,2.62,2.62,0,0,0,3.53,0,2.41,2.41,0,0,0,.66-1.8Zm2.74,0a4.7,4.7,0,0,1-1.46,3.55,5,5,0,0,1-3.68,1.41,5.16,5.16,0,0,1-3.72-1.41,4.73,4.73,0,0,1-1.44-3.55,4.67,4.67,0,0,1,1.46-3.53,5.55,5.55,0,0,1,7.39,0,4.67,4.67,0,0,1,1.45,3.55Zm2,4.59V78.49h2.62v1.45a5.15,5.15,0,0,1,1.57-1.33,4,4,0,0,1,1.85-.42,4,4,0,0,1,1.8.36,2.63,2.63,0,0,1,1.45,2,9.62,9.62,0,0,1,.09,1.52v5.69h-2.68V83.18a4.46,4.46,0,0,0-.39-2.25,1.6,1.6,0,0,0-1.36-.54,2.29,2.29,0,0,0-1,.23,2.2,2.2,0,0,0-1.13,1.4,5.16,5.16,0,0,0-.11,1.3v4.43Zm11-1.62L332,85.05a1.33,1.33,0,0,0,.55.85,2.27,2.27,0,0,0,2.16.07.78.78,0,0,0,.38-.67c0-.44-.44-.82-1.34-1.12l-.65-.23a6.49,6.49,0,0,1-2.26-1.24,2,2,0,0,1-.63-1.53A2.62,2.62,0,0,1,331.27,79a4.4,4.4,0,0,1,2.81-.84,4.5,4.5,0,0,1,2.15.5,3.06,3.06,0,0,1,1.32,1.41l-2,1a1.43,1.43,0,0,0-.55-.79,1.77,1.77,0,0,0-1-.27,1.75,1.75,0,0,0-1,.24.71.71,0,0,0-.37.65c0,.46.61.88,1.83,1.28l.33.1A5.67,5.67,0,0,1,337,83.43a2.47,2.47,0,0,1,.64,1.7,2.61,2.61,0,0,1-1.08,2.18,4.58,4.58,0,0,1-2.87.81,5.29,5.29,0,0,1-2.44-.53,2.77,2.77,0,0,1-1.36-1.46Zm14.72,0,2.06-1.06a1.35,1.35,0,0,0,.56.85,2.25,2.25,0,0,0,2.15.07.74.74,0,0,0,.38-.67c0-.44-.45-.82-1.34-1.12l-.66-.23a6.54,6.54,0,0,1-2.25-1.24,2.08,2.08,0,0,1-.63-1.53A2.67,2.67,0,0,1,346,79a5,5,0,0,1,5-.34,2.87,2.87,0,0,1,1.32,1.41l-2,1a1.36,1.36,0,0,0-.56-.79,1.66,1.66,0,0,0-1-.27,1.79,1.79,0,0,0-1,.24.8.8,0,0,0-.37.65c0,.46.61.88,1.83,1.28l.33.1a5.53,5.53,0,0,1,2.16,1.16,2.29,2.29,0,0,1,.64,1.7,2.57,2.57,0,0,1-1.06,2.18,4.59,4.59,0,0,1-2.88.81,5.29,5.29,0,0,1-2.44-.53,2.72,2.72,0,0,1-1.35-1.46ZM354.2,74.7a1.6,1.6,0,0,1,1.56-1.57,1.58,1.58,0,1,1,0,3.15,1.54,1.54,0,0,1-1.1-.47A1.62,1.62,0,0,1,354.2,74.7Zm.23,13V78.46h2.68V87.7Zm5.4,0V78.46h2.63v1.45A5.1,5.1,0,0,1,364,78.58a4.47,4.47,0,0,1,3.65-.06,2.59,2.59,0,0,1,1.44,2,7,7,0,0,1,.1,1.52v5.69h-2.69V83.18a4.26,4.26,0,0,0-.39-2.25,1.58,1.58,0,0,0-1.36-.54,2.36,2.36,0,0,0-1,.23,2.23,2.23,0,0,0-1.13,1.4,6.28,6.28,0,0,0-.11,1.3v4.43Zm18.73-.27a3.89,3.89,0,0,1-1.15.48,5.3,5.3,0,0,1-1.32.16,4.84,4.84,0,0,1-3.56-1.39,4.93,4.93,0,0,1-1.37-3.61,4.78,4.78,0,0,1,1.38-3.54,4.86,4.86,0,0,1,3.59-1.37,5.8,5.8,0,0,1,1.32.14,4,4,0,0,1,1.11.44v2.69a3,3,0,0,0-2.16-.9,2.45,2.45,0,0,0-1.81.69,2.56,2.56,0,0,0-.68,1.83,2.61,2.61,0,0,0,4.65,1.58Zm8.39-5.3a2,2,0,0,0-.64-1.33,2.07,2.07,0,0,0-1.42-.45,2.18,2.18,0,0,0-1.45.45,2.13,2.13,0,0,0-.69,1.33Zm2.65,1.62h-6.93a2.39,2.39,0,0,0,.72,1.49,2.28,2.28,0,0,0,1.54.49,2.61,2.61,0,0,0,1.26-.28,2.27,2.27,0,0,0,.89-.85l2.16,1.08a4.91,4.91,0,0,1-1.82,1.8,5.29,5.29,0,0,1-2.56.59,4.75,4.75,0,0,1-3.55-1.34,5.48,5.48,0,0,1,.06-7.17,5.2,5.2,0,0,1,7-.09,4.91,4.91,0,0,1,1.28,3.58v.7Zm11.47,4V76.38h-2.76l1.16-2.31h4.37V87.72Zm15.05-9.33a2.22,2.22,0,0,0-.56-1.59,2,2,0,0,0-1.54-.59,2,2,0,0,0-1.52.61,2.2,2.2,0,0,0-.58,1.57,2.31,2.31,0,0,0,.57,1.63,2.15,2.15,0,0,0,1.59.59,1.89,1.89,0,0,0,1.47-.62A2.2,2.2,0,0,0,416.12,78.37Zm-1.16,4a3.16,3.16,0,0,1-.81.31,4.14,4.14,0,0,1-1,.09,3.76,3.76,0,0,1-2.88-1.19,4.38,4.38,0,0,1-1.11-3.07,4.52,4.52,0,0,1,1.36-3.42,5,5,0,0,1,3.59-1.3,4.55,4.55,0,0,1,3.4,1.29,4.64,4.64,0,0,1,1.27,3.41,7.2,7.2,0,0,1-.58,2.74,16.13,16.13,0,0,1-1.73,3.22l-2.18,3.26H411l3.94-5.34Zm6.81,5.34,5.51-11.34h-6.21V74.06h9.84v.87l-6.19,12.78Zm11.82,0,5.55-11.33h-6.21V74.07h9.83v.87l-6.18,12.78Z" style="fill:#6f7072;fill-rule:evenodd"/><path d="M363.16,54.58l29.35.13.12-7.19-29.39-.14V25.76l37.13-.06-.1,7.27H370.94v7.2l21.65.13a7.74,7.74,0,0,1,5.52,2.05,6.78,6.78,0,0,1,2.19,5.16v7.21a6.69,6.69,0,0,1-2.19,5.16,7.74,7.74,0,0,1-5.52,2H363.13C363.24,57.38,363.16,57.21,363.16,54.58Z" style="fill:#25479a;fill-rule:evenodd"/><path d="M404.24,61.94V47.52a6.81,6.81,0,0,1,2.2-5.16,7.8,7.8,0,0,1,5.51-2l23.1-.17V32.93l-30.81.18c-.06-1.62,0-6-.06-7.46H435.1c2.68.29,4,.75,5.46,2.12a6.69,6.69,0,0,1,2.19,5.16v7.21a6.76,6.76,0,0,1-2.19,5.16,7.76,7.76,0,0,1-5.51,2.05l-23.1.17v7.21l30.8-.17v7.21Z" style="fill:#25479a;fill-rule:evenodd"/><path d="M238.51,34A7.73,7.73,0,0,1,241,28.3a8.07,8.07,0,0,1,5.85-2.37v19.2a18.25,18.25,0,0,1-5.87,13.65,20.42,20.42,0,0,1-28.21,0,18.15,18.15,0,0,1-5.88-13.65V25.93a8.11,8.11,0,0,1,5.85,2.37A7.73,7.73,0,0,1,215.15,34V45.13a11.69,11.69,0,0,0,23.37,0Z" style="fill:#1a8fce;fill-rule:evenodd"/><path d="M306,64.44a8.14,8.14,0,0,1-5.85-2.38,7.76,7.76,0,0,1-2.44-5.71V25.93a8.08,8.08,0,0,1,5.85,2.37A7.68,7.68,0,0,1,306,34Z" style="fill:#1a8fce;fill-rule:evenodd"/><path d="M238.5,33.91A7.71,7.71,0,0,1,241,28.2a8.12,8.12,0,0,1,5.85-2.38h22.25c0,2.22-6,8.09-8.31,8.09Z" style="fill:#1a8fce;fill-rule:evenodd"/><path d="M208.34,25.93h-49.2a7.25,7.25,0,0,0,2.29,5.43A7.64,7.64,0,0,0,167,33.6h16.25l30-.05C215.39,33.55,208.34,28.05,208.34,25.93Z" style="fill:#1a8fce;fill-rule:evenodd"/><path d="M183.52,55.76A7.71,7.71,0,0,0,186,61.47a8.15,8.15,0,0,0,5.88,2.38V39.38h-8.33Z" style="fill:#1a8fce;fill-rule:evenodd"/><path d="M288.24,31.54a19.18,19.18,0,0,0-14-5.82l-19.74.11v8.09l19.71-.07a12,12,0,0,1,8.4,3.33,10.58,10.58,0,0,1,3.49,8.1,11.75,11.75,0,0,1-3.44,8.63c-2.37,2.18-13.92,1.67-17.18,1.64s-2.7,8-.05,8.12c5.05.32,27.92,4.51,28.54-18.36A18.23,18.23,0,0,0,288.24,31.54Z" style="fill:#1a8fce;fill-rule:evenodd"/><path d="M137.68,57.38s2.62,0,10.77.06c13.11.3,17.58.32,17.49-3.86-.48-7.92-15.74-1.57-23.53-7.5-1.75-1.33-7.54-8.53-1.32-16.24,2.23-2.77,6.71-4.07,9-4.07l29.75.17c2.24,0,6.39,5.46,6.39,7.65l-34-.13s-7.68.11-6.18,5.77c1.41,4.79,12.69,3.45,15.68,3.71,10,.84,10.7,8,10.7,8a10.64,10.64,0,0,1-7.73,12.91,10.8,10.8,0,0,1-2,.3h-25C137.77,63.38,137.68,59.6,137.68,57.38Z" style="fill:#1a8fce;fill-rule:evenodd"/><path d="M258.3,55.74a7.74,7.74,0,0,0,2.45,5.69,8.19,8.19,0,0,0,5.88,2.38V39.38H258.3Z" style="fill:#1a8fce;fill-rule:evenodd"/><path d="M316.7,31.49a18.69,18.69,0,0,0-.81,26.43c.26.28.53.56.81.82a20.51,20.51,0,0,0,28.19,0,18.65,18.65,0,0,0,.88-26.37,12.18,12.18,0,0,0-.88-.88A20.41,20.41,0,0,0,316.7,31.49ZM322.51,37a11.64,11.64,0,0,1,16.57,16.34h0a11.82,11.82,0,0,1-16.57,0,11.09,11.09,0,0,1-3.37-8.15A11.29,11.29,0,0,1,322.51,37Z" style="fill:#1a8fce;fill-rule:evenodd"/><path d="M108.24,28a3.32,3.32,0,0,1-2.89-3.68h0a3.36,3.36,0,0,1,3.79-2.81A3.31,3.31,0,0,1,112,25.16v0A3.34,3.34,0,0,1,108.24,28Z" style="fill:#478ecc;fill-rule:evenodd"/><path d="M118.1,58.38a3.3,3.3,0,0,1-2.9-3.66v0A3.37,3.37,0,0,1,119,51.88a3.3,3.3,0,0,1,2.88,3.67v0A3.36,3.36,0,0,1,118.1,58.38Z" style="fill:#4cae4d;fill-rule:evenodd"/><path d="M109.72,87.87a3.3,3.3,0,0,1-2.89-3.66v0a3.35,3.35,0,0,1,3.79-2.8,3.31,3.31,0,0,1,2.88,3.68A3.34,3.34,0,0,1,109.72,87.87Z" style="fill:#f8971d;fill-rule:evenodd"/><path d="M100.62,104.61a3.32,3.32,0,0,1-2.9-3.68h0a3.34,3.34,0,0,1,3.78-2.81,3.29,3.29,0,0,1,2.9,3.65v0A3.36,3.36,0,0,1,100.62,104.61Z" style="fill:#4454a5;fill-rule:evenodd"/><path d="M70.86,116.89A3.32,3.32,0,0,1,68,113.21h0a3.37,3.37,0,0,1,3.79-2.81A3.29,3.29,0,0,1,74.65,114v0A3.34,3.34,0,0,1,70.86,116.89Z" style="fill:#903d97;fill-rule:evenodd"/><path d="M51,119.85a3.3,3.3,0,0,1-2.88-3.67v0a3.36,3.36,0,0,1,3.78-2.81A3.28,3.28,0,0,1,54.76,117V117A3.34,3.34,0,0,1,51,119.85Z" style="fill:#09bbd3;fill-rule:evenodd"/><path d="M22.44,103.91a3.28,3.28,0,0,1-2.88-3.63v0a3.35,3.35,0,0,1,3.78-2.81,3.28,3.28,0,0,1,2.89,3.63v0a3.31,3.31,0,0,1-3.77,2.81Z" style="fill:#009587;fill-rule:evenodd"/><path d="M2.91,57.84A3.3,3.3,0,0,1,0,54.18v0a3.36,3.36,0,0,1,3.79-2.82A3.29,3.29,0,0,1,6.7,55v0A3.36,3.36,0,0,1,2.91,57.84Z" style="fill:#ef4237;fill-rule:evenodd"/><path d="M29.24,13.43a3.29,3.29,0,0,1-2.89-3.64v0a3.36,3.36,0,0,1,3.79-2.82A3.29,3.29,0,0,1,33,10.59v0A3.32,3.32,0,0,1,29.24,13.43Z" style="fill:#e71f64;fill-rule:evenodd"/><path d="M61.47,6.53A3.28,3.28,0,0,1,62.36,0h0a3.27,3.27,0,0,1,2.9,3.62v.06A3.35,3.35,0,0,1,61.47,6.53Z" style="fill:#795648;fill-rule:evenodd"/><path d="M91.24,17.22a3.27,3.27,0,0,1-2.88-3.63v-.06a3.34,3.34,0,0,1,3.78-2.81A3.29,3.29,0,0,1,95,14.37v0A3.34,3.34,0,0,1,91.24,17.22Z" style="fill:#65489d;fill-rule:evenodd"/><path d="M16.7,29.2a3.28,3.28,0,1,1,3.79-2.82A3.36,3.36,0,0,1,16.7,29.2Z" style="fill:#466bb3;fill-rule:evenodd"/><path d="M110,40.91a3.15,3.15,0,0,1-2.72-3.51v0a3.2,3.2,0,0,1,3.6-2.67,3.14,3.14,0,0,1,2.73,3.48v0a3.16,3.16,0,0,1-3.57,2.7Z" style="fill:#466bb3;fill-rule:evenodd"/><path d="M112.42,69.6A3.28,3.28,0,0,1,109.54,66v0a3.35,3.35,0,0,1,3.8-2.81,3.29,3.29,0,0,1,2.87,3.66v0A3.36,3.36,0,0,1,112.42,69.6Z" style="fill:#466bb3;fill-rule:evenodd"/><path d="M87.34,107.56a3.26,3.26,0,0,1-2.88-3.62v-.06a3.35,3.35,0,0,1,3.77-2.81,3.29,3.29,0,0,1,2.9,3.64v0A3.33,3.33,0,0,1,87.34,107.56Z" style="fill:#466bb3;fill-rule:evenodd"/><path d="M40.37,111.32a3.29,3.29,0,0,1-2.89-3.64v-.05a3.36,3.36,0,0,1,3.78-2.81,3.29,3.29,0,0,1,2.89,3.65v0A3.33,3.33,0,0,1,40.37,111.32Z" style="fill:#466bb3;fill-rule:evenodd"/><path d="M7.82,76.59a3.32,3.32,0,0,1-2.89-3.68h0a3.38,3.38,0,0,1,3.79-2.81,3.3,3.3,0,0,1,2.9,3.66v0A3.37,3.37,0,0,1,7.82,76.59Z" style="fill:#466bb3;fill-rule:evenodd"/><path d="M10.48,47A3.3,3.3,0,0,1,7.6,43.33v0a3.36,3.36,0,0,1,3.78-2.81,3.3,3.3,0,0,1,2.9,3.66v0A3.35,3.35,0,0,1,10.48,47Z" style="fill:#466bb3;fill-rule:evenodd"/><path d="M42.86,13.13A3.3,3.3,0,0,1,40,9.46v0a3.37,3.37,0,0,1,3.79-2.81,3.3,3.3,0,0,1,2.88,3.69A3.35,3.35,0,0,1,42.86,13.13Z" style="fill:#466bb3;fill-rule:evenodd"/><path d="M72.69,13.22a3.3,3.3,0,0,1-2.88-3.67v0a3.35,3.35,0,0,1,3.78-2.81,3.3,3.3,0,0,1,2.9,3.66v0A3.34,3.34,0,0,1,72.69,13.22Z" style="fill:#466bb3;fill-rule:evenodd"/><path d="M99.05,94a3.13,3.13,0,0,1-2.74-3.47v0a3.19,3.19,0,0,1,3.6-2.66,3.11,3.11,0,0,1,2.73,3.44v.05A3.2,3.2,0,0,1,99.05,94Z" style="fill:#466bb3;fill-rule:evenodd"/><path d="M75.44,107a2.93,2.93,0,0,1-2.58-3.24v0a3,3,0,0,1,3.38-2.51,2.93,2.93,0,0,1,2.59,3.24v.06A3,3,0,0,1,75.44,107Z" style="fill:#466bb3;fill-rule:evenodd"/><path d="M59.14,112.22A2.94,2.94,0,0,1,56.57,109v0A3,3,0,0,1,60,106.42a2.93,2.93,0,0,1,2.58,3.24v0A3,3,0,0,1,59.14,112.22Z" style="fill:#466bb3;fill-rule:evenodd"/><path d="M33.14,101.32a2.94,2.94,0,0,1-2.58-3.26v0A3,3,0,0,1,34,95.51a2.94,2.94,0,0,1,2.57,3.26v0A3,3,0,0,1,33.14,101.32Z" style="fill:#466bb3;fill-rule:evenodd"/><path d="M18.6,91.38a2.93,2.93,0,1,1,.81-5.81A2.94,2.94,0,0,1,22,88.83v0A3,3,0,0,1,18.6,91.38Z" style="fill:#466bb3;fill-rule:evenodd"/><path d="M11.24,64.68a2.94,2.94,0,0,1-2.58-3.26v0A3,3,0,0,1,12,58.87a2.93,2.93,0,0,1,2.59,3.24v0A3,3,0,0,1,11.24,64.68Z" style="fill:#466bb3;fill-rule:evenodd"/><path d="M19.63,38.81a2.94,2.94,0,1,1,.8-5.82A2.93,2.93,0,0,1,23,36.23v.06A3,3,0,0,1,19.63,38.81Z" style="fill:#466bb3;fill-rule:evenodd"/><path d="M28.63,24.15A2.94,2.94,0,1,1,32,21.64,3,3,0,0,1,28.63,24.15Z" style="fill:#466bb3;fill-rule:evenodd"/><path d="M54.92,14.9a2.94,2.94,0,1,1,3.39-2.52A3,3,0,0,1,54.92,14.9Z" style="fill:#466bb3;fill-rule:evenodd"/><path d="M81.42,21a2.93,2.93,0,0,1-2.58-3.24v0a3,3,0,0,1,3.38-2.52,2.94,2.94,0,0,1,2.59,3.26v0A3,3,0,0,1,81.42,21Z" style="fill:#466bb3;fill-rule:evenodd"/><path d="M97.08,27.91a2.92,2.92,0,0,1-2.58-3.24v-.06a3,3,0,0,1,3.38-2.51,2.93,2.93,0,0,1,2.59,3.24v.05A3,3,0,0,1,97.08,27.91Z" style="fill:#466bb3;fill-rule:evenodd"/><path d="M104.93,78.38a2.93,2.93,0,1,1,3.38-2.51A3,3,0,0,1,104.93,78.38Z" style="fill:#466bb3;fill-rule:evenodd"/><path d="M108.87,52.43a2.93,2.93,0,0,1-2.58-3.24v0a3,3,0,1,1,2.58,3.29Z" style="fill:#466bb3;fill-rule:evenodd"/><path d="M88.61,97a2.78,2.78,0,0,1-2.44-3.09v0A2.84,2.84,0,1,1,88.61,97Z" style="fill:#466bb3;fill-rule:evenodd"/><path d="M49.29,105.51a2.77,2.77,0,0,1-2.43-3.07v0A2.84,2.84,0,0,1,50.05,100a2.8,2.8,0,0,1,2.44,3.11h0A2.82,2.82,0,0,1,49.29,105.51Z" style="fill:#466bb3;fill-rule:evenodd"/><path d="M28.58,91.13a2.76,2.76,0,1,1,3.19-2.37,2.79,2.79,0,0,1-3.17,2.37Z" style="fill:#0ea7dd;fill-rule:evenodd"/><path d="M18,79.65a2.76,2.76,0,1,1,3.19-2.37A2.82,2.82,0,0,1,18,79.65Z" style="fill:#466bb3;fill-rule:evenodd"/><path d="M17,54.62a2.76,2.76,0,0,1-2.43-3v0a2.84,2.84,0,0,1,3.18-2.37A2.76,2.76,0,0,1,17,54.62Z" style="fill:#466bb3;fill-rule:evenodd"/><path d="M29.37,33.79a2.78,2.78,0,0,1-2.43-3.07v0a2.84,2.84,0,0,1,3.18-2.37,2.76,2.76,0,0,1-.75,5.47Z" style="fill:#466bb3;fill-rule:evenodd"/><path d="M40.24,22.17a2.78,2.78,0,0,1-2.43-3.07v0A2.84,2.84,0,0,1,41,16.7a2.76,2.76,0,0,1,2.43,3.06v0a2.8,2.8,0,0,1-3.17,2.37Z" style="fill:#466bb3;fill-rule:evenodd"/><path d="M65.32,19.38a2.79,2.79,0,0,1-2.44-3.1h0a2.85,2.85,0,0,1,3.19-2.36A2.77,2.77,0,0,1,68.52,17v0A2.83,2.83,0,0,1,65.32,19.38Z" style="fill:#466bb3;fill-rule:evenodd"/><path d="M87.29,29.74a2.78,2.78,0,0,1-2.43-3.09v0a2.84,2.84,0,0,1,5.62.74h0A2.83,2.83,0,0,1,87.29,29.74Z" style="fill:#0ea7dd;fill-rule:evenodd"/><path d="M100,38.54a2.78,2.78,0,0,1-2.43-3.07v0a2.82,2.82,0,0,1,3.18-2.37,2.76,2.76,0,1,1-.76,5.47Z" style="fill:#466bb3;fill-rule:evenodd"/><path d="M104.91,62.51a2.78,2.78,0,0,1-2.43-3.09v0A2.82,2.82,0,0,1,105.67,57a2.79,2.79,0,0,1,2.44,3.09h0A2.82,2.82,0,0,1,104.91,62.51Z" style="fill:#466bb3;fill-rule:evenodd"/><path d="M96.53,84.38a2.78,2.78,0,0,1-2.43-3.07v0a2.83,2.83,0,0,1,3.18-2.36A2.79,2.79,0,0,1,99.72,82h0A2.81,2.81,0,0,1,96.53,84.38Z" style="fill:#0ea7dd;fill-rule:evenodd"/><path d="M78.24,97.83a2.78,2.78,0,0,1-2.43-3.09v0A2.84,2.84,0,0,1,79,92.35a2.79,2.79,0,0,1,2.44,3.09h0A2.83,2.83,0,0,1,78.24,97.83Z" style="fill:#0ea7dd;fill-rule:evenodd"/><path d="M64.88,103.9a2.78,2.78,0,0,1-2.43-3.07v0a2.83,2.83,0,0,1,3.18-2.37,2.79,2.79,0,0,1,2.45,3.08v0A2.81,2.81,0,0,1,64.88,103.9Z" style="fill:#0ea7dd;fill-rule:evenodd"/><path d="M42.18,97.61a2.58,2.58,0,0,1-2.29-2.85V94.7a2.66,2.66,0,0,1,3-2.22,2.59,2.59,0,0,1,2.28,2.87v0A2.62,2.62,0,0,1,42.18,97.61Z" style="fill:#0ea7dd;fill-rule:evenodd"/><path d="M27.24,81.22A2.61,2.61,0,0,1,25,78.32v0a2.66,2.66,0,0,1,3-2.22A2.61,2.61,0,0,1,30.25,79v0A2.67,2.67,0,0,1,27.24,81.22Z" style="fill:#0ea7dd;fill-rule:evenodd"/><path d="M19.87,68.91A2.6,2.6,0,0,1,17.6,66v0a2.65,2.65,0,0,1,3-2.22,2.61,2.61,0,0,1,2.29,2.88v0A2.66,2.66,0,0,1,19.87,68.91Z" style="fill:#0ea7dd;fill-rule:evenodd"/><path d="M24,46.82a2.6,2.6,0,0,1-2.28-2.88v0a2.65,2.65,0,0,1,3-2.22A2.59,2.59,0,0,1,27,44.56v0A2.63,2.63,0,0,1,24,46.82Z" style="fill:#0ea7dd;fill-rule:evenodd"/><path d="M39.24,31.24A2.63,2.63,0,0,1,37,28.32a2.66,2.66,0,0,1,3-2.21A2.58,2.58,0,0,1,42.24,29V29A2.63,2.63,0,0,1,39.24,31.24Z" style="fill:#0ea7dd;fill-rule:evenodd"/><path d="M50.7,23a2.61,2.61,0,0,1-2.28-2.9h0a2.65,2.65,0,0,1,3-2.22,2.59,2.59,0,0,1,2.29,2.86v.05A2.63,2.63,0,0,1,50.7,23Z" style="fill:#0ea7dd;fill-rule:evenodd"/><path d="M99.5,70.65a2.59,2.59,0,0,1-2.28-2.86v0a2.65,2.65,0,0,1,3-2.22,2.59,2.59,0,0,1,2.29,2.86v0A2.63,2.63,0,0,1,99.5,70.65Z" style="fill:#0ea7dd;fill-rule:evenodd"/><path d="M99.77,48.76a2.61,2.61,0,0,1-2.28-2.9h0a2.65,2.65,0,0,1,3-2.22,2.61,2.61,0,0,1,2.29,2.9h0A2.63,2.63,0,0,1,99.77,48.76Z" style="fill:#0ea7dd;fill-rule:evenodd"/><path d="M73.36,25.28a2.61,2.61,0,0,1-2.28-2.9v0a2.65,2.65,0,0,1,3-2.21A2.61,2.61,0,0,1,76.37,23v0A2.66,2.66,0,0,1,73.36,25.28Z" style="fill:#0ea7dd;fill-rule:evenodd"/><path d="M56.33,98.82a2.26,2.26,0,0,1-2-2.49v0a2.3,2.3,0,0,1,2.59-1.92,2.25,2.25,0,0,1,2,2.47.13.13,0,0,1,0,.06A2.29,2.29,0,0,1,56.33,98.82Z" style="fill:#0ea7dd;fill-rule:evenodd"/><path d="M31.91,41.48a2.23,2.23,0,0,1-2-2.45V39A2.3,2.3,0,0,1,32.5,37a2.27,2.27,0,0,1,2,2.49v0A2.29,2.29,0,0,1,31.91,41.48Z" style="fill:#0ea7dd;fill-rule:evenodd"/><path d="M97.68,57.38a2.26,2.26,0,0,1-2-2.49v0a2.31,2.31,0,1,1,2.07,2.53Z" style="fill:#0ea7dd;fill-rule:evenodd"/><path d="M92.81,76.26a2.23,2.23,0,0,1-2-2.45v-.07a2.3,2.3,0,0,1,2.6-1.92,2.26,2.26,0,0,1,2,2.49v0A2.3,2.3,0,0,1,92.81,76.26Z" style="fill:#0ea7dd;fill-rule:evenodd"/><path d="M87.89,87.64a2.25,2.25,0,0,1-2-2.47v0a2.31,2.31,0,0,1,2.59-1.92,2.27,2.27,0,0,1,2,2.49v0A2.29,2.29,0,0,1,87.89,87.64Z" style="fill:#0ea7dd;fill-rule:evenodd"/><path d="M69.08,95.79a2.25,2.25,0,0,1-2-2.47v0a2.31,2.31,0,0,1,2.59-1.93,2.26,2.26,0,0,1,2,2.49v0A2.27,2.27,0,0,1,69.08,95.79Z" style="fill:#0ea7dd;fill-rule:evenodd"/><path d="M37.82,89.26a2.25,2.25,0,0,1,.34-4.49l.27,0a2.24,2.24,0,0,1,2,2.45.17.17,0,0,1,0,.07,2.28,2.28,0,0,1-2.57,1.94Z" style="fill:#0ea7dd;fill-rule:evenodd"/><path d="M23.45,60a2.27,2.27,0,0,1-2-2.51h0a2.33,2.33,0,0,1,2.6-1.93,2.26,2.26,0,0,1,2,2.49v0A2.28,2.28,0,0,1,23.45,60Z" style="fill:#0ea7dd;fill-rule:evenodd"/><path d="M48.24,30.72a2.23,2.23,0,0,1-2-2.45V28.2a2.3,2.3,0,0,1,2.58-1.92,2.23,2.23,0,0,1,2,2.45.17.17,0,0,1,0,.07A2.27,2.27,0,0,1,48.24,30.72Z" style="fill:#0ea7dd;fill-rule:evenodd"/><path d="M59.83,25.66a2.25,2.25,0,1,1,2.59-1.93A2.3,2.3,0,0,1,59.83,25.66Z" style="fill:#0ea7dd;fill-rule:evenodd"/><path d="M79.14,32a2.24,2.24,0,0,1-2-2.45V29.5a2.29,2.29,0,0,1,2.59-1.93,2.27,2.27,0,0,1,2,2.49v0A2.29,2.29,0,0,1,79.14,32Z" style="fill:#0ea7dd;fill-rule:evenodd"/><path d="M90.64,38.05a2.25,2.25,0,0,1-2-2.47v0a2.31,2.31,0,0,1,2.59-1.93,2.25,2.25,0,1,1-.37,4.49l-.25,0Z" style="fill:#0ea7dd;fill-rule:evenodd"/><path d="M93.56,64.72a2.26,2.26,0,0,1-2-2.49v0a2.32,2.32,0,0,1,2.6-1.93,2.26,2.26,0,0,1,2,2.49v0A2.3,2.3,0,0,1,93.56,64.72Z" style="fill:#0ea7dd;fill-rule:evenodd"/><path d="M79.38,88.77a2,2,0,0,1-1.74-2.23h0a2,2,0,1,1,1.74,2.23Z" style="fill:#0ea7dd;fill-rule:evenodd"/><path d="M61.51,92.48a2,2,0,1,1,2.29-1.7,2,2,0,0,1-2.29,1.7Z" style="fill:#0ea7dd;fill-rule:evenodd"/><path d="M49.69,92.75A2,2,0,0,1,48,90.52h0a2,2,0,0,1,2.26-1.7h0A2,2,0,0,1,52,91.05h0a2,2,0,0,1-2.25,1.71Z" style="fill:#0ea7dd;fill-rule:evenodd"/><path d="M35.46,80.61a2,2,0,0,1-1.74-2.23h0A2,2,0,0,1,36,76.68h0a2,2,0,1,1,0,4,2.15,2.15,0,0,1-.5-.07Z" style="fill:#0ea7dd;fill-rule:evenodd"/><path d="M27.93,71.79a2,2,0,0,1-1.74-2.23h0a2,2,0,0,1,2.26-1.7h0a2,2,0,0,1,1.76,2.22h0A2,2,0,0,1,28,71.8Z" style="fill:#0ea7dd;fill-rule:evenodd"/><path d="M29,52.78a2,2,0,0,1-1.74-2.23h0a2,2,0,0,1,2.26-1.7h0A2,2,0,1,1,29,52.79Z" style="fill:#0ea7dd;fill-rule:evenodd"/><path d="M39.85,38.55a2,2,0,0,1-1.73-2.23,2,2,0,0,1,4,.52,2,2,0,0,1-2.25,1.71Z" style="fill:#0ea7dd;fill-rule:evenodd"/><path d="M67.15,29.84a2,2,0,1,1,2.3-1.71,2,2,0,0,1-2.3,1.71Z" style="fill:#0ea7dd;fill-rule:evenodd"/><path d="M91.31,46.38a2,2,0,0,1-1.75-2.22h0a2,2,0,0,1,2.25-1.72h0a2,2,0,0,1,1.75,2.22v0a2,2,0,0,1-2.26,1.71Z" style="fill:#0ea7dd;fill-rule:evenodd"/><path d="M85.93,80.1a2,2,0,0,1-1.74-2.23h0a2,2,0,1,1,1.74,2.23Z" style="fill:#0ea7dd;fill-rule:evenodd"/><path d="M90.68,54.23a1.85,1.85,0,0,1-1.58-2.08v0a1.88,1.88,0,0,1,2.1-1.63,1.85,1.85,0,0,1,1.59,2.08v0a1.87,1.87,0,0,1-2.09,1.64Z" style="fill:#0ea7dd;fill-rule:evenodd"/><path d="M88.73,70.12A1.86,1.86,0,0,1,87.15,68v0a1.88,1.88,0,1,1,1.57,2.15Z" style="fill:#0ea7dd;fill-rule:evenodd"/><path d="M78.88,81.88a1.86,1.86,0,0,1-1.58-2.1v0a1.9,1.9,0,0,1,2.1-1.64A1.85,1.85,0,0,1,81,80.2v0A1.89,1.89,0,0,1,78.88,81.88Z" style="fill:#0ea7dd;fill-rule:evenodd"/><path d="M71.47,88.44a1.88,1.88,0,0,1-1.58-2.12A1.92,1.92,0,0,1,72,84.67a1.86,1.86,0,0,1,1.58,2.12A1.9,1.9,0,0,1,71.47,88.44Z" style="fill:#0ea7dd;fill-rule:evenodd"/><path d="M55.34,88a1.9,1.9,0,1,1,2.11-1.67v0A1.91,1.91,0,0,1,55.34,88Z" style="fill:#0ea7dd;fill-rule:evenodd"/><path d="M45.38,86.38a1.87,1.87,0,0,1-1.58-2.12h0a1.91,1.91,0,0,1,2.1-1.63,1.87,1.87,0,0,1,1.6,2.11v0A1.88,1.88,0,0,1,45.38,86.38Z" style="fill:#0ea7dd;fill-rule:evenodd"/><path d="M35.24,73.19a1.86,1.86,0,0,1-1.58-2.1v0a1.91,1.91,0,0,1,2.11-1.64,1.85,1.85,0,0,1,1.58,2.09v0A1.87,1.87,0,0,1,35.24,73.19Z" style="fill:#0ea7dd;fill-rule:evenodd"/><path d="M30.58,64.23A1.87,1.87,0,0,1,29,62.12h0a1.9,1.9,0,0,1,2.11-1.64,1.86,1.86,0,0,1,1.6,2.09v0A1.9,1.9,0,0,1,30.58,64.23Z" style="fill:#0ea7dd;fill-rule:evenodd"/><path d="M35.15,47.94a1.86,1.86,0,0,1-1.58-2.1v0a1.88,1.88,0,1,1,1.57,2.12Z" style="fill:#0ea7dd;fill-rule:evenodd"/><path d="M56.29,32.1a1.9,1.9,0,0,1,.52-3.76,1.85,1.85,0,0,1,1.59,2.08v0A1.9,1.9,0,0,1,56.29,32.1Z" style="fill:#0ea7dd;fill-rule:evenodd"/><path d="M82.83,38.75a1.89,1.89,0,0,1-1.6-2.13A1.91,1.91,0,0,1,83.35,35a1.86,1.86,0,0,1,1.58,2.1v0A1.9,1.9,0,0,1,82.83,38.75Z" style="fill:#0ea7dd;fill-rule:evenodd"/><path d="M34.24,57.65a1.68,1.68,0,0,1-1.43-1.89v0a1.64,1.64,0,1,1,1.43,1.92Z" style="fill:#0ea7dd;fill-rule:evenodd"/><path d="M72.94,35.11a1.69,1.69,0,0,1-1.44-1.89v0a1.69,1.69,0,1,1,3.35.44h0A1.72,1.72,0,0,1,72.94,35.11Z" style="fill:#0ea7dd;fill-rule:evenodd"/><path d="M84.37,45.88A1.69,1.69,0,0,1,82.93,44h0a1.73,1.73,0,0,1,1.91-1.48,1.72,1.72,0,0,1-.45,3.4Z" style="fill:#0ea7dd;fill-rule:evenodd"/><path d="M88.34,60.29a1.69,1.69,0,0,1-1.44-1.91h0a1.68,1.68,0,1,1,3.33.42v0A1.72,1.72,0,0,1,88.34,60.29Z" style="fill:#0ea7dd;fill-rule:evenodd"/><path d="M83.31,73.56a1.72,1.72,0,1,1,1.91-1.51v0A1.72,1.72,0,0,1,83.31,73.56Z" style="fill:#0ea7dd;fill-rule:evenodd"/><path d="M64.93,86.38A1.67,1.67,0,0,1,63.5,84.5v0a1.7,1.7,0,1,1,3.36.45A1.7,1.7,0,0,1,64.93,86.38Z" style="fill:#0ea7dd;fill-rule:evenodd"/><path d="M42.57,79.81a1.7,1.7,0,0,1-1.42-1.92h0a1.72,1.72,0,0,1,1.9-1.48,1.69,1.69,0,0,1,1.43,1.92A1.73,1.73,0,0,1,42.57,79.81Z" style="fill:#0ea7dd;fill-rule:evenodd"/><path d="M76.7,40.56a1.53,1.53,0,0,1-1.29-1.72h0a1.53,1.53,0,0,1,1.71-1.32A1.49,1.49,0,0,1,78.4,39.2v0A1.53,1.53,0,0,1,76.7,40.56Z" style="fill:#0ea7dd;fill-rule:evenodd"/><path d="M84,52.38a1.7,1.7,0,0,1-1.42-1.93A1.7,1.7,0,1,1,84,52.38Z" style="fill:#0ea7dd;fill-rule:evenodd"/><path d="M84.3,65.12a1.69,1.69,0,0,1-1.43-1.92,1.71,1.71,0,0,1,1.9-1.48,1.69,1.69,0,0,1,1.43,1.9v0A1.69,1.69,0,0,1,84.3,65.12Z" style="fill:#0ea7dd;fill-rule:evenodd"/><path d="M72.4,82A1.69,1.69,0,0,1,71,80.11h0a1.72,1.72,0,0,1,1.9-1.49,1.69,1.69,0,0,1,1.44,1.9v0A1.7,1.7,0,0,1,72.4,82Z" style="fill:#0ea7dd;fill-rule:evenodd"/><path d="M59.37,83.64a1.67,1.67,0,0,1-1.43-1.88v0a1.69,1.69,0,0,1,1.88-1.48h0a1.67,1.67,0,0,1,1.44,1.88v0A1.7,1.7,0,0,1,59.37,83.64Z" style="fill:#0ea7dd;fill-rule:evenodd"/><path d="M47.14,37.51a1.86,1.86,0,0,1-1.58-2.1v0a1.89,1.89,0,0,1,2.1-1.64h0a1.85,1.85,0,0,1,1.59,2.08v0A1.89,1.89,0,0,1,47.14,37.51Z" style="fill:#1cc1f2;fill-rule:evenodd"/><path d="M41.45,44.86A1.71,1.71,0,0,1,40,42.94a1.73,1.73,0,0,1,1.91-1.48,1.69,1.69,0,0,1,1.44,1.92h0A1.72,1.72,0,0,1,41.45,44.86Z" style="fill:#1cc1f2;fill-rule:evenodd"/><path d="M51,83a1.69,1.69,0,0,1-1.43-1.91h0a1.72,1.72,0,0,1,1.9-1.49,1.69,1.69,0,0,1,1.44,1.92A1.73,1.73,0,0,1,51,83Z" style="fill:#1cc1f2;fill-rule:evenodd"/><path d="M63,34.81a1.7,1.7,0,0,1-1.44-1.91h0A1.68,1.68,0,1,1,63,34.81Z" style="fill:#1cc1f2;fill-rule:evenodd"/><path d="M41.61,73.75a1.71,1.71,0,0,1,.47-3.39,1.67,1.67,0,0,1,1.44,1.88v0A1.7,1.7,0,0,1,41.61,73.75Z" style="fill:#1cc1f2;fill-rule:evenodd"/><path d="M36.47,66.58a1.72,1.72,0,0,1,.47-3.4,1.67,1.67,0,0,1,1.44,1.88v0A1.71,1.71,0,0,1,36.47,66.58Z" style="fill:#1cc1f2;fill-rule:evenodd"/><path d="M38.7,53.21a1.69,1.69,0,0,1-1.44-1.89v0a1.7,1.7,0,1,1,1.45,1.91Z" style="fill:#1cc1f2;fill-rule:evenodd"/><path d="M54.06,38a1.68,1.68,0,0,1-1.43-1.89v0A1.7,1.7,0,1,1,54.06,38Z" style="fill:#1cc1f2;fill-rule:evenodd"/><path d="M67.65,38.94a1.71,1.71,0,1,1,1.91-1.49h0a1.69,1.69,0,0,1-1.89,1.48Z" style="fill:#1cc1f2;fill-rule:evenodd"/><path d="M78.29,46.08a1.33,1.33,0,0,1-1.13-1.5v0a1.35,1.35,0,0,1,1.5-1.16,1.31,1.31,0,0,1,1.12,1.47v0A1.34,1.34,0,0,1,78.29,46.08Z" style="fill:#1cc1f2;fill-rule:evenodd"/><path d="M82.77,57.43A1.32,1.32,0,0,1,81.64,56v0a1.34,1.34,0,1,1,1.12,1.51Z" style="fill:#1cc1f2;fill-rule:evenodd"/><path d="M59.81,39.73a1.34,1.34,0,0,1-1.12-1.51h0A1.36,1.36,0,0,1,60.18,37a1.33,1.33,0,0,1,1.14,1.5v0A1.34,1.34,0,0,1,59.81,39.73Z" style="fill:#1cc1f2;fill-rule:evenodd"/><path d="M47.79,43a1.35,1.35,0,0,1,.33-2.68,1.36,1.36,0,0,1,1.18,1.5h0A1.36,1.36,0,0,1,47.79,43Z" style="fill:#1cc1f2;fill-rule:evenodd"/><path d="M39.33,61a1.32,1.32,0,0,1-1.12-1.49v0a1.33,1.33,0,0,1,1.48-1.16h0a1.32,1.32,0,0,1,1.14,1.48v0A1.34,1.34,0,0,1,39.33,61Z" style="fill:#1cc1f2;fill-rule:evenodd"/><path d="M43.82,49.75a1.33,1.33,0,0,1-1.13-1.5h0a1.36,1.36,0,0,1,1.49-1.17,1.32,1.32,0,0,1,1.14,1.48v0A1.33,1.33,0,0,1,43.82,49.75Z" style="fill:#1cc1f2;fill-rule:evenodd"/><path d="M48.42,77.52A1.33,1.33,0,0,1,47.29,76h0a1.33,1.33,0,1,1,1.13,1.51Z" style="fill:#1cc1f2;fill-rule:evenodd"/><path d="M77.76,75.38a1.32,1.32,0,0,1-1.13-1.48v0a1.36,1.36,0,0,1,1.5-1.17,1.34,1.34,0,0,1,1.12,1.51A1.36,1.36,0,0,1,77.76,75.38Z" style="fill:#1cc1f2;fill-rule:evenodd"/><path d="M67,80.72a1.29,1.29,0,0,1-1.11-1.44v0a1.32,1.32,0,0,1,2.64.14.69.69,0,0,1,0,.2A1.31,1.31,0,0,1,67,80.72Z" style="fill:#1cc1f2;fill-rule:evenodd"/><path d="M42.39,67.59a1.32,1.32,0,0,1-1.12-1.49h0a1.31,1.31,0,1,1,1.12,1.5Z" style="fill:#1cc1f2;fill-rule:evenodd"/><path d="M53.15,43.38A1.33,1.33,0,0,1,52,41.88h0a1.37,1.37,0,0,1,1.5-1.17,1.32,1.32,0,0,1,1.13,1.49v0A1.35,1.35,0,0,1,53.15,43.38Z" style="fill:#1cc1f2;fill-rule:evenodd"/><path d="M71.15,42.9A1.35,1.35,0,0,1,70,41.39a1.37,1.37,0,0,1,1.5-1.17,1.32,1.32,0,0,1,1.13,1.5A1.36,1.36,0,0,1,71.15,42.9Z" style="fill:#1cc1f2;fill-rule:evenodd"/><path d="M80.37,68.38a1.31,1.31,0,0,1-1.14-1.46v0a1.31,1.31,0,0,1,1.48-1.13,1.33,1.33,0,0,1-.33,2.63Z" style="fill:#1cc1f2;fill-rule:evenodd"/><path d="M72.44,76.21a1.35,1.35,0,0,1,.37-2.68A1.32,1.32,0,0,1,74,75v0A1.36,1.36,0,0,1,72.44,76.21Z" style="fill:#1cc1f2;fill-rule:evenodd"/><path d="M55.42,79.24a1.32,1.32,0,0,1-1.12-1.49v0a1.37,1.37,0,0,1,1.5-1.17,1.34,1.34,0,0,1,1.13,1.51h0A1.34,1.34,0,0,1,55.42,79.24Z" style="fill:#1cc1f2;fill-rule:evenodd"/><path d="M47.12,72.61A1.33,1.33,0,0,1,46,71.11h0a1.33,1.33,0,0,1,2.66.16.58.58,0,0,1,0,.19A1.35,1.35,0,0,1,47.12,72.61Z" style="fill:#1cc1f2;fill-rule:evenodd"/><path d="M42.61,56.9a1.35,1.35,0,0,1,.33-2.68,1.36,1.36,0,0,1,1.18,1.5h0A1.34,1.34,0,0,1,42.61,56.9Z" style="fill:#1cc1f2;fill-rule:evenodd"/><path d="M80.24,61.93a1.35,1.35,0,1,1,1.51-1.18h0A1.36,1.36,0,0,1,80.24,61.93Z" style="fill:#1cc1f2;fill-rule:evenodd"/><path d="M78.71,51.62a1.32,1.32,0,0,1-1.13-1.48v0a1.32,1.32,0,1,1,1.12,1.51Z" style="fill:#1cc1f2;fill-rule:evenodd"/><path d="M64.24,42.56a1.32,1.32,0,0,1-1.12-1.49v0a1.34,1.34,0,0,1,1.49-1.16,1.32,1.32,0,0,1,1.14,1.48v0A1.34,1.34,0,0,1,64.24,42.56Z" style="fill:#1cc1f2;fill-rule:evenodd"/><path d="M48.69,48.21A1.35,1.35,0,0,1,49,45.53,1.35,1.35,0,0,1,50.19,47v0A1.34,1.34,0,0,1,48.69,48.21Z" style="fill:#1cc1f2;fill-rule:evenodd"/><path d="M62.32,78.82a1.35,1.35,0,1,1,1.49-1.2v0A1.32,1.32,0,0,1,62.32,78.82Z" style="fill:#1cc1f2;fill-rule:evenodd"/><path d="M43.74,63.11a1.24,1.24,0,0,1-1.06-1.39v0a1.29,1.29,0,0,1,1.4-1.1,1.27,1.27,0,0,1-.34,2.51Z" style="fill:#1cc1f2;fill-rule:evenodd"/><path d="M73.34,47.32a1.25,1.25,0,0,1-1-1.42,1.26,1.26,0,0,1,1.4-1.09,1.23,1.23,0,0,1,1,1.41A1.25,1.25,0,0,1,73.34,47.32Z" style="fill:#1cc1f2;fill-rule:evenodd"/><path d="M67.24,45.66a1.13,1.13,0,0,1,.28-2.24h0a1.09,1.09,0,0,1,.93,1.24,1.11,1.11,0,0,1-1.22,1Z" style="fill:#1cc1f2;fill-rule:evenodd"/><path d="M58,44.38a1.27,1.27,0,0,1,.35-2.51,1.24,1.24,0,0,1,1,1.41A1.25,1.25,0,0,1,58,44.38Z" style="fill:#1cc1f2;fill-rule:evenodd"/><path d="M53.24,75.38a1.32,1.32,0,0,1-1.12-1.49v0a1.35,1.35,0,0,1,1.5-1.16,1.32,1.32,0,0,1,1.13,1.49v0A1.34,1.34,0,0,1,53.24,75.38Z" style="fill:#96d5d3;fill-rule:evenodd"/><path d="M77.92,56a1.26,1.26,0,0,1-1.06-1.41h0a1.26,1.26,0,0,1,1.4-1.09,1.23,1.23,0,0,1,1.07,1.38v0A1.27,1.27,0,0,1,77.92,56Z" style="fill:#96d5d3;fill-rule:evenodd"/><path d="M75.91,70.87a1.23,1.23,0,0,1-1.06-1.37v0a1.29,1.29,0,0,1,1.4-1.1,1.27,1.27,0,0,1-.34,2.51Z" style="fill:#96d5d3;fill-rule:evenodd"/><path d="M67.94,76a1.24,1.24,0,0,1-1.06-1.39v0a1.28,1.28,0,0,1,1.4-1.09,1.25,1.25,0,0,1,1.07,1.4h0A1.25,1.25,0,0,1,67.94,76Z" style="fill:#96d5d3;fill-rule:evenodd"/><path d="M58.83,76.17a1.24,1.24,0,0,1-1.07-1.38v0a1.28,1.28,0,0,1,1.41-1.08,1.23,1.23,0,0,1,1,1.41A1.25,1.25,0,0,1,58.83,76.17Z" style="fill:#96d5d3;fill-rule:evenodd"/><path d="M46,53.91a1.27,1.27,0,1,1,1.42-1.11h0A1.27,1.27,0,0,1,46,53.91Z" style="fill:#96d5d3;fill-rule:evenodd"/><path d="M77.24,65.05a1.24,1.24,0,0,1-1.06-1.39v0a1.29,1.29,0,0,1,1.41-1.09,1.24,1.24,0,0,1,1,1.42A1.27,1.27,0,0,1,77.24,65.05Z" style="fill:#96d5d3;fill-rule:evenodd"/><path d="M47.29,68.2A1.11,1.11,0,0,1,47.61,66a1.1,1.1,0,0,1,.92,1.23,1.12,1.12,0,0,1-1.23,1Z" style="fill:#96d5d3;fill-rule:evenodd"/><path d="M46.12,59.38a1.06,1.06,0,0,1-.92-1.2v0a1.11,1.11,0,0,1,1.19-1h0a1.08,1.08,0,0,1,.93,1.22v0a1.1,1.1,0,0,1-1.18,1Z" style="fill:#96d5d3;fill-rule:evenodd"/><path d="M76.37,59.38a1.11,1.11,0,0,1-1-1.23,1.12,1.12,0,1,1,2.22.23,1.1,1.1,0,0,1-1.18,1Z" style="fill:#96d5d3;fill-rule:evenodd"/><path d="M73.86,51.44a1.09,1.09,0,0,1-.93-1.23h0a1.09,1.09,0,1,1,.93,1.24Z" style="fill:#96d5d3;fill-rule:evenodd"/><path d="M61.43,46.12a1.07,1.07,0,0,1-.93-1.21v0a1.09,1.09,0,1,1,2.16.29h0A1.09,1.09,0,0,1,61.43,46.12Z" style="fill:#96d5d3;fill-rule:evenodd"/><path d="M52.91,47.64a1.11,1.11,0,0,1,.31-2.19,1.08,1.08,0,0,1,.93,1.21v0A1.11,1.11,0,0,1,52.91,47.64Z" style="fill:#96d5d3;fill-rule:evenodd"/><path d="M49.92,52A1.1,1.1,0,0,1,49,50.71h0a1.09,1.09,0,0,1,1.22-.93A1.07,1.07,0,0,1,51.15,51h0A1.11,1.11,0,0,1,49.92,52Z" style="fill:#96d5d3;fill-rule:evenodd"/><path d="M71.75,71.9a1.09,1.09,0,0,1-.93-1.21v0a1.11,1.11,0,0,1,1.21-1h0A1.09,1.09,0,0,1,73,70.9h0a1.1,1.1,0,0,1-1.21,1Z" style="fill:#96d5d3;fill-rule:evenodd"/><path d="M69.31,49a1.13,1.13,0,0,1,.28-2.24h0a1.11,1.11,0,0,1-.3,2.2h0Z" style="fill:#96d5d3;fill-rule:evenodd"/><path d="M56.84,48a1.09,1.09,0,0,1-.93-1.23h0a1.11,1.11,0,0,1,1.21-1h0a1.11,1.11,0,0,1-.3,2.2Z" style="fill:#96d5d3;fill-rule:evenodd"/><path d="M64.16,74.6a1.08,1.08,0,0,1-.92-1.22h0a1.08,1.08,0,1,1,.92,1.24Z" style="fill:#96d5d3;fill-rule:evenodd"/><path d="M74.07,67.16a1.11,1.11,0,1,1,1.23-1,1.1,1.1,0,0,1-1.18,1Z" style="fill:#96d5d3;fill-rule:evenodd"/><path d="M51.39,71.38a1.11,1.11,0,0,1-.93-1.25h0a1.11,1.11,0,0,1,1.23-.95,1.08,1.08,0,0,1,.93,1.22v0A1.09,1.09,0,0,1,51.39,71.38Z" style="fill:#96d5d3;fill-rule:evenodd"/><path d="M73.68,55.29A1.13,1.13,0,0,1,74,53.05h0a1.1,1.1,0,0,1,.93,1.24h0a1.1,1.1,0,0,1-1.18,1Z" style="fill:#96d5d3;fill-rule:evenodd"/><path d="M74.15,62.38a1.09,1.09,0,0,1-.93-1.23h0a1.13,1.13,0,0,1,1.23-1,1.1,1.1,0,0,1,.93,1.25A1.12,1.12,0,0,1,74.15,62.38Z" style="fill:#96d5d3;fill-rule:evenodd"/><path d="M48.94,56.78A1.08,1.08,0,0,1,48,55.56h0a1.11,1.11,0,0,1,1.19-1h0a1.09,1.09,0,0,1,.94,1.21v0a1.08,1.08,0,0,1-1.19,1Z" style="fill:#96d5d3;fill-rule:evenodd"/><path d="M60,49.06a1.11,1.11,0,0,1,.3-2.2h0a1.11,1.11,0,0,1-.3,2.2Z" style="fill:#96d5d3;fill-rule:evenodd"/><path d="M70.32,52.21A1.1,1.1,0,0,1,69.4,51h0A1.1,1.1,0,0,1,70.63,50a1.08,1.08,0,0,1,.93,1.22h0A1.1,1.1,0,0,1,70.32,52.21Z" style="fill:#96d5d3;fill-rule:evenodd"/><path d="M47.92,64.21A1.08,1.08,0,0,1,47,63v0a1.08,1.08,0,1,1,.92,1.24Z" style="fill:#96d5d3;fill-rule:evenodd"/><path d="M53.24,51.15a1.09,1.09,0,0,1-.93-1.23h0a1.09,1.09,0,1,1,2.16.28h0A1.09,1.09,0,0,1,53.24,51.15Z" style="fill:#96d5d3;fill-rule:evenodd"/><path d="M68.24,72.1a1.11,1.11,0,0,1-.93-1.24,1.13,1.13,0,0,1,1.23-1h0a1.08,1.08,0,0,1,.93,1.22v0a1.08,1.08,0,0,1-1.18,1Z" style="fill:#96d5d3;fill-rule:evenodd"/><path d="M64.37,48.27A1.1,1.1,0,0,1,63.45,47h0a1.11,1.11,0,0,1,1.21-1h0a1.11,1.11,0,1,1-.31,2.2Z" style="fill:#96d5d3;fill-rule:evenodd"/><path d="M54.87,70a.87.87,0,0,1-.75-1v0a.9.9,0,0,1,1-.78A.9.9,0,0,1,54.87,70Z" style="fill:#96d5d3;fill-rule:evenodd"/><path d="M51,67.92a.88.88,0,0,1-.74-1,.89.89,0,0,1,1-.74A.88.88,0,0,1,51,67.92Z" style="fill:#96d5d3;fill-rule:evenodd"/><path d="M49.24,61a.89.89,0,0,1-.75-1h0a.9.9,0,0,1,1-.78.89.89,0,0,1,.76,1h0A.89.89,0,0,1,49.24,61Z" style="fill:#96d5d3;fill-rule:evenodd"/><path d="M51.55,54.82A.9.9,0,0,1,51.81,53a.89.89,0,0,1,.76,1h0A.92.92,0,0,1,51.55,54.82Z" style="fill:#96d5d3;fill-rule:evenodd"/><path d="M56.41,51.06a.9.9,0,0,1-.75-1,.9.9,0,0,1,1-.78.88.88,0,0,1,.75,1v0a.87.87,0,0,1-1,.78Z" style="fill:#96d5d3;fill-rule:evenodd"/><path d="M56.49,72.68a.9.9,0,0,1-.76-1,.92.92,0,0,1,1-.77.9.9,0,0,1-.24,1.78Z" style="fill:#96d5d3;fill-rule:evenodd"/><path d="M71,68.09a.91.91,0,0,1-.75-1,.92.92,0,0,1,1-.77.89.89,0,0,1,.76,1h0A.89.89,0,0,1,71,68.09Z" style="fill:#96d5d3;fill-rule:evenodd"/><path d="M73,58a.9.9,0,0,1-.76-1,.94.94,0,0,1,1-.78A.9.9,0,1,1,73,58h0Z" style="fill:#96d5d3;fill-rule:evenodd"/><path d="M66.51,50.55a.89.89,0,0,1-.75-1h0a.89.89,0,0,1,1-.78h0a.88.88,0,0,1,.77,1v0a.9.9,0,0,1-1,.78Z" style="fill:#96d5d3;fill-rule:evenodd"/><path d="M61.14,72.94a.89.89,0,0,1,.25-1.77.86.86,0,0,1,.75,1v0A.88.88,0,0,1,61.14,72.94Z" style="fill:#96d5d3;fill-rule:evenodd"/><path d="M51.24,64.43a.62.62,0,0,1,.16-1.23h0a.61.61,0,0,1,.53.67v0A.61.61,0,0,1,51.24,64.43Z" style="fill:#96d5d3;fill-rule:evenodd"/><path d="M54,67.08a.61.61,0,0,1-.51-.69h0a.61.61,0,0,1,.62-.6.59.59,0,0,1,.6.61.39.39,0,0,1,0,.15A.62.62,0,0,1,54,67.08Z" style="fill:#96d5d3;fill-rule:evenodd"/><path d="M62.74,70a.47.47,0,0,1-.4-.53v0a.49.49,0,0,1,.55-.38.47.47,0,0,1,.38.55A.48.48,0,0,1,62.74,70Z" style="fill:#96d5d3;fill-rule:evenodd"/><path d="M58.73,70.58a.64.64,0,0,1-.45-.77.59.59,0,0,1,1.15.22h0A.62.62,0,0,1,58.73,70.58Z" style="fill:#96d5d3;fill-rule:evenodd"/><path d="M65.11,70.92a.63.63,0,0,1-.53-.7.63.63,0,0,1,.7-.53.61.61,0,0,1,.52.7A.62.62,0,0,1,65.11,70.92Z" style="fill:#96d5d3;fill-rule:evenodd"/><path d="M68.18,68.44a.61.61,0,0,1-.51-.69h0a.61.61,0,0,1,.62-.6.59.59,0,0,1,.6.61.39.39,0,0,1,0,.15A.62.62,0,0,1,68.18,68.44Z" style="fill:#96d5d3;fill-rule:evenodd"/><path d="M72.24,63.93a.62.62,0,0,1-.51-.69.61.61,0,0,1,.67-.53h0a.6.6,0,0,1,.53.65v0A.62.62,0,0,1,72.24,63.93Z" style="fill:#96d5d3;fill-rule:evenodd"/><path d="M72,60.21a.62.62,0,0,1-.52-.69.64.64,0,0,1,.69-.54.61.61,0,0,1,.52.68h0A.61.61,0,0,1,72,60.21Z" style="fill:#96d5d3;fill-rule:evenodd"/><path d="M70.87,54.61a.61.61,0,0,1-.51-.68h0a.64.64,0,0,1,.68-.53.61.61,0,0,1,.53.67v0a.6.6,0,0,1-.67.53Z" style="fill:#96d5d3;fill-rule:evenodd"/><path d="M62.62,49.84a.61.61,0,0,1-.52-.67v0a.64.64,0,0,1,.69-.54.61.61,0,0,1,.52.7h0a.59.59,0,0,1-.66.53Z" style="fill:#96d5d3;fill-rule:evenodd"/><path d="M54.12,53.5a.64.64,0,0,1-.45-.77.62.62,0,0,1,.62-.47.64.64,0,0,1,.46.77A.63.63,0,0,1,54.12,53.5Z" style="fill:#96d5d3;fill-rule:evenodd"/><path d="M51.08,58.38a.63.63,0,0,1-.53-.7.63.63,0,0,1,.7-.53.62.62,0,0,1,.53.69h0A.62.62,0,0,1,51.08,58.38Z" style="fill:#96d5d3;fill-rule:evenodd"/><path d="M57.34,68.46A.49.49,0,1,1,57.9,68h0A.48.48,0,0,1,57.34,68.46Z" style="fill:#96d5d3;fill-rule:evenodd"/><path d="M53.82,64.57a.46.46,0,0,1-.4-.51v0a.48.48,0,0,1,.53-.41h0a.46.46,0,0,1,.41.51v0a.46.46,0,0,1-.52.41Z" style="fill:#96d5d3;fill-rule:evenodd"/><path d="M51.89,61.8a.47.47,0,0,1-.4-.53h0a.49.49,0,0,1,.53-.42.47.47,0,0,1,.42.52v0A.47.47,0,0,1,51.89,61.8Z" style="fill:#96d5d3;fill-rule:evenodd"/><path d="M53,56.59a.5.5,0,1,1,.12-1,.49.49,0,0,1,.44.56A.5.5,0,0,1,53,56.59Z" style="fill:#96d5d3;fill-rule:evenodd"/><path d="M56.59,52.88a.47.47,0,0,1-.4-.53h0a.5.5,0,0,1,.53-.43.49.49,0,0,1,.42.54h0A.49.49,0,0,1,56.59,52.88Z" style="fill:#96d5d3;fill-rule:evenodd"/><path d="M59.13,50.91a.49.49,0,0,1-.41-.54.51.51,0,0,1,.56-.44.49.49,0,0,1,.44.56h0a.47.47,0,0,1-.5.44Z" style="fill:#96d5d3;fill-rule:evenodd"/><path d="M64.51,51.38a.5.5,0,0,1-.41-.54.49.49,0,0,1,.54-.42h0a.46.46,0,0,1,.41.51v0A.48.48,0,0,1,64.51,51.38Z" style="fill:#96d5d3;fill-rule:evenodd"/><path d="M67.76,52.38a.5.5,0,0,1,.13-1,.48.48,0,0,1,.41.53h0a.48.48,0,0,1-.51.46Z" style="fill:#96d5d3;fill-rule:evenodd"/><path d="M70.81,56.87a.48.48,0,1,1,.56-.43v0A.49.49,0,0,1,70.81,56.87Z" style="fill:#96d5d3;fill-rule:evenodd"/><path d="M70.8,62.12a.46.46,0,0,1-.41-.5v0a.49.49,0,0,1,.51-.45.47.47,0,0,1,.45.5.15.15,0,0,1,0,.07A.5.5,0,0,1,70.8,62.12Z" style="fill:#96d5d3;fill-rule:evenodd"/><path d="M70.13,65.21a.51.51,0,0,1-.41-.55.5.5,0,0,1,.54-.42.48.48,0,0,1,.41.55h0A.48.48,0,0,1,70.13,65.21Z" style="fill:#96d5d3;fill-rule:evenodd"/><path d="M65.91,68.29a.48.48,0,0,1,.13-1,.49.49,0,0,1,.42.54h0A.49.49,0,0,1,65.91,68.29Z" style="fill:#96d5d3;fill-rule:evenodd"/></g></g></g></svg>