<svg width="55" height="16" viewBox="0 0 55 16" fill="none" xmlns="http://www.w3.org/2000/svg">
<path d="M16.6355 0H14.1582V16H16.6355V0Z" fill="#7F7F7F"/>
<path d="M25.3047 10.896C25.3047 13.3446 23.3123 13.5398 22.7197 13.5398C21.2389 13.5398 20.9695 12.1075 20.9695 11.2435V5.12H18.4922V11.2307C18.4922 12.7475 18.953 13.9994 19.7606 14.8339C20.474 15.5718 21.5429 15.975 22.7011 15.975C23.5223 15.975 24.6854 15.7107 25.3047 15.1264V16H27.782V5.12H25.3047V10.896Z" fill="#7F7F7F"/>
<path d="M32.7376 1.28003H30.2603V5.12003H28.4023V7.68003H30.2603V16H32.7376V7.68003H34.5955V5.12003H32.7376V1.28003Z" fill="#7F7F7F"/>
<path d="M42.3987 12.7469C41.8593 13.248 41.1471 13.5257 40.3655 13.5257C38.6425 13.5257 37.3773 12.2182 37.3773 10.423C37.3773 8.62782 38.6023 7.37534 40.3655 7.37534C41.1334 7.37534 41.8593 7.63966 42.4123 8.14078L42.7883 8.47486L44.4586 6.74942L44.0405 6.35966C43.0577 5.44254 41.7528 4.92798 40.3649 4.92798C37.2683 4.92798 35.0195 7.2371 35.0195 10.4096C35.0195 13.5686 37.3222 15.9603 40.3649 15.9603C41.7788 15.9603 43.0973 15.4457 44.0678 14.5139L44.4716 14.1241L42.7753 12.4L42.3987 12.7469Z" fill="#7F7F7F"/>
<path d="M53.2979 6.06848C52.5844 5.3312 51.7483 4.928 50.5902 4.928C49.769 4.928 48.8388 5.19232 48.2195 5.776V0H45.7422V16H48.2195V10.0064C48.2195 7.55776 49.9028 7.3632 50.4955 7.3632C51.9762 7.3632 51.9354 8.79616 51.9354 9.65888V16H54.4126V9.67232C54.4126 8.15552 54.1061 6.90368 53.2979 6.06848Z" fill="#7F7F7F"/>
<path d="M40.2826 8.60034C41.2723 8.60034 42.0743 9.42786 42.0743 10.4512C42.0743 11.4733 41.2723 12.3021 40.2826 12.3021C39.2936 12.3021 38.4922 11.4733 38.4922 10.4512C38.4928 9.4285 39.2942 8.60034 40.2826 8.60034Z" fill="#FF3D2E"/>
<path d="M10.6901 11.9814C9.74807 12.983 8.46856 13.5258 7.12216 13.5258C4.36248 13.5258 2.35589 11.2858 2.35589 8.2112C2.35589 5.12256 4.36248 2.88256 7.12216 2.88256C8.45555 2.88256 9.72082 3.42464 10.677 4.4128L11.0536 4.80256L12.7096 3.0912L12.3461 2.70144C10.9731 1.24032 9.11512 0.447998 7.12216 0.447998C3.05633 0.447998 0 3.78688 0 8.22464C0 12.649 3.06996 15.9744 7.12216 15.9744C9.12875 15.9744 10.9867 15.168 12.3597 13.7069L12.7233 13.3171L11.0808 11.5782L10.6901 11.9814Z" fill="#7F7F7F"/>
</svg>
