<svg width="37" height="36" viewBox="0 0 37 36" fill="none" xmlns="http://www.w3.org/2000/svg">
<path d="M13.85 32.25C12.525 32.25 11.2812 32.0063 10.1187 31.5188C8.95625 31.0313 7.925 30.3375 7.025 29.4375C6.15 28.5625 5.46875 27.55 4.98125 26.4C4.49375 25.25 4.25 24 4.25 22.65C4.25 20.775 4.74375 19.0563 5.73125 17.4938C6.71875 15.9313 8.0625 14.775 9.7625 14.025C10.2375 12.975 10.8812 12.0438 11.6938 11.2313C12.5063 10.4188 13.45 9.7625 14.525 9.2625C15.275 7.5375 16.4187 6.1875 17.9562 5.2125C19.4937 4.2375 21.2375 3.75 23.1875 3.75C24.5125 3.75 25.75 3.99375 26.9 4.48125C28.05 4.96875 29.0625 5.6625 29.9375 6.5625C30.8125 7.4625 31.5 8.48125 32 9.61875C32.5 10.7562 32.75 11.9875 32.75 13.3125C32.75 15.2875 32.2875 17.0125 31.3625 18.4875C30.4375 19.9625 29.0625 21.125 27.2375 21.975C26.7625 23.075 26.125 24.0188 25.325 24.8063C24.525 25.5938 23.575 26.2375 22.475 26.7375C21.725 28.4625 20.5813 29.8125 19.0438 30.7875C17.5063 31.7625 15.775 32.25 13.85 32.25ZM13.85 30.5625C15.05 30.5625 16.2188 30.275 17.3563 29.7C18.4938 29.125 19.3875 28.35 20.0375 27.375C18.4625 27.625 16.9562 27.5125 15.5187 27.0375C14.0813 26.5625 12.825 25.8125 11.75 24.7875C10.675 23.7125 9.90625 22.4562 9.44375 21.0187C8.98125 19.5813 8.875 18.075 9.125 16.5C8.125 17.15 7.34375 18.0375 6.78125 19.1625C6.21875 20.2875 5.9375 21.45 5.9375 22.65C5.9375 23.775 6.1375 24.8125 6.5375 25.7625C6.9375 26.7125 7.5125 27.55 8.2625 28.275C8.9875 28.975 9.825 29.5312 10.775 29.9437C11.725 30.3562 12.75 30.5625 13.85 30.5625ZM18.5 25.875C19.85 25.875 21.0688 25.5625 22.1562 24.9375C23.2437 24.3125 24.1 23.5625 24.725 22.6875C23.15 22.9375 21.65 22.8188 20.225 22.3312C18.8 21.8438 17.5625 21.0625 16.5125 19.9875C15.4125 18.8875 14.625 17.625 14.15 16.2C13.675 14.775 13.575 13.275 13.85 11.7C12.8 12.525 12.0062 13.4375 11.4688 14.4375C10.9313 15.4375 10.6625 16.625 10.6625 18C10.6625 19.075 10.8625 20.0938 11.2625 21.0563C11.6625 22.0188 12.225 22.8625 12.95 23.5875C13.675 24.3125 14.5125 24.875 15.4625 25.275C16.4125 25.675 17.425 25.875 18.5 25.875ZM23.3375 21.1125C23.7625 21.1125 24.1938 21.0688 24.6312 20.9813C25.0687 20.8938 25.525 20.7625 26 20.5875C26.525 19.0875 26.6125 17.6313 26.2625 16.2188C25.9125 14.8062 25.1875 13.55 24.0875 12.45C23.0625 11.425 21.7812 10.725 20.2438 10.35C18.7063 9.975 17.25 10.0375 15.875 10.5375C15.75 10.9625 15.65 11.3937 15.575 11.8312C15.5 12.2687 15.4625 12.7625 15.4625 13.3125C15.4625 14.3625 15.6625 15.3625 16.0625 16.3125C16.4625 17.2625 17.025 18.1125 17.75 18.8625C18.5 19.6375 19.35 20.2062 20.3 20.5687C21.25 20.9312 22.2625 21.1125 23.3375 21.1125ZM28.025 19.575C29 18.875 29.75 18.0187 30.275 17.0062C30.8 15.9937 31.0625 14.7625 31.0625 13.3125C31.0625 12.2375 30.8625 11.225 30.4625 10.275C30.0625 9.325 29.4875 8.4875 28.7375 7.7625C28.0125 7.0125 27.175 6.4375 26.225 6.0375C25.275 5.6375 24.2625 5.4375 23.1875 5.4375C21.8625 5.4375 20.6688 5.70625 19.6063 6.24375C18.5438 6.78125 17.6125 7.55 16.8125 8.55C18.3875 8.3 19.9125 8.41875 21.3875 8.90625C22.8625 9.39375 24.15 10.175 25.25 11.25C26.375 12.35 27.1812 13.6188 27.6687 15.0563C28.1562 16.4938 28.275 18 28.025 19.575Z" fill="white"/>
</svg>
