<svg width="13" height="20" viewBox="0 0 13 20" fill="none" xmlns="http://www.w3.org/2000/svg">
<path fill-rule="evenodd" clip-rule="evenodd" d="M6.50087 0.375C6.6832 0.375 6.85807 0.447433 6.987 0.576364C7.11594 0.705295 7.18837 0.880164 7.18837 1.0625V17.2779L11.5141 12.9508C11.6432 12.8217 11.8183 12.7491 12.0009 12.7491C12.1834 12.7491 12.3585 12.8217 12.4876 12.9508C12.6167 13.0798 12.6892 13.2549 12.6892 13.4375C12.6892 13.6201 12.6167 13.7952 12.4876 13.9242L6.98762 19.4242C6.92376 19.4883 6.84789 19.5391 6.76436 19.5737C6.68084 19.6084 6.5913 19.6262 6.50087 19.6262C6.41044 19.6262 6.3209 19.6084 6.23737 19.5737C6.15385 19.5391 6.07798 19.4883 6.01412 19.4242L0.514118 13.9242C0.385024 13.7952 0.3125 13.6201 0.3125 13.4375C0.3125 13.2549 0.385024 13.0798 0.514118 12.9508C0.643212 12.8217 0.818302 12.7491 1.00087 12.7491C1.18344 12.7491 1.35852 12.8217 1.48762 12.9508L5.81337 17.2779V1.0625C5.81337 0.880164 5.8858 0.705295 6.01473 0.576364C6.14366 0.447433 6.31853 0.375 6.50087 0.375Z" fill="black"/>
</svg>
