<svg width="56" height="56" viewBox="0 0 56 56" fill="none" xmlns="http://www.w3.org/2000/svg">
<rect width="56" height="56" rx="8" fill="url(#paint0_linear_1683_5210)"/>
<path d="M32.45 36.75C32.15 36.75 31.8875 36.6375 31.6625 36.4125C31.4375 36.1875 31.325 35.925 31.325 35.625V33.65H28.575C28.2583 33.65 27.9875 33.5375 27.7625 33.3125C27.5375 33.0875 27.425 32.825 27.425 32.525V23.475H24.7V25.525C24.7 25.825 24.5875 26.0875 24.3625 26.3125C24.1375 26.5375 23.8667 26.65 23.55 26.65H19.375C19.075 26.65 18.8125 26.5375 18.5875 26.3125C18.3625 26.0875 18.25 25.825 18.25 25.525V20.375C18.25 20.075 18.3625 19.8125 18.5875 19.5875C18.8125 19.3625 19.075 19.25 19.375 19.25H23.55C23.8667 19.25 24.1375 19.3625 24.3625 19.5875C24.5875 19.8125 24.7 20.075 24.7 20.375V22.325H31.325V20.375C31.325 20.075 31.4375 19.8125 31.6625 19.5875C31.8875 19.3625 32.15 19.25 32.45 19.25H36.625C36.925 19.25 37.1875 19.3625 37.4125 19.5875C37.6375 19.8125 37.75 20.075 37.75 20.375V25.525C37.75 25.825 37.6375 26.0875 37.4125 26.3125C37.1875 26.5375 36.925 26.65 36.625 26.65H32.45C32.15 26.65 31.8875 26.5375 31.6625 26.3125C31.4375 26.0875 31.325 25.825 31.325 25.525V23.475H28.575V32.525H31.325V30.475C31.325 30.175 31.4375 29.9083 31.6625 29.675C31.8875 29.4417 32.15 29.325 32.45 29.325H36.625C36.925 29.325 37.1875 29.4417 37.4125 29.675C37.6375 29.9083 37.75 30.175 37.75 30.475V35.625C37.75 35.925 37.6375 36.1875 37.4125 36.4125C37.1875 36.6375 36.925 36.75 36.625 36.75H32.45ZM19.375 20.375V25.525V20.375ZM32.45 30.475V35.625V30.475ZM32.45 20.375V25.525V20.375ZM32.45 25.525H36.625V20.375H32.45V25.525ZM32.45 35.625H36.625V30.475H32.45V35.625ZM19.375 25.525H23.55V20.375H19.375V25.525Z" fill="white"/>
<defs>
<linearGradient id="paint0_linear_1683_5210" x1="56" y1="56" x2="4.5" y2="5.5" gradientUnits="userSpaceOnUse">
<stop stop-color="#14B8A6"/>
<stop offset="1" stop-color="#48DFCE"/>
</linearGradient>
</defs>
</svg>
