<svg width="37" height="36" viewBox="0 0 37 36" fill="none" xmlns="http://www.w3.org/2000/svg">
<path d="M2.2625 26.7002C1.9875 26.7002 1.75 26.5939 1.55 26.3814C1.35 26.1689 1.25 25.9252 1.25 25.6502V25.1252C1.25 24.2002 1.7375 23.4502 2.7125 22.8752C3.6875 22.3002 4.9875 22.0127 6.6125 22.0127C6.8875 22.0127 7.1625 22.0189 7.4375 22.0314C7.7125 22.0439 7.975 22.0752 8.225 22.1252C8.05 22.5002 7.91875 22.8939 7.83125 23.3064C7.74375 23.7189 7.7 24.1502 7.7 24.6002V26.7002H2.2625ZM11.3375 26.7002C11.0125 26.7002 10.75 26.5939 10.55 26.3814C10.35 26.1689 10.25 25.9127 10.25 25.6127V24.6752C10.25 23.2252 11.0062 22.0627 12.5187 21.1877C14.0312 20.3127 16.025 19.8752 18.5 19.8752C20.975 19.8752 22.9688 20.3127 24.4813 21.1877C25.9937 22.0627 26.75 23.2252 26.75 24.6752V25.6127C26.75 25.9127 26.6438 26.1689 26.4313 26.3814C26.2188 26.5939 25.9625 26.7002 25.6625 26.7002H11.3375ZM29.3 26.7002V24.6002C29.3 24.1502 29.2562 23.7189 29.1687 23.3064C29.0812 22.8939 28.95 22.4877 28.775 22.0877C29.025 22.0627 29.2875 22.0439 29.5625 22.0314C29.8375 22.0189 30.1125 22.0127 30.3875 22.0127C31.9875 22.0127 33.2812 22.3002 34.2688 22.8752C35.2563 23.4502 35.75 24.2002 35.75 25.1252V25.6502C35.75 25.9252 35.65 26.1689 35.45 26.3814C35.25 26.5939 35.0125 26.7002 34.7375 26.7002H29.3ZM18.5 21.5627C16.5 21.5627 14.9 21.8564 13.7 22.4439C12.5 23.0314 11.9125 23.7877 11.9375 24.7127V24.9752H25.0625V24.6752C25.0875 23.8002 24.5 23.0627 23.3 22.4627C22.1 21.8627 20.5 21.5627 18.5 21.5627ZM6.6125 20.8127C5.9625 20.8127 5.41875 20.5877 4.98125 20.1377C4.54375 19.6877 4.325 19.1502 4.325 18.5252C4.325 17.8752 4.54375 17.3314 4.98125 16.8939C5.41875 16.4564 5.9625 16.2377 6.6125 16.2377C7.2375 16.2377 7.775 16.4627 8.225 16.9127C8.675 17.3627 8.9 17.9002 8.9 18.5252C8.9 19.1502 8.675 19.6877 8.225 20.1377C7.775 20.5877 7.2375 20.8127 6.6125 20.8127ZM30.3875 20.8127C29.7625 20.8127 29.225 20.5877 28.775 20.1377C28.325 19.6877 28.1 19.1502 28.1 18.5252C28.1 17.8752 28.325 17.3314 28.775 16.8939C29.225 16.4564 29.7625 16.2377 30.3875 16.2377C31.0375 16.2377 31.5813 16.4627 32.0188 16.9127C32.4563 17.3627 32.675 17.9002 32.675 18.5252C32.675 19.1502 32.4563 19.6877 32.0188 20.1377C31.5813 20.5877 31.0375 20.8127 30.3875 20.8127ZM18.5 18.7502C17.425 18.7502 16.5063 18.3689 15.7438 17.6064C14.9813 16.8439 14.6 15.9252 14.6 14.8502C14.6 13.7752 14.9813 12.8564 15.7438 12.0939C16.5063 11.3314 17.425 10.9502 18.5 10.9502C19.575 10.9502 20.4937 11.3314 21.2562 12.0939C22.0187 12.8564 22.4 13.7752 22.4 14.8502C22.4 15.9252 22.0187 16.8439 21.2562 17.6064C20.4937 18.3689 19.575 18.7502 18.5 18.7502ZM18.5 12.6752C17.875 12.6752 17.3562 12.8814 16.9437 13.2939C16.5312 13.7064 16.325 14.2252 16.325 14.8502C16.325 15.4752 16.5312 16.0002 16.9437 16.4252C17.3562 16.8502 17.875 17.0627 18.5 17.0627C19.125 17.0627 19.6438 16.8502 20.0563 16.4252C20.4688 16.0002 20.675 15.4752 20.675 14.8502C20.675 14.2252 20.4688 13.7064 20.0563 13.2939C19.6438 12.8814 19.125 12.6752 18.5 12.6752Z" fill="white"/>
</svg>
