<svg width="44" height="64" viewBox="0 0 44 64" fill="none" xmlns="http://www.w3.org/2000/svg">
<g style="mix-blend-mode:luminosity">
<path d="M12.7184 52.8399L12.8926 52.529C6.13164 49.1436 1.70564 46.9327 0.764681 34.1509L0.451027 24.0291L1.21774 23.6145C6.37559 20.7127 11.3243 15.8764 15.5761 9.55455L15.7155 9.34728L16.4125 8.93273L16.8656 9.10546C18.155 9.48546 19.4793 9.72728 20.9082 9.72728V9.38182C19.549 9.38182 18.2247 9.17455 17.005 8.76001L16.3777 8.55273L15.4715 9.07092L15.2973 9.34728C11.0804 15.6 6.13164 20.4364 1.04348 23.3036L0.102524 23.8218L0.416178 34.1163C1.32229 47.1745 5.85284 49.4199 12.7184 52.8399Z" fill="#D1EBFF"/>
<path d="M5.39938 27.1035C10.6269 24.1672 15.75 19.1581 20.0017 12.8017L20.0714 12.7672C24.358 14.2526 29.4462 13.389 34.6737 10.349L34.8828 10.2454L34.604 19.9181C33.6282 34.9108 28.4355 41.4399 20.1411 55.3962L19.932 55.4998C11.6376 51.078 6.4449 50.4562 5.46909 36.569L5.19028 27.2072L5.39938 27.1035Z" fill="#A8CFF0"/>
<path d="M2.47165 24.8927C7.69921 21.9563 12.8222 16.9473 17.074 10.5909L17.1437 10.5564C21.4303 12.0418 26.5184 11.1782 31.746 8.13818L31.9551 8L34.8477 10.2455L34.7083 10.3145C29.4807 13.3545 24.3577 14.2182 20.1059 12.7327L20.0362 12.7673C15.7496 19.1236 10.6615 24.1327 5.43393 27.0691L5.22483 27.1727L5.50364 36.5345C6.16579 45.5854 8.57047 49.0054 12.5086 51.4927C7.62951 48.6254 3.30806 44.4799 2.5762 34.289L2.2974 24.9272L2.47165 24.8927Z" fill="#D1EBFF"/>
<path d="M2.26012 24.9961L2.46922 24.8925C7.69678 21.9561 12.8198 16.9471 17.0715 10.5907L17.1412 10.5562L20.1035 12.7671L20.0338 12.8016C15.7472 19.158 10.6591 24.167 5.4315 27.1034L5.2224 27.207L2.26012 24.9961Z" fill="#D1EBFF"/>
<path d="M5.22603 27.2069L5.50484 36.5687C6.167 45.6196 8.57167 49.0396 12.5098 51.5268C7.63071 48.6596 3.30926 44.5141 2.57741 34.3232L2.2986 24.9614L5.22603 27.2069Z" fill="#72B5E8"/>
<path d="M21.0819 49.0399C27.5292 38.4345 30.7703 33.0799 31.5718 21.4727L31.7461 15.3582C27.5989 17.2236 23.626 17.8109 20.0712 17.0854C16.4816 21.8872 12.5087 25.8254 8.36148 28.7272L8.53573 34.6345C9.30244 45.3781 12.5784 47.0017 19.0257 50.2145C19.3742 50.3872 19.7227 50.5599 20.0712 50.7326C20.4197 50.1454 20.7334 49.5926 21.0819 49.0399Z" fill="#084C94"/>
<path d="M18.5029 49.7654C18.8514 49.9381 19.2 50.1108 19.5485 50.2836C19.897 49.6963 20.2455 49.1436 20.594 48.5908C27.0064 37.9854 30.2475 32.6309 31.0491 20.9891L31.1885 15.6C31.3627 15.5309 31.537 15.4618 31.7461 15.3582L31.5718 21.4727C30.8051 33.1145 27.5292 38.4345 21.0819 49.0399C20.7334 49.5926 20.3849 50.1799 20.0364 50.7326C19.6879 50.5599 19.3394 50.3872 18.9909 50.2145C16.3422 48.9017 14.2512 47.8654 12.6481 46.3454C14.2164 47.6236 16.1331 48.5908 18.5029 49.7654Z" fill="#1A1A1A"/>
<path d="M26.625 28.5201L21.5368 39.5401L12.5454 30.1783L16.6926 26.4128L21.5368 34.4965L23.837 29.0728L26.625 28.5201Z" fill="#1A1A1A"/>
<path d="M34.4277 29.9366L28.1547 43.4439L17.1419 31.9402L22.2301 27.3457L28.1547 37.2602L30.9775 30.593L34.4277 29.9366Z" fill="#0BA19F"/>
<path d="M35.3359 30.5927L29.0977 44.1L18.085 32.6309L23.1732 28.0364L29.0977 37.9164L31.8857 31.2836L35.3359 30.5927Z" fill="#0FBAB8"/>
<path d="M17.144 31.9399L18.0849 32.6308L29.0977 44.0999L28.1567 43.4436L17.144 31.9399Z" fill="#0BA19F"/>
<path d="M34.4298 29.9363L35.3359 30.5926L31.8857 31.2836L30.9796 30.5926L34.4298 29.9363Z" fill="#3ECFCD"/>
<path d="M18.0837 32.6312L23.1719 28.0366L22.2309 27.3457L17.1428 31.9402L18.0837 32.6312Z" fill="#3ECFCD"/>
<path d="M31.8857 31.1107L35.3359 30.5925L31.8857 31.2834L30.9796 30.5925L31.8857 31.1107Z" fill="white"/>
<path d="M18.0837 32.6309L23.1719 28.0364L18.0489 32.4582L17.1428 31.94L18.0837 32.6309Z" fill="white"/>
<path d="M5.22525 26.931C10.4528 23.9947 15.5758 18.9856 19.8276 12.6292L19.8973 12.5947C24.1839 14.0801 29.272 13.2165 34.4996 10.1765L34.6738 10.3838C29.4463 13.4238 24.3581 14.2529 20.0715 12.802L20.0018 12.8365C15.7152 19.1929 10.6271 24.2019 5.3995 27.1383L5.1904 27.2419L5.46921 36.6037C5.99196 44.1001 7.76933 47.7274 10.5922 50.1801C7.62993 47.7274 5.81771 44.1001 5.2601 36.3965L4.9813 27.0347L5.22525 26.931Z" fill="white"/>
<path d="M42.8257 27.8636C42.9303 27.8636 43 27.7945 43 27.6909C43 27.4491 43 27.2073 43 27C43 26.8964 42.9303 26.8273 42.8257 26.8273C42.7212 26.8273 42.6515 26.8964 42.6515 27C42.6515 27.2073 42.6515 27.4491 42.6515 27.6909C42.6515 27.7945 42.7212 27.8636 42.8257 27.8636ZM42.756 26.1364C42.8606 26.1364 42.9303 26.0327 42.9303 25.9291C42.8954 25.6873 42.8606 25.4454 42.8257 25.2382C42.8257 25.1345 42.7212 25.0654 42.6166 25.1C42.5121 25.1 42.4424 25.2036 42.4772 25.3073C42.5121 25.5145 42.5469 25.7564 42.5469 25.9982C42.5818 26.0673 42.6515 26.1364 42.756 26.1364ZM42.4424 24.4436H42.4772C42.5818 24.4091 42.6515 24.3054 42.6166 24.2364C42.5469 23.9945 42.5121 23.7873 42.4424 23.5454C42.4075 23.4418 42.303 23.4073 42.2333 23.4418C42.1287 23.4764 42.0939 23.58 42.1287 23.6491C42.1984 23.8564 42.2333 24.0982 42.303 24.3054C42.303 24.3745 42.3727 24.4436 42.4424 24.4436ZM41.9196 22.7854C41.9545 22.7854 41.9545 22.7854 41.9893 22.7854C42.0939 22.7509 42.1287 22.6473 42.0939 22.5436C41.9893 22.3364 41.9196 22.0945 41.8151 21.8873C41.7802 21.8182 41.6757 21.7836 41.5711 21.8182C41.5014 21.8527 41.4317 21.9564 41.5014 22.06C41.606 22.2673 41.7105 22.4745 41.7802 22.6818C41.8151 22.7509 41.8848 22.7854 41.9196 22.7854ZM41.1181 21.2655C41.1529 21.2655 41.1878 21.2655 41.2226 21.2309C41.2923 21.1618 41.3272 21.0582 41.2575 20.9891C41.1529 20.7818 41.0135 20.6091 40.8741 20.4364C40.8044 20.3673 40.6999 20.3327 40.6302 20.4018C40.5605 20.4364 40.5256 20.5745 40.5953 20.6436C40.7347 20.8164 40.8741 20.9891 40.9787 21.1964C41.0135 21.2309 41.0832 21.2655 41.1181 21.2655ZM40.0377 19.9527C40.0726 19.9527 40.1423 19.9182 40.1771 19.8836C40.2468 19.8145 40.2468 19.7109 40.1771 19.6418C40.0029 19.4691 39.8286 19.3309 39.6195 19.1927C39.5498 19.1236 39.4453 19.1582 39.3756 19.2273C39.3059 19.2964 39.3407 19.4 39.4104 19.4691C39.5847 19.6073 39.7589 19.7455 39.9332 19.9182C39.9332 19.9182 39.968 19.9527 40.0377 19.9527ZM38.6089 18.9164C38.6786 18.9164 38.7483 18.8818 38.7483 18.8127C38.7831 18.7436 38.7483 18.64 38.6786 18.5709C38.4694 18.4673 38.2603 18.3636 38.0164 18.26C37.9118 18.2255 37.8421 18.26 37.7724 18.3636C37.7376 18.4673 37.7724 18.5364 37.877 18.6055C38.0861 18.6745 38.2952 18.7782 38.5043 18.8818C38.574 18.9164 38.574 18.9164 38.6089 18.9164ZM37.0057 18.3291C37.0754 18.3291 37.1451 18.26 37.18 18.1909C37.2148 18.0873 37.1451 18.0182 37.0406 17.9836C36.7966 17.9145 36.5875 17.88 36.3436 17.8455C36.239 17.8455 36.1693 17.9145 36.1345 17.9836C36.1345 18.0873 36.1693 18.1564 36.2739 18.1909C36.483 18.2255 36.7269 18.26 36.936 18.3291C36.9709 18.2945 36.9709 18.3291 37.0057 18.3291Z" fill="#EE7620"/>
<path d="M22.9974 53.5654C23.2413 53.5654 23.4853 53.5309 23.7292 53.4964C23.8338 53.4964 23.9035 53.3927 23.8686 53.2891C23.8686 53.1855 23.7641 53.1164 23.6595 53.1509C23.4156 53.1854 23.2065 53.1854 22.9625 53.22C22.858 53.22 22.7883 53.2891 22.7883 53.3927C22.8231 53.4964 22.9277 53.5654 22.9974 53.5654ZM24.7399 53.3236H24.7747C24.9838 53.2891 25.2278 53.22 25.4717 53.1509C25.5763 53.1164 25.6111 53.0127 25.5763 52.9436C25.5414 52.84 25.4369 52.8055 25.3672 52.84C25.1581 52.9091 24.9141 52.9436 24.705 53.0127C24.6005 53.0473 24.5656 53.1164 24.5656 53.22C24.5656 53.2891 24.6702 53.3236 24.7399 53.3236ZM26.4127 52.84C26.4475 52.84 26.4475 52.84 26.4824 52.84C26.6915 52.7709 26.9006 52.6673 27.1446 52.5982C27.2491 52.5636 27.284 52.46 27.2491 52.3564C27.2143 52.2527 27.1097 52.2182 27.0051 52.2527C26.796 52.3564 26.5869 52.4255 26.3778 52.4945C26.2733 52.5291 26.2384 52.6327 26.2733 52.7018C26.2733 52.8054 26.343 52.84 26.4127 52.84ZM28.0158 52.1491C28.0507 52.1491 28.0855 52.1491 28.0855 52.1145C28.2946 52.0109 28.5037 51.9073 28.7128 51.8036C28.7825 51.7691 28.8174 51.6655 28.7825 51.5618C28.7477 51.4927 28.6431 51.4582 28.5386 51.4927C28.3295 51.5964 28.1204 51.7 27.9461 51.8036C27.8764 51.8382 27.8416 51.9418 27.8764 52.0455C27.8764 52.1145 27.9461 52.1491 28.0158 52.1491ZM29.5144 51.2855C29.5492 51.2855 29.5841 51.2855 29.6189 51.2509C29.828 51.1127 30.0023 51.0091 30.2114 50.8709C30.2811 50.8018 30.3159 50.6982 30.2462 50.6291C30.1765 50.56 30.072 50.5255 30.0023 50.5945C29.7932 50.7327 29.6189 50.8364 29.4098 50.9745C29.3401 51.0091 29.3053 51.1473 29.3401 51.2164C29.4098 51.2855 29.4447 51.2855 29.5144 51.2855ZM30.9432 50.3182C30.9781 50.3182 31.0129 50.3182 31.0478 50.2836C31.222 50.1455 31.4311 50.0073 31.6054 49.8691C31.6751 49.8 31.71 49.6964 31.6403 49.6273C31.5706 49.5582 31.466 49.5236 31.3963 49.5927C31.222 49.7309 31.0478 49.8691 30.8387 50.0073C30.769 50.0764 30.7341 50.18 30.8038 50.2491C30.8387 50.2836 30.9084 50.3182 30.9432 50.3182ZM32.3024 49.2473C32.3373 49.2473 32.3721 49.2473 32.407 49.2127C32.5812 49.0745 32.7555 48.9018 32.9297 48.7636C32.9994 48.6945 32.9994 48.5909 32.9297 48.5218C32.86 48.4527 32.7555 48.4527 32.6858 48.5218C32.5115 48.66 32.3373 48.8327 32.163 48.9709C32.0933 49.04 32.0933 49.1436 32.1282 49.2127C32.1979 49.2127 32.2676 49.2473 32.3024 49.2473ZM33.5919 48.0727C33.6267 48.0727 33.6964 48.0727 33.7313 48.0382C33.9055 47.8655 34.0449 47.7273 34.2192 47.5546C34.2889 47.4855 34.2889 47.3818 34.2192 47.3127C34.1495 47.2436 34.0449 47.2436 33.9752 47.3127C33.801 47.4855 33.6616 47.6582 33.4873 47.7964C33.4176 47.8655 33.4176 47.9691 33.4873 48.0382C33.4873 48.0382 33.557 48.0727 33.5919 48.0727ZM34.7768 46.8291C34.8116 46.8291 34.8813 46.7946 34.9162 46.76C35.0556 46.5873 35.2298 46.4146 35.3692 46.2418C35.4389 46.1727 35.4389 46.0691 35.3344 46C35.2647 45.9309 35.1601 45.9309 35.0904 46.0346C34.951 46.2073 34.7768 46.38 34.6374 46.5527C34.5677 46.6218 34.5677 46.7255 34.6374 46.7946C34.7071 46.7946 34.7419 46.8291 34.7768 46.8291ZM35.9268 45.5164C35.9617 45.5164 36.0314 45.4818 36.0663 45.4473C36.2057 45.2746 36.3451 45.1018 36.4845 44.8946C36.5542 44.8255 36.5193 44.7218 36.4496 44.6527C36.3799 44.5836 36.2754 44.6182 36.2057 44.6873C36.0663 44.86 35.9268 45.0327 35.7874 45.24C35.7177 45.3091 35.7526 45.4127 35.8223 45.4818C35.8571 45.4818 35.892 45.5164 35.9268 45.5164ZM36.9724 44.1346C37.0421 44.1346 37.0769 44.1 37.1118 44.0655C37.2512 43.8927 37.3906 43.6855 37.53 43.5127C37.5997 43.4436 37.5648 43.34 37.4951 43.2709C37.4254 43.2018 37.3209 43.2364 37.2512 43.3055C37.1118 43.4782 36.9724 43.6855 36.8678 43.8582C36.7981 43.9273 36.833 44.0309 36.9027 44.1C36.9027 44.1 36.9375 44.1346 36.9724 44.1346ZM37.9482 42.6837C38.0179 42.6837 38.0527 42.6491 38.0876 42.6146C38.227 42.4073 38.3315 42.2346 38.4709 42.0273C38.5058 41.9582 38.5058 41.8546 38.4012 41.7855C38.3315 41.7509 38.227 41.7509 38.1573 41.8546C38.0527 42.0618 37.9133 42.2346 37.7739 42.4418C37.7391 42.5109 37.7391 42.6146 37.8436 42.6837C37.8785 42.6837 37.9133 42.6837 37.9482 42.6837ZM38.8543 41.2327C38.924 41.2327 38.9588 41.1982 38.9937 41.1291C39.0982 40.9218 39.2376 40.7146 39.3422 40.5073C39.377 40.4382 39.3422 40.3346 39.2725 40.2655C39.2028 40.2309 39.0982 40.2655 39.0285 40.3346C38.924 40.5418 38.8194 40.7491 38.68 40.9218C38.6452 40.9909 38.6452 41.0946 38.7497 41.1637C38.7846 41.1982 38.8194 41.2327 38.8543 41.2327ZM39.6907 39.7127C39.7604 39.7127 39.8301 39.6782 39.8301 39.6091C39.9346 39.4018 40.0392 39.1946 40.1437 38.9873C40.1786 38.9182 40.1437 38.8146 40.074 38.7455C40.0043 38.7109 39.8998 38.7455 39.8301 38.8146C39.7255 39.0218 39.621 39.2291 39.5164 39.4364C39.4816 39.5055 39.5164 39.6091 39.5861 39.6782C39.621 39.6782 39.6558 39.7127 39.6907 39.7127ZM40.4225 38.1237C40.4922 38.1237 40.5619 38.0891 40.5968 38.02C40.7014 37.8127 40.7711 37.6055 40.8756 37.3637C40.9105 37.26 40.8756 37.1909 40.7711 37.1218C40.6665 37.0873 40.5968 37.1218 40.5271 37.2255C40.4225 37.4327 40.3528 37.64 40.2483 37.8473C40.2134 37.9509 40.2483 38.02 40.3528 38.0891C40.3877 38.1237 40.3877 38.1237 40.4225 38.1237Z" fill="#EE7620"/>
<path d="M28.9925 47.5888C34.7776 44.2724 39.4824 36.2234 39.4824 29.6597C39.4824 26.447 38.3672 24.0634 36.3807 22.8888C34.3594 21.7143 31.6759 21.9907 28.8182 23.6143C27.8772 24.167 26.9363 24.8579 26.0302 25.6525L26.2741 25.9288C27.1802 25.1343 28.0863 24.4779 29.0273 23.9252C31.7456 22.3707 34.2897 22.1288 36.2065 23.1998C38.0884 24.2707 39.1339 26.5852 39.1339 29.6597C39.1339 36.1197 34.4988 44.0306 28.8182 47.3124L28.9925 47.5888Z" fill="#EE7620"/>
<path d="M28.2274 47.8308C28.2274 48.1762 28.4714 48.3144 28.7502 48.1762C29.029 48.0035 29.2381 47.6235 29.2032 47.278C29.2032 46.9326 28.9593 46.7944 28.6805 46.9326C28.4017 47.0708 28.1926 47.4853 28.2274 47.8308Z" fill="#EB4680"/>
<path d="M25.6455 26.2056L27.179 25.8256C27.2835 25.791 27.3184 25.7219 27.3184 25.6183C27.2835 25.5147 27.2138 25.4801 27.1093 25.4801L26.2031 25.6874L26.5168 24.8237C26.5517 24.7201 26.5168 24.651 26.4122 24.6165C26.3077 24.5819 26.238 24.6165 26.2031 24.7201L25.6455 26.2056Z" fill="#EE7620"/>
</g>
</svg>
