<svg width="37" height="36" viewBox="0 0 37 36" fill="none" xmlns="http://www.w3.org/2000/svg">
<path d="M18.5 25.2375C18.175 25.2375 17.9062 25.1312 17.6937 24.9187C17.4812 24.7062 17.375 24.4375 17.375 24.1125C17.375 23.7875 17.4812 23.5188 17.6937 23.3063C17.9062 23.0938 18.175 22.9875 18.5 22.9875C18.825 22.9875 19.0938 23.0938 19.3063 23.3063C19.5188 23.5188 19.625 23.7875 19.625 24.1125C19.625 24.4375 19.5188 24.7062 19.3063 24.9187C19.0938 25.1312 18.825 25.2375 18.5 25.2375ZM18.5375 20.7C18.3125 20.7 18.125 20.625 17.975 20.475C17.825 20.325 17.7625 20.15 17.7875 19.95C17.8375 19.3 17.975 18.7688 18.2 18.3563C18.425 17.9438 18.8125 17.5375 19.3625 17.1375C20.0375 16.6375 20.5 16.225 20.75 15.9C21 15.575 21.125 15.0625 21.125 14.3625C21.125 13.6875 20.8938 13.1312 20.4313 12.6937C19.9688 12.2562 19.325 12.0375 18.5 12.0375C17.875 12.0375 17.3625 12.1812 16.9625 12.4688C16.5625 12.7563 16.25 13.0875 16.025 13.4625C15.925 13.6375 15.7875 13.7625 15.6125 13.8375C15.4375 13.9125 15.2625 13.925 15.0875 13.875C14.8625 13.775 14.7125 13.625 14.6375 13.425C14.5625 13.225 14.575 13.025 14.675 12.825C15.075 12.125 15.5938 11.5688 16.2313 11.1562C16.8688 10.7437 17.625 10.5375 18.5 10.5375C19.675 10.5375 20.6562 10.8813 21.4437 11.5688C22.2312 12.2563 22.625 13.2 22.625 14.4C22.625 15.15 22.475 15.775 22.175 16.275C21.875 16.775 21.35 17.3125 20.6 17.8875C20.125 18.2875 19.8 18.625 19.625 18.9C19.45 19.175 19.3375 19.5375 19.2875 19.9875C19.2625 20.1875 19.1813 20.3563 19.0438 20.4938C18.9063 20.6313 18.7375 20.7 18.5375 20.7ZM10.925 33.75C10.325 33.75 9.8125 33.5375 9.3875 33.1125C8.9625 32.6875 8.75 32.175 8.75 31.575V4.425C8.75 3.825 8.9625 3.3125 9.3875 2.8875C9.8125 2.4625 10.325 2.25 10.925 2.25H26.075C26.675 2.25 27.1875 2.4625 27.6125 2.8875C28.0375 3.3125 28.25 3.825 28.25 4.425V31.575C28.25 32.175 28.0375 32.6875 27.6125 33.1125C27.1875 33.5375 26.675 33.75 26.075 33.75H10.925ZM10.4375 28.7625H26.5625V7.2375H10.4375V28.7625ZM10.4375 30.45V31.575C10.4375 31.725 10.4813 31.8438 10.5688 31.9313C10.6563 32.0188 10.775 32.0625 10.925 32.0625H26.075C26.225 32.0625 26.3438 32.0188 26.4313 31.9313C26.5188 31.8438 26.5625 31.725 26.5625 31.575V30.45H10.4375ZM10.4375 5.55H26.5625V4.425C26.5625 4.275 26.5188 4.15625 26.4313 4.06875C26.3438 3.98125 26.225 3.9375 26.075 3.9375H10.925C10.775 3.9375 10.6563 3.98125 10.5688 4.06875C10.4813 4.15625 10.4375 4.275 10.4375 4.425V5.55Z" fill="white"/>
</svg>
