<svg width="44" height="64" viewBox="0 0 44 64" fill="none" xmlns="http://www.w3.org/2000/svg">
<g style="mix-blend-mode:luminosity">
<path d="M33.1591 20.9512L36.4561 22.8886L33.1591 24.792L29.8281 22.8886L33.1591 20.9512Z" fill="#D1EBFF"/>
<path d="M36.4571 44.607L33.1602 46.5104V24.7911L36.4571 22.8877V44.607Z" fill="#72B5E8"/>
<path d="M33.1591 46.5104L29.8281 44.607V22.8877L33.1591 24.7911V46.5104Z" fill="#A8CFF0"/>
<path d="M27.6825 27.9866L31.0135 29.924L27.6825 31.8274L24.3516 29.924L27.6825 27.9866Z" fill="#D1EBFF"/>
<path d="M31.0165 47.5989L27.6855 49.5363V31.8277L31.0165 29.9243V47.5989Z" fill="#72B5E8"/>
<path d="M27.6825 49.5363L24.3516 47.5989V29.9243L27.6825 31.8277V49.5363Z" fill="#A8CFF0"/>
<path d="M22.3095 36.0764L25.6405 37.9798L22.3095 39.9172L18.9785 37.9798L22.3095 36.0764Z" fill="#D1EBFF"/>
<path d="M25.6435 50.6925L22.3125 52.596V39.9179L25.6435 37.9805V50.6925Z" fill="#72B5E8"/>
<path d="M22.3095 52.596L18.9785 50.6925V37.9805L22.3095 39.9179V52.596Z" fill="#A8CFF0"/>
<path d="M16.8446 44.6431L20.1416 46.5805L16.8446 48.4839L13.5137 46.5805L16.8446 44.6431Z" fill="#D1EBFF"/>
<path d="M25.3711 53.7868L25.2012 53.4809L38.661 45.8673V18.7437H39.0009V46.0712L25.3711 53.7868Z" fill="#D1EBFF"/>
<path d="M20.1786 53.7516L16.8477 55.689V48.4832L20.1786 46.5798V53.7516Z" fill="#72B5E8"/>
<path d="M16.8446 55.689L13.5137 53.7516V46.5798L16.8446 48.4832V55.689Z" fill="#A8CFF0"/>
<path d="M18.132 32.27L22.9586 35.0911V32.134L33.6313 18.8102L36.1125 20.4416L36.5544 20.5096L35.0588 7.89952L34.583 7.83154L25.4398 14.0856L28.5668 15.8871L17.9281 29.2109L18.166 29.3469L17.9281 29.2109V32.134L13.6114 37.5724L13.8494 37.7423L13.6114 37.5724V40.4954L9.26079 47.2934L9.5327 47.4293L9.26079 47.2934L8.00318 53.7174L5.08008 55.043L5.25003 55.2469L11.6061 58.9517L14.3252 57.4222V50.2504L18.6419 43.4525V40.5294L22.9925 35.0911L18.132 32.27Z" fill="#0BA19F"/>
<path d="M11.8811 39.679L18.2032 43.3838L13.8865 50.1817L7.56445 46.4769L11.8811 39.679Z" fill="#3ECFCD"/>
<path d="M13.8885 57.3544L7.56641 53.6496V46.4778L13.8885 50.1826V57.3544Z" fill="#0FBAB8"/>
<path d="M16.2276 31.3179L22.5497 35.0227L18.233 40.461L11.877 36.7562L16.2276 31.3179Z" fill="#3ECFCD"/>
<path d="M18.2369 43.4183L11.8809 39.7134V36.7563L18.2369 40.4612V43.4183Z" fill="#0FBAB8"/>
<path d="M27.177 14.5615L33.4991 18.2664L22.5545 32.0661L16.2324 28.3613L27.177 14.5615Z" fill="#3ECFCD"/>
<path d="M22.5486 35.0235L16.2266 31.3187V28.3616L22.5486 32.0664V35.0235Z" fill="#0FBAB8"/>
<path d="M13.8834 57.3538L7.56131 53.6489L5.08008 55.0425L11.4021 58.7474L13.8834 57.3538Z" fill="#3ECFCD"/>
<path d="M32.8533 18.5722L36.1163 20.4416L34.6208 7.83154L23.7441 13.2699L27.0071 15.1733L32.8533 18.5722Z" fill="#3ECFCD"/>
<path d="M12.8332 27.3754C12.7992 27.3754 12.7652 27.3754 12.7312 27.3414C12.6632 27.2734 12.6292 27.1714 12.6972 27.1035L13.1051 26.5596C13.1731 26.4916 13.275 26.4577 13.343 26.5256C13.411 26.5936 13.445 26.6956 13.377 26.7636L12.9691 27.3074C12.9351 27.3414 12.8672 27.3754 12.8332 27.3754ZM13.8868 26.0158C13.8529 26.0158 13.8189 26.0158 13.7849 25.9818C13.7169 25.9138 13.6829 25.8119 13.7509 25.7439L14.1588 25.2C14.2267 25.1321 14.3287 25.0981 14.3967 25.1661C14.4647 25.234 14.4987 25.336 14.4307 25.404L14.0228 25.9478C13.9888 26.0158 13.9208 26.0158 13.8868 26.0158ZM14.9405 24.6902C14.9065 24.6902 14.8725 24.6902 14.8385 24.6562C14.7706 24.5882 14.7366 24.4863 14.8046 24.4183L15.2124 23.8745C15.2804 23.8065 15.3824 23.7725 15.4504 23.8405C15.5183 23.9084 15.5523 24.0104 15.4843 24.0784L15.0765 24.6222C15.0425 24.6902 14.9745 24.6902 14.9405 24.6902ZM15.9942 23.3646C15.9602 23.3646 15.9262 23.3646 15.8922 23.3306C15.8242 23.2626 15.7903 23.1607 15.8582 23.0927L16.2661 22.5489C16.3341 22.4809 16.4361 22.4469 16.504 22.5149C16.572 22.5829 16.606 22.6848 16.538 22.7528L16.1301 23.2966C16.0962 23.3306 16.0282 23.3646 15.9942 23.3646ZM17.0479 22.039C17.0139 22.039 16.9799 22.039 16.9459 22.005C16.8779 21.9371 16.8439 21.8351 16.9119 21.7671L17.3198 21.2233C17.3878 21.1553 17.4897 21.1213 17.5577 21.1893C17.6257 21.2573 17.6597 21.3592 17.5917 21.4272L17.1838 21.971C17.1498 22.005 17.0819 22.039 17.0479 22.039ZM18.1015 20.7134C18.0676 20.7134 18.0336 20.7134 17.9996 20.6794C17.9316 20.6115 17.8976 20.5095 17.9656 20.4415L18.3735 19.8977C18.4414 19.8297 18.5434 19.7957 18.6114 19.8637C18.6794 19.9317 18.7134 20.0336 18.6454 20.1016L18.2375 20.6455C18.2035 20.6794 18.1695 20.7134 18.1015 20.7134ZM19.1552 19.3878C19.1212 19.3878 19.0872 19.3878 19.0532 19.3539C18.9853 19.2859 18.9513 19.1839 19.0193 19.1159L19.4271 18.5721C19.4951 18.5041 19.5971 18.4701 19.6651 18.5381C19.733 18.6061 19.767 18.708 19.699 18.776L19.2912 19.3199C19.2572 19.3539 19.2232 19.3878 19.1552 19.3878ZM20.2089 18.0283C20.1749 18.0283 20.1409 18.0283 20.1069 17.9943C20.0389 17.9603 20.0389 17.8243 20.0729 17.7563L20.4808 17.2125C20.5488 17.1445 20.6508 17.1105 20.7187 17.1785C20.7867 17.2465 20.8207 17.3485 20.7527 17.4164L20.3448 17.9603C20.3109 18.0283 20.2769 18.0283 20.2089 18.0283ZM21.2626 16.7027C21.2286 16.7027 21.1946 16.7027 21.1606 16.6687C21.0926 16.6007 21.0586 16.4987 21.1266 16.4308L21.5345 15.9209C21.5685 15.8529 21.6704 15.8189 21.7724 15.8529L21.9424 15.9549L21.8404 16.1248L21.3985 16.6347C21.3645 16.7027 21.3305 16.7027 21.2626 16.7027ZM20.7867 15.683C20.7527 15.683 20.7187 15.683 20.7187 15.649L20.1409 15.3091C20.0729 15.2751 20.0389 15.1731 20.0729 15.0712C20.1069 15.0032 20.2089 14.9692 20.3109 15.0032L20.8887 15.3431C20.9567 15.3771 20.9906 15.479 20.9567 15.581C20.9227 15.649 20.8547 15.683 20.7867 15.683ZM19.3252 14.8332C19.2912 14.8332 19.2572 14.8332 19.2572 14.7993L18.6794 14.4594C18.6114 14.4254 18.5774 14.3234 18.6114 14.2214C18.6454 14.1535 18.7473 14.1195 18.8493 14.1535L19.4271 14.4934C19.4951 14.5273 19.5291 14.6293 19.4951 14.7313C19.4611 14.7993 19.3931 14.8332 19.3252 14.8332ZM17.8636 13.9835C17.8296 13.9835 17.7956 13.9835 17.7956 13.9495L17.2178 13.6096C17.1498 13.5756 17.1158 13.4737 17.1498 13.3717C17.1838 13.3037 17.2858 13.2697 17.3878 13.3037L17.9656 13.6436C18.0336 13.6776 18.0676 13.7796 18.0336 13.8815C17.9656 13.9495 17.9316 13.9835 17.8636 13.9835ZM16.776 13.1338C16.708 13.1338 16.64 13.0998 16.64 13.0318C16.606 12.9638 16.64 12.8619 16.708 12.7939L17.3198 12.488C17.3878 12.454 17.4897 12.488 17.5577 12.556C17.5917 12.6239 17.5577 12.7259 17.4897 12.7939L16.8779 13.0998C16.8439 13.1338 16.8099 13.1338 16.776 13.1338ZM18.3055 12.386C18.2375 12.386 18.1695 12.352 18.1695 12.284C18.1355 12.2161 18.1695 12.1141 18.2375 12.0461L18.8493 11.7402C18.9173 11.7062 19.0193 11.7402 19.0872 11.8082C19.1212 11.8762 19.0872 11.9781 19.0193 12.0461L18.4074 12.352C18.3735 12.352 18.3395 12.386 18.3055 12.386ZM19.835 11.6042C19.767 11.6042 19.699 11.5703 19.699 11.5023C19.6651 11.4343 19.699 11.3323 19.767 11.2643L20.3788 10.9584C20.4468 10.9245 20.5488 10.9584 20.6168 11.0264C20.6508 11.0944 20.6168 11.1964 20.5488 11.2643L19.937 11.5703C19.869 11.6042 19.835 11.6042 19.835 11.6042ZM21.3305 10.8565C21.2626 10.8565 21.1946 10.8225 21.1946 10.7545C21.1606 10.6865 21.1946 10.5846 21.2626 10.5166L21.8744 10.2107C21.9424 10.1767 22.0443 10.2107 22.1123 10.2787C22.1463 10.3466 22.1123 10.4486 22.0443 10.5166L21.4325 10.8225C21.3985 10.8565 21.3645 10.8565 21.3305 10.8565ZM22.8601 10.0747C22.7921 10.0747 22.7241 10.0407 22.7241 9.97275C22.6901 9.90477 22.7241 9.8028 22.7921 9.73482L23.4039 9.42892C23.4719 9.39493 23.5738 9.42892 23.6418 9.4969C23.6758 9.56487 23.6418 9.66684 23.5739 9.73482L22.962 10.0407C22.928 10.0747 22.8941 10.0747 22.8601 10.0747ZM24.3896 9.32695C24.3216 9.32695 24.2536 9.29296 24.2536 9.22498C24.2197 9.157 24.2536 9.05503 24.3216 8.98705L24.9334 8.68115C25.0014 8.64716 25.1034 8.68115 25.1714 8.74913C25.2053 8.81711 25.1714 8.91907 25.1034 8.98705L24.4576 9.32695C24.4236 9.32695 24.4236 9.32695 24.3896 9.32695ZM25.9191 8.57918C25.8511 8.57918 25.7832 8.54519 25.7832 8.47721C25.7492 8.40923 25.7832 8.30726 25.8511 8.23928L26.463 7.93338C26.5309 7.89939 26.6329 7.93338 26.7009 8.00136C26.7349 8.06934 26.7009 8.17131 26.6329 8.23928L26.0211 8.54519C25.9531 8.57918 25.9191 8.57918 25.9191 8.57918ZM27.4147 7.79742C27.3467 7.79742 27.2787 7.76343 27.2787 7.69545C27.2447 7.62747 27.2787 7.5255 27.3467 7.45753L27.9585 7.15162C28.0265 7.11763 28.1284 7.15162 28.1964 7.2196C28.2304 7.28758 28.1964 7.38955 28.1284 7.45753L27.5166 7.79742C27.4826 7.79742 27.4487 7.79742 27.4147 7.79742ZM28.9442 7.04965C28.8762 7.04965 28.8082 7.01566 28.8082 6.94768C28.7742 6.8797 28.8082 6.77774 28.8762 6.70976L29.3861 6.47183C29.454 6.43784 29.556 6.47183 29.624 6.53981C29.658 6.60779 29.624 6.70976 29.556 6.77774L29.0462 7.01566C29.0122 7.04965 28.9782 7.04965 28.9442 7.04965Z" fill="#EB4680"/>
<path d="M6.03325 48.0409H5.69336V45.9335L10.044 39.1356V36.1105L14.3607 30.6722V27.7151L23.9797 15.5809L19.799 13.1676L35.944 5.07812L36.114 5.38403L20.5128 13.1676L24.4895 15.4789L14.7006 27.8511V30.8082L10.3839 36.2125V39.2376L6.03325 46.0355V48.0409Z" fill="#EB4680"/>
<path d="M35.2935 6.67541C35.2595 6.67541 35.2255 6.67541 35.1916 6.64142C35.1236 6.57344 35.0896 6.47148 35.1576 6.4035L36.0073 5.28184L34.3418 5.38381C34.2399 5.38381 34.1719 5.31583 34.1719 5.21386C34.1719 5.1119 34.2399 5.04392 34.3418 5.04392L36.3472 4.90796C36.4152 4.90796 36.4832 4.94195 36.5172 5.00993C36.5511 5.07791 36.5511 5.14589 36.5172 5.17987L35.4295 6.60743C35.3955 6.64142 35.3275 6.67541 35.2935 6.67541Z" fill="#EB4680"/>
<path d="M6.30913 48.4828C6.30913 48.7887 6.10519 48.9247 5.83327 48.7547C5.56136 48.5848 5.35742 48.2449 5.35742 47.939C5.35742 47.6331 5.56136 47.4971 5.83327 47.6671C6.10519 47.837 6.30913 48.1769 6.30913 48.4828Z" fill="#EB4680"/>
</g>
</svg>
