<svg width="147" height="55" viewBox="0 0 147 55" fill="none" xmlns="http://www.w3.org/2000/svg">
<g clip-path="url(#clip0_1534_2204)">
<path d="M60.519 44.9167H52.868L46.7447 32.6416L45.2152 34.1768V44.9167H38.3281V13.475L45.2152 9.62505V25.7373L52.1021 19.5998H59.7536L51.3367 27.9847L60.519 44.9167ZM63.5618 44.9167V13.475L70.4492 9.62505V44.9167H63.5618ZM75.0381 44.9167V19.5982H81.9681V44.9167H75.0381ZM114.043 44.9167V31.4898C114.043 29.3515 113.793 28.0762 113.293 27.2468C112.794 26.4175 111.897 26.002 110.615 26.002C109.147 26.002 108.533 26.4191 107.969 27.2468C107.438 28.0457 107.172 29.4654 107.172 31.5091V44.9167H100.285V31.4898C100.285 29.3515 99.9036 28.0762 99.404 27.2468C98.9039 26.4175 98.1225 26.002 96.841 26.002C95.3725 26.002 94.7588 26.4191 94.195 27.2468C93.6633 28.0457 93.3975 29.4654 93.3975 31.5091V44.9167H86.5106V19.5982H93.3063V22.1376C94.8069 20.2543 95.8817 19.6126 98.0377 19.6126C100.975 19.6126 102.661 20.4147 103.723 22.6814C105.348 20.4147 108.368 19.6126 111.757 19.6126C114.269 19.6126 116.623 20.3473 118.217 21.8151C119.81 23.2829 120.94 25.5528 120.94 29.2232V44.9167H114.052H114.043ZM139.442 44.9167V42.5217C138.019 44.1194 136.037 44.9167 133.506 44.9167C130.851 44.9167 128.679 44.2301 126.991 42.857C125.335 41.4517 124.021 39.4882 124.021 36.9215C124.021 34.3998 125.475 32.4203 127.412 31.0792C129.334 29.706 131.615 29.0194 134.209 29.0194C136.459 29.0194 138.208 29.3082 139.46 29.8809V28.5398C139.46 27.4217 138.896 26.8811 138.207 26.3068C137.518 25.7004 136.567 25.3972 135.348 25.3972C132.753 25.3972 130.191 26.2587 127.66 27.9831L125.549 22.6669C128.487 20.6232 131.908 19.619 135.8 19.619C142.581 19.619 145.97 22.8273 146.191 28.8911V44.9328H139.442V44.9167ZM134.802 39.0743C136.49 39.0743 138.037 38.5 139.442 37.3499V35.1313C138.192 34.7463 136.831 34.557 135.364 34.557C132.552 34.557 131.145 35.3398 131.145 36.9039C131.145 38.3396 132.362 39.0583 134.802 39.0583V39.0743ZM76.0693 15.5252C76.7582 16.1941 77.5667 16.5294 78.504 16.5294C78.9568 16.5391 79.4064 16.4549 79.8254 16.2821C80.2438 16.1092 80.6224 15.8516 80.9368 15.5252C81.5968 14.8274 81.9264 14.0044 81.9264 13.0548C81.9264 12.0923 81.5968 11.2693 80.9368 10.6277C80.6238 10.3032 80.247 10.0467 79.8308 9.8742C79.4147 9.70173 78.9674 9.61689 78.5168 9.62505C77.5557 9.62505 76.7293 9.94588 76.0423 10.6293C75.3823 11.2982 75.0523 12.1083 75.0523 13.0564C75.0523 14.0044 75.3951 14.8274 76.084 15.5268L76.0693 15.5252Z" fill="#282E38"/>
<path d="M11.2554 44.9167C5.2908 44.9167 0.457031 40.9544 0.457031 36.0665V20.4162C0.457031 19.773 0.977565 19.25 1.61983 19.25H15.2562C21.2192 19.25 26.0546 23.2123 26.0546 28.1002V41.442L14.0326 32.4747H12.479L22.5598 44.9167H11.2554Z" fill="#25CF7A"/>
</g>
<defs>
<clipPath id="clip0_1534_2204">
<rect width="146.667" height="55" fill="white"/>
</clipPath>
</defs>
</svg>
