<svg width="320" height="120" viewBox="0 0 320 120" fill="none" xmlns="http://www.w3.org/2000/svg">
<g clip-path="url(#clip0_341_339)">
<path d="M132.044 98.0002H115.351L101.991 71.2182L98.6539 74.5677V98.0002H83.6276V29.4002L98.6539 21.0002V56.1542L113.68 42.7632H130.374L112.01 61.0577L132.044 98.0002ZM138.683 98.0002V29.4002L153.71 21.0002V98.0002H138.683V98.0002ZM163.722 98.0002V42.7597H178.842V98.0002H163.722ZM248.823 98.0002V68.7052C248.823 64.0397 248.278 61.2572 247.188 59.4477C246.098 57.6382 244.141 56.7317 241.345 56.7317C238.141 56.7317 236.802 57.6417 235.572 59.4477C234.412 61.1907 233.832 64.2882 233.832 68.7472V98.0002H218.806V68.7052C218.806 64.0397 217.974 61.2572 216.884 59.4477C215.793 57.6382 214.088 56.7317 211.292 56.7317C208.088 56.7317 206.749 57.6417 205.519 59.4477C204.359 61.1907 203.779 64.2882 203.779 68.7472V98.0002H188.753V42.7597H203.58V48.3002C206.854 44.1912 209.199 42.7912 213.903 42.7912C220.312 42.7912 223.991 44.5412 226.308 49.4867C229.852 44.5412 236.442 42.7912 243.837 42.7912C249.316 42.7912 254.453 44.3942 257.93 47.5967C261.407 50.7992 263.871 55.7517 263.871 63.7597V98.0002H248.844H248.823ZM304.239 98.0002V92.7747C301.136 96.2607 296.81 98.0002 291.289 98.0002C285.495 98.0002 280.756 96.5022 277.073 93.5062C273.46 90.4402 270.594 86.1562 270.594 80.5562C270.594 75.0542 273.767 70.7352 277.992 67.8092C282.185 64.8132 287.162 63.3152 292.823 63.3152C297.732 63.3152 301.548 63.9452 304.278 65.1947V62.2687C304.278 59.8292 303.048 58.6497 301.545 57.3967C300.042 56.0737 297.967 55.4122 295.307 55.4122C289.646 55.4122 284.055 57.2917 278.534 61.0542L273.928 49.4552C280.337 44.9962 287.801 42.8052 296.293 42.8052C311.088 42.8052 318.483 49.8052 318.965 63.0352V98.0352H304.239V98.0002ZM294.116 85.2532C297.799 85.2532 301.175 84.0002 304.239 81.4907V76.6502C301.513 75.8102 298.543 75.3972 295.342 75.3972C289.206 75.3972 286.138 77.1052 286.138 80.5177C286.138 83.6502 288.793 85.2182 294.116 85.2182V85.2532ZM165.972 33.8732C167.475 35.3327 169.239 36.0642 171.284 36.0642C172.272 36.0854 173.253 35.9016 174.167 35.5246C175.08 35.1475 175.906 34.5853 176.592 33.8732C178.032 32.3507 178.751 30.5552 178.751 28.4832C178.751 26.3832 178.032 24.5877 176.592 23.1877C175.909 22.4797 175.087 21.9202 174.179 21.5438C173.271 21.1675 172.295 20.9824 171.312 21.0002C169.215 21.0002 167.412 21.7002 165.913 23.1912C164.473 24.6507 163.753 26.4182 163.753 28.4867C163.753 30.5552 164.501 32.3507 166.004 33.8767L165.972 33.8732Z" fill="#282E38"/>
<path d="M24.56 98C11.5464 98 1 89.355 1 78.6905V44.5445C1 43.141 2.13571 42 3.53701 42H33.2892C46.2993 42 56.8492 50.645 56.8492 61.3095V90.419L30.6194 70.854H27.2298L49.2242 98H24.56Z" fill="#25CF7A"/>
</g>
<defs>
<clipPath id="clip0_341_339">
<rect width="318" height="77" fill="white" transform="translate(1 21)"/>
</clipPath>
</defs>
</svg>
