<svg width="100" height="100" viewBox="0 0 100 100" fill="none" xmlns="http://www.w3.org/2000/svg">
<path d="M23.8999 56.3L60.8 19.7C61.7 18.8 62.8999 18.3 64.1999 18.3L81.6999 17.9C84.4999 17.8 86.7999 20.1 86.7999 22.9V40.2C86.7999 41.5 86.3 42.8 85.3 43.8L47.6 80.7C45.6 82.6 42.3999 82.6 40.4999 80.6L23.8 63.4C21.9 61.4 21.8999 58.3 23.8999 56.3Z" stroke="#231F20" stroke-width="3" stroke-miterlimit="10"/>
<path d="M74.0002 33.9001C76.0989 33.9001 77.8002 32.1987 77.8002 30.1001C77.8002 28.0014 76.0989 26.3 74.0002 26.3C71.9015 26.3 70.2002 28.0014 70.2002 30.1001C70.2002 32.1987 71.9015 33.9001 74.0002 33.9001Z" fill="black"/>
</svg>
