<svg width="44" height="44" viewBox="0 0 44 44" fill="none" xmlns="http://www.w3.org/2000/svg">
<path d="M41.7096 19.2498C41.7096 17.2281 40.0647 15.5832 38.043 15.5832H25.5337L27.3757 9.5978C27.8079 8.193 27.5554 6.70938 26.6818 5.52688C25.8082 4.34438 24.4648 3.6665 22.995 3.6665H22.802C21.6727 3.6665 20.6414 4.37463 20.2349 5.42925L17.8864 11.537C16.9019 14.0959 15.3225 16.3843 13.293 18.2154V17.4165C13.293 15.8999 12.0596 14.6665 10.543 14.6665H5.04297C3.52634 14.6665 2.29297 15.8999 2.29297 17.4165V37.5832C2.29297 39.0998 3.52634 40.3332 5.04297 40.3332H10.543C12.0596 40.3332 13.293 39.0998 13.293 37.5832V36.4126L14.9567 37.3632C17.3071 38.7065 19.9805 39.4165 22.6879 39.4165H32.543C34.5647 39.4165 36.2096 37.7715 36.2096 35.7498C36.2096 34.994 35.9796 34.2914 35.5863 33.707C37.0145 33.2056 38.043 31.8471 38.043 30.2498C38.043 29.494 37.8129 28.7914 37.4196 28.207C38.8478 27.7056 39.8763 26.3471 39.8763 24.7498C39.8763 23.994 39.6462 23.2914 39.253 22.707C40.6811 22.2056 41.7096 20.8471 41.7096 19.2498ZM11.4596 37.5832C11.4596 38.0887 11.0485 38.4998 10.543 38.4998H5.04297C4.53743 38.4998 4.1263 38.0887 4.1263 37.5832V17.4165C4.1263 16.911 4.53743 16.4998 5.04297 16.4998H10.543C11.0485 16.4998 11.4596 16.911 11.4596 17.4165V37.5832ZM38.043 21.0832H31.6263C31.1203 21.0832 30.7096 21.4938 30.7096 21.9998C30.7096 22.5058 31.1203 22.9165 31.6263 22.9165H36.2096C37.2207 22.9165 38.043 23.7388 38.043 24.7498C38.043 25.7609 37.2207 26.5832 36.2096 26.5832H30.7096C30.2036 26.5832 29.793 26.9938 29.793 27.4998C29.793 28.0058 30.2036 28.4165 30.7096 28.4165H34.3763C35.3874 28.4165 36.2096 29.2388 36.2096 30.2498C36.2096 31.2609 35.3874 32.0832 34.3763 32.0832H29.793C29.287 32.0832 28.8763 32.4938 28.8763 32.9998C28.8763 33.5058 29.287 33.9165 29.793 33.9165H32.543C33.5541 33.9165 34.3763 34.7388 34.3763 35.7498C34.3763 36.7609 33.5541 37.5832 32.543 37.5832H22.6879C20.2991 37.5832 17.9405 36.9571 15.8661 35.7718L13.293 34.3015V20.607L13.6555 20.3168C16.3184 18.187 18.3731 15.3788 19.5978 12.1952L21.9463 6.08742C22.082 5.73634 22.4257 5.49984 22.802 5.49984H22.995C23.8768 5.49984 24.6835 5.90684 25.2073 6.61634C25.7312 7.32584 25.8829 8.21592 25.6235 9.0588L23.781 15.0446C23.6082 15.6065 23.71 16.2001 24.0588 16.6731C24.4089 17.1452 24.9466 17.4165 25.5341 17.4165H38.043C39.0541 17.4165 39.8763 18.2388 39.8763 19.2498C39.8763 20.2609 39.0541 21.0832 38.043 21.0832Z" fill="black"/>
</svg>
