<svg width="100" height="100" viewBox="0 0 100 100" fill="none" xmlns="http://www.w3.org/2000/svg">
<path d="M24 21.7647C25.7647 21.7647 27.2353 23.1765 27.2353 25C27.2353 26.7647 25.8235 28.2353 24 28.2353C22.2353 28.2353 20.7647 26.8235 20.7647 25C20.7647 23.2353 22.1765 21.7647 24 21.7647ZM24 20C21.2353 20 19 22.2353 19 25C19 27.7647 21.2353 30 24 30C26.7647 30 29 27.7647 29 25C28.9412 22.2353 26.7059 20 24 20Z" fill="black"/>
<path d="M59 20.9251C60.7647 20.9251 62.2353 22.4652 62.2353 24.4545C62.2353 26.3797 60.8235 27.984 59 27.984C57.2353 27.984 55.7647 26.4439 55.7647 24.4545C55.7647 22.5294 57.2353 20.9251 59 20.9251ZM59 19C56.2353 19 54 21.4385 54 24.4545C54 27.4706 56.2353 29.9091 59 29.9091C61.7647 29.9091 64 27.4706 64 24.4545C64 21.4385 61.7647 19 59 19Z" fill="black"/>
<path d="M42 79.7647C42.2353 79.7647 42.4706 79.8235 42.7059 79.8235C44.1176 80.1765 45.1765 81.4118 45.1765 82.9412C45.1765 84.7059 43.7647 86.1765 41.9412 86.1765C40.1177 86.1765 38.7059 84.7647 38.7059 82.9412C38.7059 82.7647 38.7059 82.647 38.7647 82.4706C39.0588 80.9412 40.4118 79.7647 42 79.7647ZM42 78C39.5294 78 37.4118 79.8235 37.0588 82.2353C37 82.5294 37 82.8235 37 83C37 85.7647 39.2353 88 42 88C44.7647 88 47 85.7647 47 83C47 80.6471 45.4118 78.6471 43.1177 78.1765C42.7647 78.0588 42.4118 78 42 78Z" fill="black"/>
<path d="M69.1309 51.9556C69.44 52.0555 68.7187 51.9556 69.1309 51.9556C77.3746 51.9556 85 47.463 85 39.4762C85 31.4893 78.302 25 70.0583 25C69.8522 25 69.6461 25 69.44 25" stroke="black" stroke-width="2" stroke-miterlimit="10" stroke-linecap="round" stroke-linejoin="round"/>
<path d="M30.1001 83.2001C30.0001 83.2001 29.8001 83.2001 29.7001 83.2001C21.6001 83.2001 15.1001 76.6001 15.1001 68.5001C15.1001 60.4001 21.8001 51.8 29.9001 51.8" stroke="black" stroke-width="2" stroke-miterlimit="10" stroke-linecap="round" stroke-linejoin="round"/>
<path d="M54 25L28.7012 24.7777" stroke="black" stroke-width="2" stroke-miterlimit="10" stroke-linecap="round" stroke-linejoin="round"/>
<path d="M69.9003 24.9H64.3003" stroke="black" stroke-width="2" stroke-miterlimit="10" stroke-linecap="round" stroke-linejoin="round"/>
<path d="M69.6003 51.8H29.8003" stroke="black" stroke-width="2" stroke-miterlimit="10" stroke-linecap="round" stroke-linejoin="round"/>
<path d="M66.4003 83.2001H47.3003" stroke="black" stroke-width="2" stroke-miterlimit="10" stroke-linecap="round" stroke-linejoin="round"/>
<path d="M75.3003 82.7001C75.3003 84.8819 73.5548 86.7001 71.3003 86.7001C69.1185 86.7001 67.3003 84.9546 67.3003 82.7001C67.3003 80.4455 69.0457 78.7001 71.3003 78.7001C73.4821 78.7001 75.3003 80.4455 75.3003 82.7001Z" stroke="black" stroke-width="2" stroke-miterlimit="10" stroke-linecap="round" stroke-linejoin="round"/>
<path d="M37 83L31.0801 83.1601L29.6001 83.2001" stroke="black" stroke-width="2" stroke-miterlimit="10" stroke-linecap="round" stroke-linejoin="round"/>
<path d="M71.8003 58.4V77.7" stroke="black" stroke-width="1.5" stroke-miterlimit="10" stroke-linecap="round" stroke-linejoin="round"/>
<path d="M71.8003 69.7001H84.8003L82.5003 64.4001V64.3L84.8003 60.2001H71.8003" stroke="black" stroke-width="1.5" stroke-miterlimit="10" stroke-linecap="round" stroke-linejoin="round"/>
</svg>
