<svg width="20" height="20" viewBox="0 0 20 20" fill="none" xmlns="http://www.w3.org/2000/svg">
<path fill-rule="evenodd" clip-rule="evenodd" d="M10.0239 0.53418C4.6702 0.53418 0.320312 4.85204 0.320312 10.214C0.320312 15.5756 4.6702 19.8935 10.0239 19.8935C15.3776 19.8935 19.6797 15.5756 19.6797 10.214C19.6797 4.85204 15.3776 0.53418 10.0239 0.53418V0.53418ZM10.7887 12.8236C10.0717 12.7761 9.7849 12.3967 9.21129 12.0645C8.92448 13.6776 8.54208 15.1959 7.44266 16.0026C7.10805 13.5828 7.92066 11.7798 8.30307 9.83425C7.63385 8.74293 8.39867 6.46542 9.7849 7.03473C11.5057 7.69909 8.30307 11.2103 10.4541 11.6372C12.7485 12.1117 13.6568 7.69909 12.2706 6.27556C10.2151 4.2352 6.34323 6.22803 6.82125 9.16989C6.96464 9.88179 7.68166 10.1189 7.15585 11.1155C5.81742 10.8308 5.43502 9.78672 5.4828 8.45825C5.5784 6.22803 7.49044 4.66216 9.45028 4.42505C11.8881 4.1404 14.1826 5.32654 14.4694 7.60403C14.8518 10.214 13.3699 13.0135 10.7887 12.8236L10.7887 12.8236Z" fill="black"/>
</svg>
