<svg width="147" height="55" viewBox="0 0 147 55" fill="none" xmlns="http://www.w3.org/2000/svg">
<g clip-path="url(#clip0_1534_2217)">
<path fill-rule="evenodd" clip-rule="evenodd" d="M9.16912 21.5674L20.2327 10.5115L31.2961 21.5674L20.2327 32.6233L9.16912 21.5674ZM4.42767 25.5159C2.24546 23.3352 2.24546 19.7995 4.42767 17.6189L16.2814 5.77324C18.4636 3.59251 22.0016 3.59251 24.1838 5.77324L36.0376 17.6189C38.2198 19.7995 38.2198 23.3352 36.0376 25.5159L24.1838 37.3615C22.0016 39.5422 18.4636 39.5422 16.2814 37.3615L4.42767 25.5159Z" fill="#B860A8"/>
<path d="M35.5233 37.6409C27.0777 46.0808 13.3847 46.0808 4.93911 37.6409L0.376953 42.1999C11.2229 53.0383 29.3114 53.1103 40.1574 42.2717L35.5233 37.6409Z" fill="#B860A8"/>
<path d="M58.2363 36.4771C60.8195 38.9476 64.444 40.5688 69.6488 40.5688C76.55 40.5688 80.3665 37.1333 80.3665 31.9608C80.3665 26.132 74.5067 24.8968 70.2657 24.009C67.4126 23.4686 65.8318 23.0053 65.8318 21.6543C65.8318 20.5349 66.6797 19.647 68.8775 19.647C71.1522 19.647 73.9672 20.5349 76.1255 22.3105L79.7505 17.5626C77.0124 15.2079 73.4269 13.9727 69.3019 13.9727C62.7087 13.9727 59.0462 17.717 59.0462 22.0403C59.0462 28.1393 64.9835 29.2201 69.2244 30.0693C71.962 30.6483 73.6198 31.2274 73.6198 32.6942C73.6198 33.9294 72.232 34.8945 69.9573 34.8945C66.4487 34.8945 63.5956 33.3504 61.7449 31.4976L58.2363 36.4771Z" fill="#153048"/>
<path d="M82.0801 30.7641C82.0801 36.8245 86.514 40.5688 92.2587 40.5688C95.1119 40.5688 98.196 39.7582 100.047 38.0983L97.5406 34.3926C96.4997 35.319 94.649 35.9752 92.9912 35.9752C90.2155 35.9752 88.5962 34.3926 88.2488 32.6556H101.512V31.3817C101.512 25.0511 97.5021 20.998 91.9883 20.998C86.167 20.998 82.0801 25.36 82.0801 30.7641ZM91.9883 25.5916C94.726 25.5916 95.6898 27.4831 95.8438 28.7954H88.1718C88.4032 27.4444 89.4056 25.5916 91.9883 25.5916Z" fill="#153048"/>
<path d="M104.439 40.1059H110.377V14.3589H104.439V40.1059Z" fill="#153048"/>
<path d="M115.953 40.1056H121.891V26.6338H125.669V21.4613H121.891V20.6893C121.891 19.261 122.7 18.489 123.934 18.489C124.475 18.489 125.014 18.6048 125.477 18.875L126.556 14.8219C125.631 14.3201 124.243 13.9727 122.623 13.9727C118.768 13.9727 115.953 16.559 115.953 20.5349V21.4613H112.869V26.6338H115.953V40.1056Z" fill="#153048"/>
<path d="M128.119 40.1056H134.056V28.2937C134.827 27.2128 136.871 26.5566 138.413 26.5566C139.03 26.5566 139.532 26.6338 139.878 26.7495V20.998C137.642 20.998 135.29 22.3104 134.056 23.8159V21.4612H128.119V40.1056Z" fill="#153048"/>
</g>
<defs>
<clipPath id="clip0_1534_2217">
<rect width="146.667" height="55" fill="white" transform="translate(0.333984)"/>
</clipPath>
</defs>
</svg>
