<svg width="320" height="120" viewBox="0 0 320 120" fill="none" xmlns="http://www.w3.org/2000/svg">
<path fill-rule="evenodd" clip-rule="evenodd" d="M19.2797 47.0563L43.4183 22.9343L67.5567 47.0563L43.4183 71.1782L19.2797 47.0563ZM8.93472 55.6712C4.17353 50.9132 4.17353 43.1991 8.93472 38.4413L34.7974 12.5963C39.5585 7.83835 47.2779 7.83835 52.0391 12.5963L77.9019 38.4413C82.6629 43.1991 82.6629 50.9132 77.9019 55.6712L52.0391 81.5162C47.2779 86.2741 39.5585 86.2741 34.7974 81.5162L8.93472 55.6712Z" fill="#B860A8"/>
<path d="M76.7826 82.1255C58.3558 100.54 28.4801 100.54 10.0534 82.1255L0.0996094 92.0724C23.7636 115.72 63.2293 115.877 86.8932 92.2292L76.7826 82.1255Z" fill="#B860A8"/>
<path d="M126.336 79.5864C131.972 84.9766 139.88 88.5138 151.236 88.5138C166.293 88.5138 174.62 81.0181 174.62 69.7327C174.62 57.0153 161.835 54.3203 152.582 52.3832C146.357 51.2042 142.908 50.1934 142.908 47.2457C142.908 44.8034 144.758 42.8662 149.553 42.8662C154.516 42.8662 160.658 44.8034 165.367 48.6774L173.276 38.3184C167.302 33.1808 159.479 30.4858 150.479 30.4858C136.094 30.4858 128.103 38.6552 128.103 48.0879C128.103 61.3948 141.057 63.753 150.31 65.6058C156.283 66.8691 159.9 68.1325 159.9 71.3328C159.9 74.0278 156.872 76.1334 151.909 76.1334C144.254 76.1334 138.029 72.7645 133.991 68.722L126.336 79.5864Z" fill="#153048"/>
<path d="M178.359 67.1217C178.359 80.3444 188.033 88.5138 200.567 88.5138C206.792 88.5138 213.521 86.7452 217.559 83.1236L212.091 75.0384C209.82 77.0598 205.782 78.4915 202.165 78.4915C196.109 78.4915 192.576 75.0384 191.818 71.2486H220.756V68.4693C220.756 54.6571 212.007 45.814 199.977 45.814C187.276 45.814 178.359 55.3309 178.359 67.1217ZM199.977 55.8362C205.95 55.8362 208.053 59.9631 208.389 62.8265H191.65C192.155 59.8788 194.342 55.8362 199.977 55.8362Z" fill="#153048"/>
<path d="M227.136 87.5033H240.091V31.3281H227.136V87.5033Z" fill="#153048"/>
<path d="M252.255 87.5032H265.211V58.1101H273.453V46.8246H265.211V45.1402C265.211 42.024 266.976 40.3396 269.668 40.3396C270.847 40.3396 272.024 40.5923 273.033 41.1818L275.388 32.3387C273.37 31.2438 270.341 30.4858 266.808 30.4858C258.397 30.4858 252.255 36.1287 252.255 44.8034V46.8246H245.526V58.1101H252.255V87.5032Z" fill="#153048"/>
<path d="M278.807 87.5031H291.76V61.7317C293.443 59.3734 297.901 57.9417 301.266 57.9417C302.613 57.9417 303.707 58.1101 304.463 58.3627V45.814C299.584 45.814 294.453 48.6774 291.76 51.9621V46.8246H278.807V87.5031Z" fill="#153048"/>
</svg>
