<svg width="56" height="56" viewBox="0 0 56 56" fill="none" xmlns="http://www.w3.org/2000/svg">
<rect width="56" height="56" rx="8" fill="url(#paint0_linear_1683_5192)"/>
<path d="M28 32.25C29.1833 32.25 30.1875 31.8375 31.0125 31.0125C31.8375 30.1875 32.25 29.1833 32.25 28C32.25 26.8167 31.8375 25.8125 31.0125 24.9875C30.1875 24.1625 29.1833 23.75 28 23.75C26.8167 23.75 25.8125 24.1625 24.9875 24.9875C24.1625 25.8125 23.75 26.8167 23.75 28C23.75 29.1833 24.1625 30.1875 24.9875 31.0125C25.8125 31.8375 26.8167 32.25 28 32.25ZM28 37.5C26.7 37.5 25.4708 37.25 24.3125 36.75C23.1542 36.25 22.1458 35.5708 21.2875 34.7125C20.4292 33.8542 19.75 32.8458 19.25 31.6875C18.75 30.5292 18.5 29.3 18.5 28C18.5 26.6833 18.75 25.4458 19.25 24.2875C19.75 23.1292 20.4292 22.125 21.2875 21.275C22.1458 20.425 23.1542 19.75 24.3125 19.25C25.4708 18.75 26.7 18.5 28 18.5C29.3167 18.5 30.5542 18.75 31.7125 19.25C32.8708 19.75 33.875 20.425 34.725 21.275C35.575 22.125 36.25 23.1292 36.75 24.2875C37.25 25.4458 37.5 26.6833 37.5 28C37.5 29.3 37.25 30.5292 36.75 31.6875C36.25 32.8458 35.575 33.8542 34.725 34.7125C33.875 35.5708 32.8708 36.25 31.7125 36.75C30.5542 37.25 29.3167 37.5 28 37.5ZM28 36.375C30.3333 36.375 32.3125 35.5583 33.9375 33.925C35.5625 32.2917 36.375 30.3167 36.375 28C36.375 25.6667 35.5625 23.6875 33.9375 22.0625C32.3125 20.4375 30.3333 19.625 28 19.625C25.6833 19.625 23.7083 20.4375 22.075 22.0625C20.4417 23.6875 19.625 25.6667 19.625 28C19.625 30.3167 20.4417 32.2917 22.075 33.925C23.7083 35.5583 25.6833 36.375 28 36.375Z" fill="white"/>
<defs>
<linearGradient id="paint0_linear_1683_5192" x1="56" y1="56" x2="6" y2="-1.17081e-06" gradientUnits="userSpaceOnUse">
<stop stop-color="#3B82F6"/>
<stop offset="1" stop-color="#86B4FF"/>
</linearGradient>
</defs>
</svg>
