<svg width="90" height="18" viewBox="0 0 90 18" fill="none" xmlns="http://www.w3.org/2000/svg">
<path d="M8.23915 2.34164C8.47864 1.60459 9.52136 1.60459 9.76085 2.34164L10.841 5.66606C10.9481 5.99568 11.2553 6.21885 11.6019 6.21885H15.0974C15.8723 6.21885 16.1946 7.21054 15.5676 7.66606L12.7397 9.72066C12.4593 9.92438 12.342 10.2855 12.4491 10.6151L13.5292 13.9395C13.7687 14.6766 12.9251 15.2895 12.2981 14.8339L9.47023 12.7793C9.18984 12.5756 8.81016 12.5756 8.52977 12.7793L5.70185 14.8339C5.07488 15.2895 4.2313 14.6766 4.47078 13.9395L5.55095 10.6151C5.65805 10.2855 5.54072 9.92438 5.26033 9.72066L2.43241 7.66606C1.80544 7.21054 2.12766 6.21885 2.90264 6.21885H6.39814C6.74472 6.21885 7.05189 5.99568 7.15899 5.66606L8.23915 2.34164Z" fill="#FF3D2E"/>
<path d="M26.2392 2.34164C26.4786 1.60459 27.5214 1.60459 27.7608 2.34164L28.841 5.66606C28.9481 5.99568 29.2553 6.21885 29.6019 6.21885H33.0974C33.8723 6.21885 34.1946 7.21054 33.5676 7.66606L30.7397 9.72066C30.4593 9.92438 30.342 10.2855 30.4491 10.6151L31.5292 13.9395C31.7687 14.6766 30.9251 15.2895 30.2981 14.8339L27.4702 12.7793C27.1898 12.5756 26.8102 12.5756 26.5298 12.7793L23.7019 14.8339C23.0749 15.2895 22.2313 14.6766 22.4708 13.9395L23.5509 10.6151C23.658 10.2855 23.5407 9.92438 23.2603 9.72066L20.4324 7.66606C19.8054 7.21054 20.1277 6.21885 20.9026 6.21885H24.3981C24.7447 6.21885 25.0519 5.99568 25.159 5.66606L26.2392 2.34164Z" fill="#FF3D2E"/>
<path d="M44.2392 2.34164C44.4786 1.60459 45.5214 1.60459 45.7608 2.34164L46.841 5.66606C46.9481 5.99568 47.2553 6.21885 47.6019 6.21885H51.0974C51.8723 6.21885 52.1946 7.21054 51.5676 7.66606L48.7397 9.72066C48.4593 9.92438 48.342 10.2855 48.4491 10.6151L49.5292 13.9395C49.7687 14.6766 48.9251 15.2895 48.2981 14.8339L45.4702 12.7793C45.1898 12.5756 44.8102 12.5756 44.5298 12.7793L41.7019 14.8339C41.0749 15.2895 40.2313 14.6766 40.4708 13.9395L41.5509 10.6151C41.658 10.2855 41.5407 9.92438 41.2603 9.72066L38.4324 7.66606C37.8054 7.21054 38.1277 6.21885 38.9026 6.21885H42.3981C42.7447 6.21885 43.0519 5.99568 43.159 5.66606L44.2392 2.34164Z" fill="#FF3D2E"/>
<path d="M62.2392 2.34164C62.4786 1.60459 63.5214 1.60459 63.7608 2.34164L64.841 5.66606C64.9481 5.99568 65.2553 6.21885 65.6019 6.21885H69.0974C69.8723 6.21885 70.1946 7.21054 69.5676 7.66606L66.7397 9.72066C66.4593 9.92438 66.342 10.2855 66.4491 10.6151L67.5292 13.9395C67.7687 14.6766 66.9251 15.2895 66.2981 14.8339L63.4702 12.7793C63.1898 12.5756 62.8102 12.5756 62.5298 12.7793L59.7019 14.8339C59.0749 15.2895 58.2313 14.6766 58.4708 13.9395L59.5509 10.6151C59.658 10.2855 59.5407 9.92438 59.2603 9.72066L56.4324 7.66606C55.8054 7.21054 56.1277 6.21885 56.9026 6.21885H60.3981C60.7447 6.21885 61.0519 5.99568 61.159 5.66606L62.2392 2.34164Z" fill="#FF3D2E"/>
<path d="M80.2392 2.34164C80.4786 1.60459 81.5214 1.60459 81.7608 2.34164L82.841 5.66606C82.9481 5.99568 83.2553 6.21885 83.6019 6.21885H87.0974C87.8723 6.21885 88.1946 7.21054 87.5676 7.66606L84.7397 9.72066C84.4593 9.92438 84.342 10.2855 84.4491 10.6151L85.5292 13.9395C85.7687 14.6766 84.9251 15.2895 84.2981 14.8339L81.4702 12.7793C81.1898 12.5756 80.8102 12.5756 80.5298 12.7793L77.7019 14.8339C77.0749 15.2895 76.2313 14.6766 76.4708 13.9395L77.5509 10.6151C77.658 10.2855 77.5407 9.92438 77.2603 9.72066L74.4324 7.66606C73.8054 7.21054 74.1277 6.21885 74.9026 6.21885H78.3981C78.7447 6.21885 79.0519 5.99568 79.159 5.66606L80.2392 2.34164Z" fill="#FF3D2E"/>
</svg>
