<svg width="623" height="450" viewBox="0 0 623 450" fill="none" xmlns="http://www.w3.org/2000/svg">
<g clip-path="url(#clip0_1346_2525)">
<path d="M326.126 43.3236L250.916 86.157L250.719 451.286H326.028L326.126 43.3236Z" fill="#CCCCCC"/>
<path d="M176.894 43.3236L251.424 86.157L252.301 451.014H177.674L176.894 43.3236Z" fill="#D9D9D9"/>
<path d="M251.51 0.000148773L176.894 43.0797L251.51 86.1593L326.126 43.0797L251.51 0.000148773Z" fill="#E6E6E6"/>
<path d="M293.977 42.1935L255.874 20.1952C253.785 18.9891 250.398 18.9891 248.309 20.1952L210.207 42.1935C208.118 43.3996 208.118 45.3551 210.207 46.5612L248.309 68.5595C250.398 69.7656 253.785 69.7656 255.874 68.5595L293.977 46.5612C296.066 45.3551 296.066 43.3996 293.977 42.1935Z" fill="#C7C7C7"/>
<path d="M293.977 41.1392L255.874 19.1409C253.785 17.9348 250.398 17.9348 248.309 19.1409L210.207 41.1392C208.118 42.3453 208.118 44.3008 210.207 45.5069L248.309 67.5052C250.398 68.7113 253.785 68.7113 255.874 67.5052L293.977 45.5069C296.066 44.3008 296.066 42.3453 293.977 41.1392Z" fill="#EBEBEB"/>
<path d="M252.73 31.22L266.414 38.034C268.114 38.8602 268.426 39.1447 268.695 40.126L269.897 44.1292C270.075 44.8011 270.164 45.0077 269.628 45.3175L253.911 54.3915C252.926 54.9601 251.986 55.09 250.645 54.4185L234.95 46.3918C233.966 45.875 233.653 45.5391 233.788 44.8929L234.687 40.9146C234.867 40.1903 235.181 39.7519 235.808 39.3898L249.778 31.3241C250.584 30.8592 251.613 30.6779 252.73 31.22Z" fill="white"/>
<path fill-rule="evenodd" clip-rule="evenodd" d="M266.414 38.034L252.73 31.22C251.613 30.6779 250.584 30.8592 249.778 31.3241L235.808 39.3898C235.181 39.7519 234.867 40.1903 234.687 40.9146L233.788 44.8929C233.653 45.5391 233.966 45.875 234.95 46.3918L250.645 54.4185C251.985 55.0895 252.926 54.9601 253.911 54.3915L269.628 45.3175C270.137 45.0236 270.082 44.8228 269.925 44.2303C269.915 44.1964 269.906 44.1626 269.896 44.1287L268.695 40.126C268.426 39.1447 268.114 38.8602 266.414 38.034ZM253.811 35.8889C252.521 35.2382 252.229 35.0906 252.101 34.3722L251.744 32.5634C251.746 32.3573 252.059 32.2793 252.55 32.5115L265.696 39.0677C266.815 39.6097 266.992 40.126 267.081 40.5392L267.66 42.6311C267.704 42.7091 267.66 42.9928 267.391 42.8377L253.979 35.9731L253.811 35.8889ZM236.563 44.2205L249.905 36.5173C250.488 36.1809 250.935 36.1291 251.517 36.4123L266.898 44.3105C267.435 44.5693 267.345 44.8787 266.762 45.2146L253.509 52.8664C252.927 53.2028 252.344 53.4355 251.495 52.9967L236.784 45.434C235.935 44.9952 235.846 44.6344 236.563 44.2205ZM262.916 44.8552C262.601 45.1393 262.11 45.3205 261.661 45.1145L260.858 44.8042L251.006 50.4916C250.112 50.3365 249.397 50.1304 248.949 49.872C248.234 49.4589 248.279 49.2262 248.414 48.5295L250.927 42.0181L244.256 45.8697L245.328 46.8514C245.328 46.8514 244.522 47.3168 243.404 46.671L240.141 44.9939C240.231 44.8383 240.768 44.6318 241.17 44.7608L242.198 45.0968L251.019 40.0042L249.992 39.3065C250.305 39.022 251.111 38.815 251.782 39.1505L255.313 40.9322L252.889 47.5974L259.068 44.0299L258.039 43.2817C258.443 42.9449 259.16 42.9445 259.65 43.1771L262.916 44.8552Z" fill="black"/>
</g>
<g clip-path="url(#clip1_1346_2525)">
<path d="M206.013 222.87L102.186 282.001L101.914 452.676H205.877L206.013 222.87Z" fill="#CCCCCC"/>
<path d="M0 222.87L102.888 282.001L104.098 452.676H1.07595L0 222.87Z" fill="#D9D9D9"/>
<path d="M103.006 163.063L0 222.534L103.006 282.005L206.012 222.534L103.006 163.063Z" fill="#E6E6E6"/>
<path d="M163.07 222.142L107.592 190.112C105.503 188.906 102.116 188.906 100.027 190.112L44.5487 222.142C42.4597 223.348 42.4597 225.304 44.5487 226.51L100.027 258.54C102.116 259.746 105.503 259.746 107.592 258.54L163.07 226.51C165.159 225.304 165.159 223.348 163.07 222.142Z" fill="#C7C7C7"/>
<path d="M163.07 220.686L107.592 188.656C105.503 187.45 102.116 187.45 100.027 188.656L44.5487 220.686C42.4597 221.893 42.4597 223.848 44.5487 225.054L100.027 257.084C102.116 258.291 105.503 258.291 107.592 257.084L163.07 225.054C165.159 223.848 165.159 221.893 163.07 220.686Z" fill="#EBEBEB"/>
<path d="M98.1704 226.783H94.9883L92.4415 221.65L91.8054 222.292V226.783H88.941V213.635L91.8054 212.025V218.763L94.6697 216.196H97.852L94.3514 219.703L98.1704 226.783ZM99.4359 226.783V213.635L102.3 212.025V226.783H99.4359ZM104.209 226.783V216.196H107.091V226.783H104.209ZM120.431 226.783V221.168C120.431 220.274 120.327 219.741 120.12 219.394C119.912 219.047 119.539 218.874 119.006 218.874C118.395 218.874 118.14 219.048 117.905 219.394C117.684 219.728 117.574 220.322 117.574 221.177V226.783H114.709V221.168C114.709 220.274 114.551 219.741 114.343 219.394C114.135 219.047 113.81 218.874 113.277 218.874C112.666 218.874 112.411 219.048 112.177 219.394C111.955 219.728 111.845 220.322 111.845 221.177V226.783H108.981V216.196H111.807V217.258C112.431 216.47 112.878 216.202 113.775 216.202C114.996 216.202 115.698 216.537 116.139 217.485C116.815 216.537 118.071 216.202 119.481 216.202C120.525 216.202 121.505 216.509 122.167 217.123C122.83 217.736 123.3 218.686 123.3 220.221V226.783H120.435H120.431ZM130.995 226.783V225.782C130.404 226.45 129.579 226.783 128.526 226.783C127.422 226.783 126.519 226.496 125.817 225.922C125.128 225.334 124.581 224.513 124.581 223.44C124.581 222.385 125.186 221.558 125.992 220.997C126.791 220.423 127.74 220.135 128.819 220.135C129.755 220.135 130.482 220.256 131.002 220.496V219.935C131.002 219.467 130.768 219.241 130.481 219.001C130.195 218.747 129.799 218.621 129.292 218.621C128.213 218.621 127.147 218.981 126.095 219.702L125.217 217.479C126.439 216.624 127.862 216.204 129.48 216.204C132.301 216.204 133.71 217.546 133.802 220.082V226.79H130.995V226.783ZM129.065 224.34C129.767 224.34 130.411 224.1 130.995 223.619V222.691C130.475 222.53 129.909 222.451 129.299 222.451C128.129 222.451 127.545 222.778 127.545 223.433C127.545 224.033 128.051 224.333 129.065 224.333V224.34ZM104.638 214.492C104.924 214.772 105.261 214.912 105.65 214.912C105.839 214.916 106.026 214.881 106.2 214.809C106.374 214.737 106.532 214.629 106.662 214.492C106.937 214.201 107.074 213.856 107.074 213.459C107.074 213.057 106.937 212.713 106.662 212.444C106.532 212.309 106.375 212.201 106.202 212.129C106.029 212.057 105.843 212.022 105.656 212.025C105.256 212.025 104.912 212.159 104.627 212.445C104.352 212.725 104.215 213.063 104.215 213.46C104.215 213.856 104.357 214.201 104.644 214.493L104.638 214.492Z" fill="#282E38"/>
<path d="M77.6812 226.783C75.2005 226.783 73.1901 225.126 73.1901 223.082V216.538C73.1901 216.269 73.4066 216.05 73.6737 216.05H79.3452C81.8253 216.05 83.8363 217.707 83.8363 219.751V225.33L78.8363 221.58H78.1901L82.3828 226.783H77.6812Z" fill="#25CF7A"/>
</g>
<g clip-path="url(#clip2_1346_2525)">
<path d="M623.135 141.339L519.308 200.469L519.036 461.163H622.999L623.135 141.339Z" fill="#CCCCCC"/>
<path d="M417.122 141.339L520.01 200.469L521.22 461.163H418.197L417.122 141.339Z" fill="#D9D9D9"/>
<path d="M520.128 81.5318L417.122 141.002L520.128 200.473L623.134 141.002L520.128 81.5318Z" fill="#E6E6E6"/>
<path d="M580.192 140.611L524.714 108.581C522.625 107.374 519.238 107.374 517.149 108.581L461.671 140.611C459.582 141.817 459.582 143.772 461.671 144.979L517.149 177.009C519.238 178.215 522.625 178.215 524.714 177.009L580.192 144.979C582.281 143.772 582.281 141.817 580.192 140.611Z" fill="#C7C7C7"/>
<path d="M580.192 139.155L524.714 107.125C522.625 105.918 519.238 105.918 517.149 107.125L461.671 139.155C459.582 140.361 459.582 142.316 461.671 143.523L517.149 175.553C519.238 176.759 522.625 176.759 524.714 175.553L580.192 143.523C582.281 142.316 582.281 140.361 580.192 139.155Z" fill="#EBEBEB"/>
<path d="M495.453 148.338C498.91 150.333 504.521 150.333 507.979 148.337L514.241 144.721L507.979 141.106C504.523 139.11 498.912 139.111 495.455 141.107C491.998 143.103 491.997 146.342 495.453 148.338Z" fill="#0ACF83"/>
<path d="M507.981 133.875C511.438 131.879 517.049 131.878 520.505 133.874L526.767 137.489L514.241 144.721L507.979 141.106C504.523 139.11 504.524 135.871 507.981 133.875Z" fill="#A259FF"/>
<path d="M520.508 126.643C523.965 124.647 529.576 124.647 533.033 126.643L539.295 130.258L526.769 137.49L520.507 133.875C517.05 131.879 517.051 128.639 520.508 126.643Z" fill="#F24E1E"/>
<path d="M539.293 130.257L545.555 133.872C549.012 135.868 549.011 139.108 545.554 141.104C542.097 143.1 536.486 143.1 533.029 141.104L526.767 137.489L539.293 130.257Z" fill="#FF7262"/>
<path d="M533.028 148.336C529.571 150.332 523.96 150.332 520.503 148.336C517.047 146.341 517.047 143.101 520.505 141.105C523.962 139.109 529.573 139.109 533.029 141.104C536.486 143.1 536.485 146.34 533.028 148.336Z" fill="#1ABCFE"/>
</g>
<g clip-path="url(#clip3_1346_2525)">
<path d="M446.24 249.336L371.03 292.17L370.832 450.659H446.141L446.24 249.336Z" fill="#CCCCCC"/>
<path d="M297.008 249.336L371.538 292.17L372.415 450.659H297.787L297.008 249.336Z" fill="#D9D9D9"/>
<path d="M371.624 206.013L297.008 249.092L371.624 292.172L446.24 249.092L371.624 206.013Z" fill="#E6E6E6"/>
<path d="M414.09 248.206L375.988 226.208C373.899 225.002 370.512 225.002 368.423 226.208L330.321 248.206C328.232 249.412 328.232 251.368 330.321 252.574L368.423 274.572C370.512 275.778 373.899 275.778 375.988 274.572L414.09 252.574C416.179 251.368 416.179 249.412 414.09 248.206Z" fill="#C7C7C7"/>
<path d="M414.09 247.152L375.988 225.154C373.899 223.948 370.512 223.948 368.423 225.154L330.321 247.152C328.232 248.358 328.232 250.314 330.321 251.52L368.423 273.518C370.512 274.724 373.899 274.724 375.988 273.518L414.09 251.52C416.179 250.314 416.179 248.358 414.09 247.152Z" fill="#EBEBEB"/>
<path d="M370.99 253.562C369.712 253.556 368.201 253.689 366.923 253.677C365.579 254.809 364.249 254.879 364.383 255.643C364.435 255.918 365.564 257.094 367.001 257.315C367.877 256.831 367.673 256.419 367.502 255.951C368.078 255.042 369.924 254.184 370.985 253.559" fill="#2E93EE"/>
<path d="M365.872 256.942C366.257 256.598 366.32 256.168 366.039 255.798C366.177 256.14 365.982 256.502 365.529 256.744C365.639 256.814 365.753 256.88 365.872 256.942Z" fill="#2E578B"/>
<path d="M366.817 257.283C367.204 256.941 367.269 256.511 366.989 256.142C367.091 256.625 366.846 256.94 366.35 257.151C366.498 257.203 366.654 257.248 366.817 257.283Z" fill="#2E578B"/>
<path d="M378.794 248.188C377.97 248.28 376.79 248.79 377.921 251.19C377.921 251.19 374.857 251.677 374.148 251.681C373.44 251.684 372.275 252.11 372.14 252.584C372.066 252.832 372.038 253.083 372.056 253.334C372.056 253.334 372.766 253.935 373.355 254.028C374.341 253.994 375.202 253.617 375.53 253.077C375.53 253.077 380.135 252.993 380.707 252.498C381.279 252.003 381.405 247.896 378.794 248.188Z" fill="#2E93EE"/>
<path d="M375.515 253.069C375.515 253.069 373.856 252.985 373.5 252.929C373.74 253.002 373.995 253.059 374.258 253.1C374.258 253.1 374.16 253.62 373.445 253.694C373.445 253.694 374.287 253.818 374.659 253.198C374.937 253.178 375.212 253.147 375.483 253.106L375.515 253.069Z" fill="#2E578B"/>
<path d="M366.662 247.449C366.48 247.546 366.256 247.614 366.015 247.646C365.617 247.699 365.557 247.633 365.727 247.973C365.864 248.221 366.073 248.453 366.345 248.659C366.784 249.015 366.724 248.912 367 248.482C367.127 248.289 367.224 248.091 367.292 247.89C367.503 247.158 367.304 247.102 366.668 247.446" fill="#2E93EE"/>
<path d="M365.022 246.207C364.459 246.307 364.698 246.513 364.943 246.813C365.036 246.925 365.151 247.031 365.287 247.127C365.669 247.403 365.623 247.302 365.787 246.987C365.892 246.795 365.977 246.599 366.042 246.402C366.391 245.325 365.842 246.06 365.022 246.207Z" fill="#2E93EE"/>
<path d="M363.55 245.168C363.472 245.221 363.387 245.269 363.297 245.314C362.964 245.476 362.981 245.427 363.318 245.662C363.465 245.768 363.632 245.865 363.817 245.949C364.364 246.182 364.359 245.984 364.394 245.677C364.407 245.572 364.403 245.466 364.383 245.361C364.179 244.393 364.014 244.897 363.557 245.176" fill="#2E93EE"/>
<path d="M380.645 242.567C380.645 242.567 376.537 241.827 376.112 242.1C375.687 242.373 376.485 242.762 376.179 243.28C376.179 243.28 373.369 242.998 372.942 243.366C372.515 243.734 373.773 244.237 373.615 244.633C373.615 244.633 372.292 245.092 372.145 245.454C371.999 245.816 372.294 245.602 372.135 246.069C372.149 246.089 375.908 243.698 380.645 242.567Z" fill="#2E93EE"/>
<path d="M378.795 242.982C378.825 244.061 379.446 245.087 379.826 246.128C380.12 246.827 380.189 247.553 380.027 248.27C379.789 249.163 378.348 249.544 377.418 250.27C377.097 250.513 376.745 250.744 376.385 250.971C375.729 251.382 375.024 251.766 374.276 252.121C372.481 252.965 371.073 253.684 368.723 253.737C365.787 253.804 363.881 253.113 363.449 251.331C363.241 250.734 363.169 250.123 363.235 249.513C363.303 249.056 363.129 248.639 363.141 248.184C363.18 247.592 363.024 247.004 362.681 246.45C362.269 245.902 361.434 245.842 360.943 245.739C360.691 245.686 360.297 245.639 360.261 245.438C360.243 245.362 360.317 245.288 360.439 245.258C360.784 245.175 361.156 245.136 361.527 245.145C363.532 245.185 365.229 246.14 365.795 247.252C365.998 247.68 366.231 248.14 366.742 248.475C367.082 248.724 367.581 248.883 368.13 248.917C368.587 248.926 369.038 248.845 369.409 248.687C369.946 248.479 370.377 248.193 370.661 247.858C371.081 247.381 371.281 246.845 371.659 246.353C372.96 244.687 375.083 243.157 378.324 242.77L378.772 242.718L378.795 242.982Z" fill="#2E93EE"/>
<path d="M362.811 246.631C363.257 247.422 363.188 248.577 362.999 249.755C362.746 251.3 363.599 254.284 369.5 253.775C375.044 253.289 378.412 250.068 378.782 249.696L378.82 249.655C378.844 249.551 379.473 246.768 377.95 245.429C376.986 245.394 376.088 245.797 375.393 246.985C374.227 248.983 371.773 251.46 367.661 251.479C367.041 251.486 366.43 251.409 365.876 251.254C363.94 250.699 364.067 249.739 364.025 248.715C364.011 247.96 363.587 247.231 362.811 246.631Z" fill="#FFCF00"/>
<path d="M370.191 253.702C369.41 253.134 368.92 252.448 368.776 251.722C368.533 252.44 368.792 253.18 369.495 253.778C369.729 253.759 369.977 253.741 370.191 253.702Z" fill="#ECA93F"/>
<path d="M365.904 251.466C365.505 252.095 365.344 252.763 365.434 253.426C365.679 253.512 365.938 253.585 366.208 253.643C365.743 252.954 365.637 252.197 365.904 251.466Z" fill="#ECA93F"/>
<path d="M363.024 249.571L362.994 249.758L362.979 249.846C363.151 249.693 363.402 249.574 363.696 249.509C363.47 249.52 363.245 249.541 363.024 249.571Z" fill="#ECA93F"/>
<path d="M363.009 250.757C363.028 250.867 363.051 250.979 363.067 251.101C363.362 250.842 363.714 250.599 364.053 250.547C363.693 250.594 363.343 250.665 363.009 250.757Z" fill="#ECA93F"/>
<path d="M363.125 248.391L363.116 248.668C363.284 248.566 363.475 248.476 363.682 248.402C363.497 248.39 363.311 248.386 363.125 248.391Z" fill="#FF9144"/>
<path d="M371.196 251.074C372.396 251.441 373.375 252.007 374.011 252.7C374.169 252.636 374.325 252.571 374.472 252.507C373.074 251.184 371.196 251.074 371.196 251.074Z" fill="#ECA93F"/>
<path d="M377.069 251.071C377.217 250.97 377.354 250.873 377.487 250.778C375.579 249.621 373.604 249.598 373.604 249.598C375.013 249.855 376.229 250.372 377.069 251.071Z" fill="#ECA93F"/>
<path d="M378.905 249.122C378.918 249.026 378.93 248.922 378.929 248.803C376.853 247.604 375.307 247.848 375.307 247.848C376.726 248.027 377.992 248.475 378.905 249.122Z" fill="#ECA93F"/>
<path d="M377.346 250.88C377.773 250.575 378.17 250.257 378.538 249.927L378.482 249.786C378.26 249.149 377.128 246.432 376.811 245.628C376.664 245.696 376.53 245.773 376.413 245.858C376.031 247.114 375.879 249.527 377.346 250.88Z" fill="#ECA93F"/>
<path d="M365.558 250.044C366.228 249.967 366.911 250.104 367.344 250.402C368.502 251.275 366.471 251.961 365.205 252.323C364.304 252.587 363.468 252.922 362.721 253.318C361.786 253.858 361.855 254.223 361.062 254.187C359.896 254.075 358.84 253.734 358.068 253.222C357.499 252.695 359.034 251.788 360.611 252.242C361.663 252.012 362.392 251.576 363.139 251.114C363.658 250.793 364.688 250.147 365.571 250.036" fill="#2E93EE"/>
<path d="M358.782 253.625C358.903 253.676 359.028 253.727 359.155 253.772C359.519 253.455 360.131 253.262 360.785 253.258C360.017 253.14 359.378 253.327 358.782 253.625Z" fill="#2E578B"/>
<path d="M358.056 253.218C358.445 252.866 359.1 252.641 359.815 252.614C359.146 252.526 358.44 252.642 357.941 252.922C357.924 253.026 357.964 253.129 358.056 253.218Z" fill="#2E578B"/>
<path d="M367.211 248.727C367.211 248.727 366.158 249.158 366.458 249.679C366.696 250.127 367.319 250.486 368.015 250.444C368.982 250.382 370.682 250.123 370.026 248.524C369.623 247.538 367.341 248.78 367.341 248.78L367.211 248.727Z" fill="#2E578B"/>
<path d="M371.673 246.32C371.4 246.737 371.219 247.076 371.195 247.102C371.17 247.128 374.348 246.89 374.38 246.573C374.411 246.256 372.282 246.222 371.673 246.32Z" fill="#2E578B"/>
<path d="M375.603 245.616C375.63 247.329 370.578 246.659 370.578 246.659C370.698 246.979 370.381 247.656 370.158 248.154C369.934 248.651 370.15 248.673 370.088 249.159C370.028 249.645 368.24 249.392 368.24 249.392C368.24 249.392 366.559 246.048 367.886 245.294C368.05 245.199 370.382 244.855 372.167 244.836C373.064 244.827 375.59 244.798 375.603 245.616Z" fill="#2E93EE"/>
<path d="M367.931 248.37C367.931 248.37 366.268 249.026 366.667 249.728C366.667 249.728 367.291 250.139 367.876 250.191C367.876 250.191 370.035 249.917 370.089 249.16C370.144 248.403 367.931 248.37 367.931 248.37Z" fill="#2E93EE"/>
<path d="M367.816 248.419C367.816 248.419 368.307 249.382 368.44 249.521C368.226 249.428 368.064 249.301 367.972 249.155C367.972 249.155 367.171 249.312 367.146 249.683C367.146 249.683 366.739 249.345 367.76 248.96L367.781 248.427L367.816 248.419Z" fill="#2E578B"/>
<path d="M379.405 242.847C379.405 242.847 383.342 241.223 384.773 241.984C385.718 242.483 385.001 243.425 385.001 243.425C385.552 243.746 385.93 244.154 386.09 244.6C386.09 244.6 386.818 244.484 387.088 244.813C387.357 245.142 386.856 245.983 385.078 246.811C385.428 247.088 385.537 247.445 385.374 247.78C385.1 247.809 384.819 247.776 384.593 247.685C384.284 247.535 383.511 246.561 382.88 246.541C382.3 246.485 381.71 246.628 381.365 246.908C381.365 246.908 380.145 246.042 380.328 245.239C380.511 244.435 381.517 243.254 379.405 242.847Z" fill="#2E93EE"/>
<path d="M383.839 245.689C383.839 245.689 385.31 245.229 386.277 245.421C385.75 245.751 385.263 246.101 384.817 246.468C384.518 246.197 384.191 245.937 383.839 245.689Z" fill="#F1F1F2"/>
<path d="M383.224 242.65C383.224 242.65 383.649 243.371 382.446 244.714C381.928 244.29 381.352 243.891 380.723 243.521C381.656 243.342 382.511 243.044 383.224 242.65Z" fill="#F1F1F2"/>
<path d="M382.781 243.301C382.984 243.418 382.919 243.648 382.632 243.814C382.344 243.98 381.95 244.015 381.747 243.898C381.544 243.781 381.608 243.551 381.893 243.387C382.178 243.222 382.576 243.182 382.781 243.301Z" fill="#2E578B"/>
<path d="M384.53 245.899C384.691 245.992 384.995 245.966 385.212 245.84C385.43 245.714 385.476 245.539 385.315 245.446C385.282 245.429 385.245 245.416 385.204 245.406C385.01 245.416 384.822 245.447 384.648 245.499C384.638 245.503 384.629 245.508 384.621 245.514C384.415 245.63 384.37 245.806 384.53 245.899Z" fill="#2E578B"/>
<path d="M380.381 244.381C380.381 244.381 380.184 243.337 379.1 243.375C377.8 243.425 377.329 244.397 377.329 244.397C377.329 244.397 377.865 244.173 378.245 244.216C378.245 244.216 376.876 245.11 377.586 247.394C378.295 249.677 379.489 250.162 380.135 250.377C380.781 250.591 381.67 250.676 381.891 250.323C382.112 249.97 381.926 248.556 381.926 248.556C381.926 248.556 381.366 248.304 380.713 247.508C380.059 246.712 379.413 245.516 379.772 244.297C379.973 244.331 380.176 244.359 380.381 244.381Z" fill="#FF9144"/>
<path d="M377.899 245.14C379.524 245.71 380.523 246.723 380.551 247.829L380.433 247.593C380.433 247.593 381.69 248.25 381.687 248.444C381.908 249.137 381.574 249.856 380.778 250.401C380.395 250.662 379.19 250.239 378.125 248.361C377.473 247.19 377.899 245.14 377.899 245.14Z" fill="#FF6B17"/>
<path d="M380.244 246.813L380.267 246.857L380.244 246.813Z" fill="#FF9144"/>
<path d="M381.837 248.496C381.837 248.496 380.334 249.028 380.023 248.69C379.918 248.577 380.323 248.413 380.499 248.242C380.674 248.07 380.952 247.709 380.952 247.709L381.837 248.496Z" fill="#EBEEF2"/>
<path d="M384.516 249.511C384.516 249.511 383.179 250.176 382.774 249.874C382.637 249.773 382.991 249.575 383.117 249.39C383.243 249.204 383.422 248.824 383.422 248.824L384.516 249.511Z" fill="#EBEEF2"/>
<path d="M386.1 249.167C386.918 248.628 386.168 247.751 384.718 247.625C384.19 247.143 383.898 246.441 382.529 246.451C382.018 246.427 381.537 246.606 381.359 246.886C381.359 246.886 380.176 245.936 380.421 245.231C380.666 244.525 381.011 243.589 380.398 243.154C380.069 242.923 379.507 242.537 378.445 242.74C377.381 242.942 375.933 243.58 376.552 246.27C377.17 248.96 377.78 249.942 378.358 250.273C379.089 250.695 379.403 250.566 380.373 250.977C380.865 251.19 381.937 250.949 382.109 250.304C382.22 249.784 382.173 249.259 381.969 248.752C381.916 248.752 382.108 249.854 381.887 250.207C381.666 250.56 380.824 250.378 380.192 250.159C379.558 249.939 378.764 249.645 378.046 247.369C377.329 245.093 378.71 244.007 378.71 244.007C378.459 243.81 377.772 244.167 377.772 244.167C377.772 244.167 378.187 243.534 379.095 243.537C380.184 243.545 380.09 244.258 380.09 244.258L380.056 244.238C379.879 243.94 379.529 244.088 379.529 244.088C379.242 245.314 379.52 246.556 380.332 247.689C380.985 248.485 381.926 248.557 381.926 248.557C382.412 248.834 382.933 249.089 383.485 249.321C383.949 249.474 384.997 249.898 386.1 249.167Z" fill="#FFCF00"/>
<path d="M382.813 247.161C383.125 247.254 382.983 247.547 382.531 247.448C382.366 247.492 382.306 247.609 382.45 247.745C382.172 247.69 382.028 247.515 382.128 247.353C382.229 247.192 382.535 247.106 382.813 247.161Z" fill="#ECA93F"/>
<path d="M385.589 248.648C385.459 248.498 385.039 248.566 385.18 248.784C385.114 248.861 384.949 248.89 384.753 248.82C385.149 249.17 385.753 248.852 385.584 248.645" fill="#ECA93F"/>
</g>
<defs>
<clipPath id="clip0_1346_2525">
<rect width="149" height="453" fill="white" transform="translate(177)"/>
</clipPath>
<clipPath id="clip1_1346_2525">
<rect width="206" height="290" fill="white" transform="translate(0 163)"/>
</clipPath>
<clipPath id="clip2_1346_2525">
<rect width="206" height="368" fill="white" transform="translate(417 82)"/>
</clipPath>
<clipPath id="clip3_1346_2525">
<rect width="149" height="244" fill="white" transform="translate(297 206)"/>
</clipPath>
</defs>
</svg>
