<svg width="66" height="66" viewBox="0 0 66 66" fill="none" xmlns="http://www.w3.org/2000/svg">
<path d="M58.1996 50L57.0996 51.1L59.4996 53.4L57.0996 55.8L58.1996 56.9L61.6996 53.4L58.1996 50Z" fill="#808080"/>
<path d="M48.4996 50L45.0996 53.4L48.4996 56.9L49.5996 55.8L47.1996 53.4L49.5996 51.1L48.4996 50Z" fill="#808080"/>
<path d="M49.8457 58.8689L51.19 59.5343L56.868 48.0629L55.5237 47.3975L49.8457 58.8689Z" fill="#808080"/>
<path d="M53.4 41.4C52.5 41.4 51.7 41.5 50.8 41.7C48.9 39.8 46.6 38.5 44 37.7C44.5 35.4 44.3 33.6 43.1 32.3C41.6 30.6 39.1 30.3 37.4 30.4C39.3 28.3 40.7 25.6 40.8 22.5C41.7 21.7 44.2 19.5 44.1 17.1C44 14.7 42.4 14.6 42 14.6H41.9L42.3 11C42.5 6.7 40.6 5.1 39.2 4.5C40.6 2.5 40.2 1.2 40.2 1.1L39.9 0.2L39.1 0.8C38.2 1.4 37.3 1.7 36.4 1.7C35.8 1.7 35.4 1.5 35.4 1.5C32.7 0.3 27 0 26.7 0C20.8 0 19 3 18.6 4.2C13.6 4.8 13.8 9.8 13.9 12.2C13.9 12.6 13.9 13 13.9 13.3C13.9 13.8 13.9 14.3 14 14.8C13.3 14.8 12 15.2 12 17.3C11.9 19.7 14.4 22 15.3 22.7C15.4 25.6 16.7 28.2 18.5 30.3C16.8 30.3 14.1 30.5 12.6 32.2C11.5 33.5 11.2 35.3 11.8 37.7C4.8 40 0 46.7 0 54.1V57.3H42C43.6 62 48.1 65.4 53.3 65.4C59.9 65.4 65.3 60 65.3 53.4C65.4 46.8 60 41.4 53.4 41.4ZM42 33.3C42.9 34.3 43 35.9 42.3 38.1C42.2 38.3 40.2 42.6 34.2 44.2C33.8 43.1 33 42.2 31.9 41.7C32.8 41.2 33.5 40.6 34.1 39.9C36.4 37.2 36.5 33.5 36.5 32C37.9 31.8 40.7 31.8 42 33.3ZM33.8 48.6C34.5 48.6 35 49.2 35 49.8C35 50.5 34.4 51 33.8 51C33.1 51 32.5 50.4 32.5 49.8C32.6 49.2 33.1 48.6 33.8 48.6ZM27.6 41.2C25.5 41 23.8 40.2 22.7 38.9C21 36.9 20.7 34 20.6 32.5C22.9 34.3 25.5 35.4 28 35.4C30.1 35.4 32.8 34.4 35.1 32.6C35.1 34.2 34.7 37 33 39C31.9 40.2 30.2 41 28.1 41.2H27.6ZM19.2 5.6H19.8L19.9 5C19.9 5 20.6 1.4 26.7 1.4C26.8 1.4 32.3 1.7 34.8 2.8C34.9 2.8 35.5 3.1 36.4 3.1C37.1 3.1 37.8 3 38.4 2.7C38.2 3.1 37.8 3.6 37.3 4.2L36.2 5.4L37.8 5.5C37.9 5.5 41.1 5.8 40.8 10.8L40.4 14.4L38.7 15.1C38.3 14.6 37.7 14.4 37.4 14.3C36.6 14.2 35.8 14.2 34.8 14.2C33.1 14.2 31.5 14.4 31.4 14.4C30.1 14.6 29.2 15 28.8 15.8C28.8 15.9 28.8 15.9 28.7 16H27.4C27.4 15.9 27.4 15.9 27.3 15.8C26.9 15 26 14.5 24.7 14.4C24.6 14.4 23 14.2 21.3 14.2C20.3 14.2 19.4 14.3 18.8 14.4C18.5 14.5 17.9 14.7 17.5 15.2L15.5 14.4C15.5 14 15.4 13.7 15.4 13.4C15.4 13.1 15.4 12.7 15.4 12.2C15.2 8.8 15.4 5.8 19.2 5.6ZM37.7 17.5L37.6 18.2C37.3 20 37.2 20.3 36.3 20.5C36.3 20.5 35.3 20.7 34.1 20.7C32.8 20.7 31.9 20.4 31.4 20C31.2 19.7 30.6 18.6 30.1 17.3C30.1 17.3 29.9 16.8 30.1 16.5C30.3 16.2 30.8 16 31.5 15.9C31.5 15.9 33.1 15.7 34.8 15.7C35.7 15.7 36.5 15.8 37 15.9C37.1 15.8 38 16 37.7 17.5ZM25.9 17.4C25.4 18.7 24.8 19.8 24.6 20C24.1 20.5 23.2 20.7 21.9 20.7C20.8 20.7 19.8 20.5 19.8 20.5C18.9 20.2 18.8 19.9 18.5 18.1L18.4 17.4C18.2 16 18.9 15.8 19.1 15.7C19.6 15.6 20.4 15.5 21.3 15.5C22.9 15.5 24.5 15.7 24.5 15.7C25.3 15.8 25.8 16 25.9 16.3C26.2 16.8 26 17.3 25.9 17.4ZM16.8 22L16.5 21.8C15.6 21.1 13.4 19.1 13.5 17.4C13.5 16.3 13.9 16.3 14.2 16.3C14.6 16.3 15 16.1 15.2 15.9L16.9 16.6C16.8 17 16.8 17.4 16.9 17.9L17 18.6C17.3 20.4 17.5 21.6 19.4 22.2C19.4 22.2 20.6 22.4 21.9 22.4C23.7 22.4 25 22 25.8 21.1L25.9 21C25.9 20.9 26.8 19.6 27.4 18.1C27.4 18.1 27.5 17.8 27.6 17.5H28.7C28.8 17.8 28.9 18 28.9 18C29.5 19.6 30.4 20.9 30.4 21L30.5 21.1C31.3 21.9 32.6 22.4 34.4 22.4C35.7 22.4 36.8 22.2 36.9 22.1C38.8 21.5 39 20.4 39.3 18.6L39.4 17.9C39.5 17.4 39.5 17 39.4 16.6L41 16C41.2 16.1 41.4 16.2 41.6 16.2H41.9C42 16.2 42.1 16.2 42.2 16.2C42.4 16.2 42.8 16.2 42.8 17.3C42.8 19 40.6 21.1 39.8 21.7L39.5 21.9V22.3C39.5 25.6 37.7 28.7 35.3 30.8C33.1 32.7 30.4 33.9 28.3 33.9C23.3 33.9 17.2 28.8 17.1 22.5L16.8 22ZM13.8 33.3C15.1 31.8 17.9 31.8 19.2 31.9C19.2 33.5 19.3 37.2 21.6 39.8C22.3 40.7 23.2 41.3 24.3 41.8C23.4 42.4 22.7 43.3 22.3 44.3C15.7 42.8 13.5 38.2 13.5 38.1C12.8 35.9 12.9 34.3 13.8 33.3ZM22.8 50.4C23.5 50.4 24.1 51 24.1 51.6C24.1 52.3 23.5 52.8 22.8 52.8C22.1 52.8 21.5 52.2 21.5 51.6C21.6 50.9 22.1 50.4 22.8 50.4ZM1.5 55.9V54.2C1.5 47.4 5.9 41.4 12.3 39.2C13.1 40.6 15.8 44.5 22 45.9V49C20.8 49.3 20 50.4 20 51.6C20 53.1 21.2 54.3 22.8 54.3C24.4 54.3 25.6 53.1 25.6 51.6C25.6 50.3 24.8 49.3 23.6 49V45.7C23.6 44 24.9 42.7 26.6 42.7H27.6C27.7 42.7 27.8 42.7 27.9 42.7H28C28.1 42.7 28.2 42.7 28.3 42.7H30.2C31.9 42.7 33.2 44 33.2 45.7V47.2C32 47.5 31.2 48.6 31.2 49.8C31.2 51.3 32.4 52.5 33.9 52.5C35.4 52.5 36.6 51.3 36.6 49.8C36.6 48.5 35.8 47.5 34.6 47.2V45.7C40.3 44.2 42.8 40.5 43.5 39.1C45.6 39.7 47.5 40.8 49.1 42.2C44.6 43.9 41.3 48.3 41.3 53.4C41.3 54.2 41.4 55.1 41.6 55.8H1.5V55.9ZM53.4 63.9C47.6 63.9 42.9 59.2 42.9 53.4C42.9 47.6 47.6 42.9 53.4 42.9C59.2 42.9 63.9 47.6 63.9 53.4C63.9 59.2 59.2 63.9 53.4 63.9Z" fill="#808080"/>
</svg>
