<svg width="60" height="60" viewBox="0 0 60 60" fill="none" xmlns="http://www.w3.org/2000/svg">
<g clip-path="url(#clip0_1702_2248)">
<path d="M25.3125 16.875H23.4375V18.75H25.3125V16.875Z" fill="#808080"/>
<path d="M36.5625 16.875H34.6875V18.75H36.5625V16.875Z" fill="#808080"/>
<path d="M32.8125 30V29.0625H30.9375V30C30.9375 30.5168 30.5168 30.9375 30 30.9375C29.4832 30.9375 29.0625 30.5168 29.0625 30V29.0625H27.1875V30C27.1875 31.5509 28.4491 32.8125 30 32.8125C31.5509 32.8125 32.8125 31.5509 32.8125 30Z" fill="#808080"/>
<path d="M49.6875 39.375H44.0625V26.25H45C46.5509 26.25 47.8125 24.9884 47.8125 23.4375V19.6875C47.8125 18.1366 46.5509 16.875 45 16.875H44.0625V14.0625V6.5625C44.0625 2.94388 41.1186 0 37.5 0H23.4375C19.8972 0 15.9375 2.80655 15.9375 6.5625V14.0625V16.875H15C13.4491 16.875 12.1875 18.1366 12.1875 19.6875V23.4375C12.1875 24.9884 13.4491 26.25 15 26.25H15.9375V39.375H10.3125C4.62616 39.375 0 44.0012 0 49.6875V51.5625V55.3125V59.0625C0 59.5802 0.419769 60 0.9375 60H10.3125H49.6875H59.0625C59.5802 60 60 59.5802 60 59.0625V55.3125V51.5625V49.6875C60 44.0012 55.3738 39.375 49.6875 39.375ZM50.625 52.5H58.125V54.375H50.625V52.5ZM58.125 49.6875V50.625H50.625V41.3017C54.8378 41.7696 58.125 45.352 58.125 49.6875ZM17.8125 41.25H27.1875V43.125H22.5C22.2514 43.125 22.0129 43.2239 21.8372 43.3997L19.6875 45.5493L17.8125 43.6743V41.25ZM42.1875 14.9052V16.875H40.3125V15.9375C40.3125 14.3866 39.0509 13.125 37.5 13.125H33.75C32.1991 13.125 30.9375 14.3866 30.9375 15.9375V16.875H29.0625V15.9375C29.0625 14.3866 27.8009 13.125 26.25 13.125H22.5C20.9491 13.125 19.6875 14.3866 19.6875 15.9375V16.875H17.8125V14.9052C19.9493 14.4696 21.5625 12.576 21.5625 10.3125V6.76849L29.816 8.41919C29.9377 8.44391 30.0623 8.44391 30.184 8.41919L38.4375 6.76849V10.3125C38.4375 12.576 40.0507 14.4696 42.1875 14.9052ZM38.4375 15.9375V17.8125C38.4375 19.3634 37.1759 20.625 35.625 20.625H35.1562C33.864 20.625 32.8125 19.5735 32.8125 18.2812V15.9375C32.8125 15.4207 33.2332 15 33.75 15H37.5C38.0168 15 38.4375 15.4207 38.4375 15.9375ZM27.1875 15.9375V18.2812C27.1875 19.5735 26.136 20.625 24.8438 20.625H24.375C22.8241 20.625 21.5625 19.3634 21.5625 17.8125V15.9375C21.5625 15.4207 21.9832 15 22.5 15H26.25C26.7668 15 27.1875 15.4207 27.1875 15.9375ZM17.8125 28.5408C18.3663 28.8638 19.0015 29.0625 19.6875 29.0625C21.7552 29.0625 23.4375 27.3802 23.4375 25.3125C23.4375 23.2448 21.7552 21.5625 19.6875 21.5625C19.0015 21.5625 18.3663 21.7612 17.8125 22.0842V18.75H19.6875V17.8125C19.6875 20.397 21.7905 22.5 24.375 22.5H24.8438C27.0096 22.5 28.7785 20.8536 29.0151 18.75H30.9375V25.3125H29.0625V24.375H27.1875V26.25C27.1875 26.7677 27.6073 27.1875 28.125 27.1875H31.875C32.3927 27.1875 32.8125 26.7677 32.8125 26.25V21.7858C33.4835 22.236 34.2893 22.5 35.1562 22.5H35.625C38.2095 22.5 40.3125 20.397 40.3125 17.8125V18.75H42.1875V22.0842C41.6337 21.7612 40.9985 21.5625 40.3125 21.5625C38.2448 21.5625 36.5625 23.2448 36.5625 25.3125C36.5625 27.3802 38.2448 29.0625 40.3125 29.0625C40.9985 29.0625 41.6337 28.8638 42.1875 28.5408V39.375H31.875H28.125H17.8125V28.5408ZM17.8125 25.3125C17.8125 24.2784 18.6534 23.4375 19.6875 23.4375C20.7216 23.4375 21.5625 24.2784 21.5625 25.3125C21.5625 26.3466 20.7216 27.1875 19.6875 27.1875C18.6534 27.1875 17.8125 26.3466 17.8125 25.3125ZM42.1875 25.3125C42.1875 26.3466 41.3466 27.1875 40.3125 27.1875C39.2784 27.1875 38.4375 26.3466 38.4375 25.3125C38.4375 24.2784 39.2784 23.4375 40.3125 23.4375C41.3466 23.4375 42.1875 24.2784 42.1875 25.3125ZM30 41.25C30.5168 41.25 30.9375 41.6707 30.9375 42.1875C30.9375 42.7043 30.5168 43.125 30 43.125C29.4832 43.125 29.0625 42.7043 29.0625 42.1875C29.0625 41.6707 29.4832 41.25 30 41.25ZM29.0625 44.8272C29.3572 44.9323 29.6697 45 30 45C30.3303 45 30.6428 44.9323 30.9375 44.8273V52.5H29.0625V44.8272ZM32.8125 41.25H42.1875V43.6743L40.3125 45.5493L38.1628 43.3997C37.9871 43.2239 37.7486 43.125 37.5 43.125H32.8125V41.25ZM45 18.75C45.5168 18.75 45.9375 19.1707 45.9375 19.6875V23.4375C45.9375 23.9543 45.5168 24.375 45 24.375H44.0625V18.75H45ZM17.8125 6.5625C17.8125 3.96606 20.8896 1.875 23.4375 1.875H37.5C40.0845 1.875 42.1875 3.97797 42.1875 6.5625V12.9643C41.0962 12.5775 40.3125 11.5347 40.3125 10.3125V5.625C40.3125 5.34393 40.1866 5.07797 39.9692 4.8999C39.8003 4.7612 39.5897 4.6875 39.375 4.6875C39.3137 4.6875 39.2523 4.69345 39.191 4.70581L30 6.54373L20.809 4.70581C20.5316 4.64996 20.2478 4.72137 20.0308 4.8999C19.8134 5.07797 19.6875 5.34393 19.6875 5.625V10.3125C19.6875 11.5347 18.9038 12.5775 17.8125 12.9643V6.5625ZM14.0625 23.4375V19.6875C14.0625 19.1707 14.4832 18.75 15 18.75H15.9375V24.375H15C14.4832 24.375 14.0625 23.9543 14.0625 23.4375ZM1.875 52.5H9.375V54.375H1.875V52.5ZM1.875 49.6875C1.875 45.352 5.1622 41.7696 9.375 41.3017V50.625H1.875V49.6875ZM1.875 56.25H9.375V58.125H1.875V56.25ZM11.25 55.3125V51.5625V41.25H15.9375V44.0625C15.9375 44.3111 16.0364 44.5496 16.2122 44.7253L19.0247 47.5378C19.2078 47.7209 19.4476 47.8125 19.6875 47.8125C19.9274 47.8125 20.1672 47.7209 20.3503 47.5378L22.8882 45H27.1875V53.4375C27.1875 53.9552 27.6073 54.375 28.125 54.375H31.875C32.3927 54.375 32.8125 53.9552 32.8125 53.4375V45H37.1118L39.6497 47.5378C39.8328 47.7209 40.0726 47.8125 40.3125 47.8125C40.5524 47.8125 40.7922 47.7209 40.9753 47.5378L43.7878 44.7253C43.9636 44.5496 44.0625 44.3111 44.0625 44.0625V41.25H48.75V51.5625V55.3125V58.125H11.25V55.3125ZM58.125 58.125H50.625V56.25H58.125V58.125Z" fill="#808080"/>
</g>
<defs>
<clipPath id="clip0_1702_2248">
<rect width="60" height="60" fill="white"/>
</clipPath>
</defs>
</svg>
