<svg width="44" height="44" viewBox="0 0 44 44" fill="none" xmlns="http://www.w3.org/2000/svg">
<path d="M38.0538 20.3241C39.3423 19.4187 40.1955 17.9125 40.1955 16.2149C40.1955 13.4377 37.9493 11.1915 35.1721 11.1915C32.3949 11.1915 30.1488 13.4377 30.1488 16.2149C30.1488 17.9125 30.9933 19.4187 32.2905 20.3241C31.1848 20.7072 30.1749 21.2992 29.3217 22.0653C28.1464 21.0641 26.7622 20.298 25.2473 19.8453C27.0843 18.7309 28.3205 16.7024 28.3205 14.3953C28.3205 10.8781 25.4737 8.03125 21.9565 8.03125C18.4393 8.03125 15.5924 10.8868 15.5924 14.3953C15.5924 16.7024 16.8199 18.7309 18.6656 19.8453C17.1682 20.298 15.8013 21.0554 14.6347 22.0392C13.7816 21.2905 12.7891 20.7072 11.7008 20.3328C12.9893 19.4274 13.8425 17.9212 13.8425 16.2236C13.8425 13.4464 11.5964 11.2002 8.81915 11.2002C6.04195 11.2002 3.79581 13.4464 3.79581 16.2236C3.79581 17.9212 4.64029 19.4274 5.93748 20.3328C2.4812 21.5255 0 24.8077 0 28.6644V29.239C0 29.2564 0.017412 29.2738 0.0348239 29.2738H10.6822C10.6213 29.7527 10.5865 30.2489 10.5865 30.7451V31.3371C10.5865 33.8967 12.6585 35.9687 15.218 35.9687H28.7123C31.2719 35.9687 33.3439 33.8967 33.3439 31.3371V30.7451C33.3439 30.2489 33.3091 29.7527 33.2481 29.2738H43.9652C43.9826 29.2738 44 29.2564 44 29.239V28.6644C43.9826 24.799 41.5101 21.5168 38.0538 20.3241ZM31.5417 16.2062C31.5417 14.2038 33.1698 12.5758 35.1721 12.5758C37.1745 12.5758 38.8025 14.2038 38.8025 16.2062C38.8025 18.1824 37.2093 19.793 35.2418 19.8366C35.2157 19.8366 35.1983 19.8366 35.1721 19.8366C35.146 19.8366 35.1286 19.8366 35.1025 19.8366C33.1262 19.8017 31.5417 18.1911 31.5417 16.2062ZM16.9679 14.3953C16.9679 11.6529 19.1967 9.42421 21.9391 9.42421C24.6814 9.42421 26.9102 11.6529 26.9102 14.3953C26.9102 17.0419 24.8294 19.2097 22.2264 19.3577C22.1306 19.3577 22.0348 19.3577 21.9391 19.3577C21.8433 19.3577 21.7475 19.3577 21.6518 19.3577C19.0487 19.2097 16.9679 17.0419 16.9679 14.3953ZM5.16264 16.2062C5.16264 14.2038 6.79066 12.5758 8.79304 12.5758C10.7954 12.5758 12.4234 14.2038 12.4234 16.2062C12.4234 18.1824 10.8302 19.793 8.86268 19.8366C8.83657 19.8366 8.81915 19.8366 8.79304 19.8366C8.76692 19.8366 8.74951 19.8366 8.72339 19.8366C6.75584 19.8017 5.16264 18.1911 5.16264 16.2062ZM10.926 27.8722H1.41037C1.80214 24.1634 4.93629 21.2556 8.7408 21.2295C8.75821 21.2295 8.77562 21.2295 8.79304 21.2295C8.81045 21.2295 8.82786 21.2295 8.84527 21.2295C10.6561 21.2382 12.3103 21.9086 13.59 22.9968C12.3364 24.355 11.4048 26.0265 10.926 27.8722ZM31.9335 31.3371C31.9335 33.1219 30.4796 34.5758 28.6949 34.5758H15.2006C13.4159 34.5758 11.962 33.1219 11.962 31.3371V30.7451C11.962 25.3387 16.2802 20.9161 21.6518 20.7594C21.7475 20.7681 21.852 20.7681 21.9478 20.7681C22.0435 20.7681 22.148 20.7681 22.2438 20.7594C27.6154 20.9161 31.9335 25.3387 31.9335 30.7451V31.3371ZM32.9695 27.8722C32.4907 26.0352 31.5766 24.3898 30.3316 23.0316C31.6201 21.9173 33.2917 21.2469 35.1199 21.2295C35.1373 21.2295 35.1547 21.2295 35.1721 21.2295C35.1896 21.2295 35.207 21.2295 35.2244 21.2295C39.0289 21.2556 42.163 24.1634 42.5548 27.8722H32.9695Z" fill="black"/>
</svg>
