<svg width="44" height="28" viewBox="0 0 44 28" fill="none" xmlns="http://www.w3.org/2000/svg">
<path d="M38.0538 12.3241C39.3423 11.4187 40.1955 9.91253 40.1955 8.21487C40.1955 5.43766 37.9493 3.19152 35.1721 3.19152C32.3949 3.19152 30.1488 5.43766 30.1488 8.21487C30.1488 9.91253 30.9933 11.4187 32.2905 12.3241C31.1848 12.7072 30.1749 13.2992 29.3217 14.0653C28.1464 13.0641 26.7622 12.298 25.2473 11.8453C27.0843 10.7309 28.3205 8.7024 28.3205 6.39532C28.3205 2.8781 25.4737 0.03125 21.9565 0.03125C18.4393 0.03125 15.5924 2.88681 15.5924 6.39532C15.5924 8.7024 16.8199 10.7309 18.6656 11.8453C17.1682 12.298 15.8013 13.0554 14.6347 14.0392C13.7816 13.2905 12.7891 12.7072 11.7008 12.3328C12.9893 11.4274 13.8425 9.92124 13.8425 8.22357C13.8425 5.44637 11.5964 3.20022 8.81915 3.20022C6.04195 3.20022 3.79581 5.44637 3.79581 8.22357C3.79581 9.92124 4.64029 11.4274 5.93748 12.3328C2.4812 13.5255 0 16.8077 0 20.6644V21.239C0 21.2564 0.017412 21.2738 0.0348239 21.2738H10.6822C10.6213 21.7527 10.5865 22.2489 10.5865 22.7451V23.3371C10.5865 25.8967 12.6585 27.9687 15.218 27.9687H28.7123C31.2719 27.9687 33.3439 25.8967 33.3439 23.3371V22.7451C33.3439 22.2489 33.3091 21.7527 33.2481 21.2738H43.9652C43.9826 21.2738 44 21.2564 44 21.239V20.6644C43.9826 16.799 41.5101 13.5168 38.0538 12.3241ZM31.5417 8.20616C31.5417 6.20379 33.1698 4.57577 35.1721 4.57577C37.1745 4.57577 38.8025 6.20379 38.8025 8.20616C38.8025 10.1824 37.2093 11.793 35.2418 11.8366C35.2157 11.8366 35.1983 11.8366 35.1721 11.8366C35.146 11.8366 35.1286 11.8366 35.1025 11.8366C33.1262 11.8017 31.5417 10.1911 31.5417 8.20616ZM16.9679 6.39532C16.9679 3.65294 19.1967 1.42421 21.9391 1.42421C24.6814 1.42421 26.9102 3.65294 26.9102 6.39532C26.9102 9.04194 24.8294 11.2097 22.2264 11.3577C22.1306 11.3577 22.0348 11.3577 21.9391 11.3577C21.8433 11.3577 21.7475 11.3577 21.6518 11.3577C19.0487 11.2097 16.9679 9.04194 16.9679 6.39532ZM5.16264 8.20616C5.16264 6.20379 6.79066 4.57577 8.79304 4.57577C10.7954 4.57577 12.4234 6.20379 12.4234 8.20616C12.4234 10.1824 10.8302 11.793 8.86268 11.8366C8.83657 11.8366 8.81915 11.8366 8.79304 11.8366C8.76692 11.8366 8.74951 11.8366 8.72339 11.8366C6.75584 11.8017 5.16264 10.1911 5.16264 8.20616ZM10.926 19.8722H1.41037C1.80214 16.1634 4.93629 13.2556 8.7408 13.2295C8.75821 13.2295 8.77562 13.2295 8.79304 13.2295C8.81045 13.2295 8.82786 13.2295 8.84527 13.2295C10.6561 13.2382 12.3103 13.9086 13.59 14.9968C12.3364 16.355 11.4048 18.0265 10.926 19.8722ZM31.9335 23.3371C31.9335 25.1219 30.4796 26.5758 28.6949 26.5758H15.2006C13.4159 26.5758 11.962 25.1219 11.962 23.3371V22.7451C11.962 17.3387 16.2802 12.9161 21.6518 12.7594C21.7475 12.7681 21.852 12.7681 21.9478 12.7681C22.0435 12.7681 22.148 12.7681 22.2438 12.7594C27.6154 12.9161 31.9335 17.3387 31.9335 22.7451V23.3371ZM32.9695 19.8722C32.4907 18.0352 31.5766 16.3898 30.3316 15.0316C31.6201 13.9173 33.2917 13.2469 35.1199 13.2295C35.1373 13.2295 35.1547 13.2295 35.1721 13.2295C35.1896 13.2295 35.207 13.2295 35.2244 13.2295C39.0289 13.2556 42.163 16.1634 42.5548 19.8722H32.9695Z" fill="black"/>
</svg>
