<svg width="47" height="60" viewBox="0 0 47 60" fill="none" xmlns="http://www.w3.org/2000/svg">
<g clip-path="url(#clip0_1702_2264)">
<path d="M0.94 52.5018C0.42018 52.5018 0 52.0827 0 51.5643C0 46.9106 3.79572 43.125 8.46188 43.125C8.9817 43.125 9.40188 43.5441 9.40188 44.0625C9.40188 44.5809 8.9817 45 8.46188 45C4.83254 45 1.88 47.9447 1.88 51.5643C1.88 52.0827 1.45982 52.5018 0.94 52.5018Z" fill="#808080"/>
<path d="M42.2998 52.5009C41.78 52.5009 41.3598 52.0818 41.3598 51.5634C41.3598 47.9456 38.4073 45.001 34.7798 45.001C34.26 45.001 33.8398 44.5819 33.8398 44.0635C33.8398 43.545 34.26 43.126 34.7798 43.126C39.4451 43.126 43.2398 46.9106 43.2398 51.5634C43.2398 52.0818 42.8197 52.5009 42.2998 52.5009Z" fill="#808080"/>
<path d="M8.46148 44.9999C7.9426 44.9999 7.52148 44.5809 7.52148 44.0625C7.52148 43.545 7.94166 43.125 8.46148 43.125L13.1605 43.124C13.6794 43.124 14.1005 43.5431 14.1005 44.0615C14.1005 44.579 13.6803 44.999 13.1605 44.999L8.46148 44.9999Z" fill="#808080"/>
<path d="M0.94094 59.0616C0.42206 59.0616 0.000939932 58.6425 0.000939932 58.1241L0 51.5644C0 51.047 0.42018 50.627 0.94 50.627C1.45888 50.627 1.88 51.046 1.88 51.5644L1.88094 58.1241C1.88094 58.6416 1.46076 59.0616 0.94094 59.0616Z" fill="#808080"/>
<path d="M1.88 59.999C0.84318 59.999 0 59.1581 0 58.124C0 57.6056 0.42018 57.1865 0.94 57.1865C1.45982 57.1865 1.88 57.6056 1.88 58.124V58.1259C2.39982 58.1259 2.82 58.544 2.82 59.0624C2.82 59.5799 2.39982 59.999 1.88 59.999Z" fill="#808080"/>
<path d="M41.3599 59.999C40.8401 59.999 40.4199 59.5799 40.4199 59.0615C40.4199 58.5431 40.8401 58.124 41.3599 58.124H41.3618C41.3618 57.6056 41.781 57.1865 42.3009 57.1865C42.8197 57.1865 43.2399 57.6056 43.2399 58.124C43.2399 59.1581 42.3967 59.999 41.3599 59.999Z" fill="#808080"/>
<path d="M42.3013 59.0615C41.7814 59.0615 41.3613 58.6425 41.3613 58.124V51.5635C41.3613 51.045 41.7814 50.626 42.3013 50.626C42.8211 50.626 43.2413 51.045 43.2413 51.5635V58.124C43.2413 58.6425 42.8211 59.0615 42.3013 59.0615Z" fill="#808080"/>
<path d="M41.3605 59.999H1.88141C1.36159 59.999 0.941406 59.58 0.941406 59.0615C0.941406 58.5431 1.36159 58.124 1.88141 58.124H41.3605C41.8803 58.124 42.3005 58.5431 42.3005 59.0615C42.3005 59.58 41.8803 59.999 41.3605 59.999Z" fill="#808080"/>
<path d="M15.0416 43.124C14.5218 43.124 14.1016 42.7049 14.1016 42.1865V39.374C14.1016 38.8556 14.5218 38.4365 15.0416 38.4365C15.5614 38.4365 15.9816 38.8556 15.9816 39.374V42.1865C15.9816 42.7049 15.5614 43.124 15.0416 43.124Z" fill="#808080"/>
<path d="M28.1998 43.124C27.6799 43.124 27.2598 42.7049 27.2598 42.1865V39.374C27.2598 38.8556 27.6799 38.4365 28.1998 38.4365C28.7196 38.4365 29.1398 38.8556 29.1398 39.374V42.1865C29.1398 42.7049 28.7196 43.124 28.1998 43.124Z" fill="#808080"/>
<path d="M16.506 46.8759C16.1742 46.8759 15.8537 46.7006 15.6817 46.3912C15.4307 45.9375 15.5961 45.3665 16.0511 45.1171L21.1675 42.3028C21.6234 42.0534 22.194 42.2184 22.445 42.6712C22.6959 43.125 22.5305 43.6959 22.0755 43.9453L16.9591 46.7596C16.8153 46.8384 16.6593 46.8759 16.506 46.8759Z" fill="#808080"/>
<path d="M26.7352 46.8762C26.582 46.8762 26.4259 46.8387 26.2821 46.76L21.1657 43.9456C20.7117 43.6953 20.5462 43.1253 20.7963 42.6716C21.0482 42.2197 21.6178 42.0547 22.0737 42.3032L27.1901 45.1175C27.6442 45.3678 27.8096 45.9378 27.5596 46.3916C27.3885 46.7009 27.067 46.8762 26.7352 46.8762Z" fill="#808080"/>
<path d="M11.2801 46.8751C11.0394 46.8751 10.7988 46.7832 10.6155 46.6004C10.248 46.2339 10.248 45.6414 10.6155 45.2748L14.3755 41.523C14.743 41.1564 15.3371 41.1564 15.7047 41.523C16.0722 41.8895 16.0722 42.482 15.7047 42.8486L11.9447 46.6004C11.7614 46.7832 11.5207 46.8751 11.2801 46.8751Z" fill="#808080"/>
<path d="M15.0401 50.6233C14.7994 50.6233 14.5588 50.5314 14.3755 50.3486L10.6155 46.6005C10.248 46.234 10.248 45.6415 10.6155 45.2749C10.983 44.9084 11.5771 44.9084 11.9447 45.2749L15.7047 49.023C16.0722 49.3896 16.0722 49.9821 15.7047 50.3486C15.5214 50.5314 15.2807 50.6233 15.0401 50.6233Z" fill="#808080"/>
<path d="M13.159 52.4983C12.9183 52.4983 12.6777 52.4064 12.4945 52.2236C12.1269 51.857 12.1269 51.2645 12.4945 50.898L14.3744 49.023C14.7419 48.6564 15.336 48.6564 15.7035 49.023C16.0711 49.3895 16.0711 49.982 15.7035 50.3486L13.8235 52.2236C13.6402 52.4064 13.3996 52.4983 13.159 52.4983Z" fill="#808080"/>
<path d="M18.802 59.9982C18.5153 59.9982 18.2343 59.8689 18.0491 59.6232L12.4091 52.1233C12.097 51.7099 12.1816 51.1221 12.5971 50.8118C13.0116 50.5014 13.6001 50.5839 13.9121 50.9993L19.5521 58.4992C19.8642 58.9126 19.7796 59.5004 19.3641 59.8107C19.1959 59.9373 18.9985 59.9982 18.802 59.9982Z" fill="#808080"/>
<path d="M21.6218 59.9985C21.2458 59.9985 20.8904 59.7716 20.7457 59.4003L14.1657 42.5255C13.9777 42.0427 14.2174 41.4998 14.7005 41.3123C15.1837 41.1239 15.7298 41.3639 15.9169 41.8458L22.4969 58.7207C22.6848 59.2035 22.4452 59.7463 21.962 59.9338C21.8502 59.9788 21.7355 59.9985 21.6218 59.9985Z" fill="#808080"/>
<path d="M31.958 46.8771C31.7174 46.8771 31.4767 46.7852 31.2934 46.6024L27.5334 42.8505C27.1659 42.484 27.1659 41.8915 27.5334 41.5249C27.901 41.1584 28.4951 41.1584 28.8626 41.5249L32.6226 45.2768C32.9901 45.6433 32.9901 46.2358 32.6226 46.6024C32.4393 46.7852 32.1987 46.8771 31.958 46.8771Z" fill="#808080"/>
<path d="M28.198 50.6253C27.9574 50.6253 27.7167 50.5334 27.5334 50.3506C27.1659 49.984 27.1659 49.3915 27.5334 49.025L31.2934 45.2769C31.661 44.9103 32.2551 44.9103 32.6226 45.2769C32.9901 45.6434 32.9901 46.2359 32.6226 46.6025L28.8626 50.3506C28.6793 50.5334 28.4387 50.6253 28.198 50.6253Z" fill="#808080"/>
<path d="M30.078 52.5002C29.8374 52.5002 29.5967 52.4083 29.4134 52.2255L27.5334 50.3505C27.1659 49.984 27.1659 49.3915 27.5334 49.0249C27.901 48.6584 28.4951 48.6584 28.8626 49.0249L30.7426 50.8999C31.1101 51.2665 31.1101 51.859 30.7426 52.2255C30.5593 52.4083 30.3187 52.5002 30.078 52.5002Z" fill="#808080"/>
<path d="M24.4394 60.0005C24.243 60.0005 24.0456 59.9396 23.8764 59.813C23.4609 59.5027 23.3763 58.9149 23.6884 58.5014L29.3284 51.0015C29.6405 50.5871 30.2289 50.5046 30.6434 50.814C31.0589 51.1243 31.1435 51.7121 30.8314 52.1256L25.1914 59.6255C25.0081 59.8711 24.7261 60.0005 24.4394 60.0005Z" fill="#808080"/>
<path d="M21.6194 60.0001C21.5057 60.0001 21.391 59.9804 21.2791 59.9363C20.795 59.7488 20.5553 59.206 20.7443 58.7232L27.3243 41.8484C27.5113 41.3646 28.0565 41.1255 28.5406 41.3149C29.0247 41.5024 29.2644 42.0452 29.0755 42.528L22.4955 59.4029C22.3507 59.7732 21.9954 60.0001 21.6194 60.0001Z" fill="#808080"/>
<path d="M34.7806 45.001H30.0806C29.5608 45.001 29.1406 44.5819 29.1406 44.0635C29.1406 43.545 29.5608 43.126 30.0806 43.126H34.7806C35.3004 43.126 35.7206 43.545 35.7206 44.0635C35.7206 44.5819 35.3004 45.001 34.7806 45.001Z" fill="#808080"/>
<path d="M18.696 52.4988C18.5738 52.4988 18.4497 52.4754 18.3304 52.4247C17.8519 52.2232 17.6282 51.6729 17.8303 51.1966L19.8146 46.511C20.0167 46.0339 20.5685 45.8117 21.046 46.0123C21.5245 46.2139 21.7482 46.7642 21.5461 47.2404L19.5618 51.926C19.4095 52.2841 19.0617 52.4988 18.696 52.4988Z" fill="#808080"/>
<path d="M24.5427 52.5004C24.1761 52.5004 23.8284 52.2857 23.677 51.9276L21.6936 47.2383C21.4915 46.7611 21.7151 46.2108 22.1936 46.0102C22.6711 45.8077 23.223 46.0317 23.4251 46.5089L25.4085 51.1982C25.6106 51.6754 25.3868 52.2257 24.9083 52.4264C24.7889 52.477 24.6649 52.5004 24.5427 52.5004Z" fill="#808080"/>
<path d="M22.5602 47.8135H20.6802C20.1604 47.8135 19.7402 47.3944 19.7402 46.876C19.7402 46.3575 20.1604 45.9385 20.6802 45.9385H22.5602C23.0801 45.9385 23.5002 46.3575 23.5002 46.876C23.5002 47.3944 23.0801 47.8135 22.5602 47.8135Z" fill="#808080"/>
<path d="M22.5588 47.8151C22.3435 47.8151 22.1264 47.742 21.9497 47.5911C21.5539 47.2564 21.5069 46.6639 21.8444 46.2702L23.7244 44.0689C24.06 43.6742 24.654 43.6274 25.0488 43.9639C25.4446 44.2986 25.4916 44.8911 25.1541 45.2849L23.2741 47.4861C23.088 47.7036 22.8239 47.8151 22.5588 47.8151Z" fill="#808080"/>
<path d="M20.6796 47.8137C20.4145 47.8137 20.1504 47.7022 19.9642 47.4838L18.0842 45.2825C17.7477 44.8888 17.7938 44.2963 18.1895 43.9616C18.5843 43.626 19.1784 43.6719 19.514 44.0666L21.394 46.2678C21.7305 46.6616 21.6844 47.2541 21.2887 47.5888C21.112 47.7406 20.8948 47.8137 20.6796 47.8137Z" fill="#808080"/>
<path d="M28.2016 40.3125H15.0416C14.5218 40.3125 14.1016 39.8934 14.1016 39.375C14.1016 38.8566 14.5218 38.4375 15.0416 38.4375H28.2016C28.7214 38.4375 29.1416 38.8566 29.1416 39.375C29.1416 39.8934 28.7214 40.3125 28.2016 40.3125Z" fill="#808080"/>
<path d="M17.8599 40.3124C17.3401 40.3124 16.9199 39.8934 16.9199 39.3749V30C16.9199 29.4816 17.3401 29.0625 17.8599 29.0625C18.3797 29.0625 18.7999 29.4816 18.7999 30V39.3749C18.7999 39.8934 18.3797 40.3124 17.8599 40.3124Z" fill="#808080"/>
<path d="M25.3795 40.3124C24.8597 40.3124 24.4395 39.8934 24.4395 39.3749V30C24.4395 29.4816 24.8597 29.0625 25.3795 29.0625C25.8993 29.0625 26.3195 29.4816 26.3195 30V39.3749C26.3195 39.8934 25.8993 40.3124 25.3795 40.3124Z" fill="#808080"/>
<path d="M46.0616 6.56433C45.5417 6.56433 45.1216 6.14527 45.1216 5.62683C45.1216 3.55779 43.4342 1.87499 41.3596 1.87499C39.286 1.87499 37.5988 3.55779 37.5988 5.62683C37.5988 6.14527 37.1785 6.56433 36.6587 6.56433C36.1389 6.56433 35.7188 6.14527 35.7188 5.62683C35.7188 2.52373 38.2492 0 41.3596 0C44.471 0 47.0015 2.52373 47.0015 5.62683C47.0015 6.14527 46.5814 6.56433 46.0616 6.56433Z" fill="#808080"/>
<path d="M41.3607 35.625C38.2502 35.625 35.7207 33.1022 35.7207 30C35.7207 29.4816 36.1409 29.0625 36.6607 29.0625C37.1805 29.0625 37.6007 29.4816 37.6007 30C37.6007 32.0681 39.2871 33.75 41.3607 33.75C43.4343 33.75 45.1207 32.0681 45.1207 30C45.1207 29.4816 45.5409 29.0625 46.0607 29.0625C46.5805 29.0625 47.0007 29.4816 47.0007 30C47.0007 33.1022 44.4712 35.625 41.3607 35.625Z" fill="#808080"/>
<path d="M36.6607 30.9373C36.1409 30.9373 35.7207 30.5182 35.7207 29.9998V5.62499C35.7207 5.10656 36.1409 4.6875 36.6607 4.6875C37.1805 4.6875 37.6007 5.10656 37.6007 5.62499V29.9998C37.6007 30.5182 37.1805 30.9373 36.6607 30.9373Z" fill="#808080"/>
<path d="M31.0181 6.56433C30.4983 6.56433 30.0781 6.14527 30.0781 5.62683C30.0781 2.52373 32.6086 0 35.719 0C36.2389 0 36.659 0.419059 36.659 0.937493C36.659 1.45593 36.2389 1.87499 35.719 1.87499C33.6454 1.87499 31.9581 3.55779 31.9581 5.62683C31.9581 6.14527 31.5379 6.56433 31.0181 6.56433Z" fill="#808080"/>
<path d="M35.722 35.625C32.6116 35.625 30.082 33.1022 30.082 30C30.082 29.4816 30.5022 29.0625 31.022 29.0625C31.5419 29.0625 31.962 29.4816 31.962 30C31.962 32.0681 33.6484 33.75 35.722 33.75C36.2419 33.75 36.662 34.169 36.662 34.6875C36.662 35.2059 36.2419 35.625 35.722 35.625Z" fill="#808080"/>
<path d="M31.022 30.9373C30.5022 30.9373 30.082 30.5182 30.082 29.9998V5.62499C30.082 5.10656 30.5022 4.6875 31.022 4.6875C31.5419 4.6875 31.962 5.10656 31.962 5.62499V29.9998C31.962 30.5182 31.5419 30.9373 31.022 30.9373Z" fill="#808080"/>
<path d="M46.0591 30.9373C45.5393 30.9373 45.1191 30.5182 45.1191 29.9998V5.62499C45.1191 5.10656 45.5393 4.6875 46.0591 4.6875C46.5789 4.6875 46.9991 5.10656 46.9991 5.62499V29.9998C46.9991 30.5182 46.5789 30.9373 46.0591 30.9373Z" fill="#808080"/>
<path d="M41.3612 35.625H35.7212C35.2014 35.625 34.7812 35.2059 34.7812 34.6875C34.7812 34.1691 35.2014 33.75 35.7212 33.75H41.3612C41.881 33.75 42.3013 34.1691 42.3013 34.6875C42.3013 35.2059 41.881 35.625 41.3612 35.625Z" fill="#808080"/>
<path d="M41.3593 1.87499H35.7212C35.2014 1.87499 34.7812 1.45593 34.7812 0.937493C34.7812 0.419059 35.2014 0 35.7212 0H41.3593C41.8791 0 42.2994 0.419059 42.2994 0.937493C42.2994 1.45593 41.8791 1.87499 41.3593 1.87499Z" fill="#808080"/>
<path d="M31.0192 6.56249H14.1002C13.5803 6.56249 13.1602 6.14343 13.1602 5.62499C13.1602 5.10656 13.5803 4.6875 14.1002 4.6875H31.0192C31.539 4.6875 31.9592 5.10656 31.9592 5.62499C31.9592 6.14343 31.539 6.56249 31.0192 6.56249Z" fill="#808080"/>
<path d="M31.0191 30.9375H14.0982C13.5784 30.9375 13.1582 30.5184 13.1582 30C13.1582 29.4816 13.5784 29.0625 14.0982 29.0625H31.0191C31.539 29.0625 31.9591 29.4816 31.9591 30C31.9591 30.5184 31.539 30.9375 31.0191 30.9375Z" fill="#808080"/>
<path d="M14.0995 30.9384C6.84367 30.9384 0.941406 25.0509 0.941406 17.8135C0.941406 10.5769 6.84367 4.69043 14.0995 4.69043C14.6194 4.69043 15.0395 5.10949 15.0395 5.62792C15.0395 6.14636 14.6194 6.56542 14.0995 6.56542C7.88049 6.56542 2.82141 11.611 2.82141 17.8135C2.82141 24.0168 7.88049 29.0634 14.0995 29.0634C14.6194 29.0634 15.0395 29.4824 15.0395 30.0009C15.0395 30.5193 14.6194 30.9384 14.0995 30.9384Z" fill="#808080"/>
<path d="M40.4205 20.625C39.9006 20.625 39.4805 20.2059 39.4805 19.6875C39.4805 19.169 39.9006 18.75 40.4205 18.75C40.9393 18.75 41.3605 18.33 41.3605 17.8125C41.3605 17.295 40.9393 16.875 40.4205 16.875C39.9006 16.875 39.4805 16.4559 39.4805 15.9375C39.4805 15.4191 39.9006 15 40.4205 15C41.9752 15 43.2405 16.2619 43.2405 17.8125C43.2405 19.3631 41.9752 20.625 40.4205 20.625Z" fill="#808080"/>
<path d="M40.4207 20.625H36.6607C36.1409 20.625 35.7207 20.2059 35.7207 19.6875C35.7207 19.1691 36.1409 18.75 36.6607 18.75H40.4207C40.9405 18.75 41.3607 19.1691 41.3607 19.6875C41.3607 20.2059 40.9405 20.625 40.4207 20.625Z" fill="#808080"/>
<path d="M40.4207 16.875H36.6607C36.1409 16.875 35.7207 16.4559 35.7207 15.9375C35.7207 15.4191 36.1409 15 36.6607 15H40.4207C40.9405 15 41.3607 15.4191 41.3607 15.9375C41.3607 16.4559 40.9405 16.875 40.4207 16.875Z" fill="#808080"/>
<path d="M8.46141 18.75H1.88141C1.36159 18.75 0.941406 18.3309 0.941406 17.8125C0.941406 17.2941 1.36159 16.875 1.88141 16.875H8.46141C8.98123 16.875 9.40141 17.2941 9.40141 17.8125C9.40141 18.3309 8.98123 18.75 8.46141 18.75Z" fill="#808080"/>
<path d="M8.46087 14.0625H2.84625C2.32643 14.0625 1.90625 13.6434 1.90625 13.125C1.90625 12.6066 2.32643 12.1875 2.84625 12.1875H8.46087C8.98069 12.1875 9.40087 12.6066 9.40087 13.125C9.40087 13.6434 8.98069 14.0625 8.46087 14.0625Z" fill="#808080"/>
<path d="M8.46071 23.4375H2.81695C2.29713 23.4375 1.87695 23.0184 1.87695 22.5C1.87695 21.9816 2.29713 21.5625 2.81695 21.5625H8.46071C8.98053 21.5625 9.40071 21.9816 9.40071 22.5C9.40071 23.0184 8.98053 23.4375 8.46071 23.4375Z" fill="#808080"/>
</g>
<defs>
<clipPath id="clip0_1702_2264">
<rect width="47" height="60" fill="white"/>
</clipPath>
</defs>
</svg>
