<svg width="60" height="60" viewBox="0 0 60 60" fill="none" xmlns="http://www.w3.org/2000/svg">
<g clip-path="url(#clip0_1702_2573)">
<path d="M53.9995 38.678V34C53.9995 31.243 51.7565 29 48.9995 29H46.4885C47.3725 28.044 48.1345 26.984 48.7695 25.834C49.1735 25.94 49.5845 26 49.9995 26C52.7565 26 54.9995 23.757 54.9995 21C54.9995 18.572 53.2575 16.547 50.9595 16.097C50.5695 7.446 44.6585 0.878 36.6475 0.0829999C36.1075 0.0279999 35.5575 0 34.9995 0C34.4385 0 33.8855 0.0279999 33.3425 0.0829999C25.3365 0.882 19.4295 7.449 19.0395 16.097C16.7415 16.547 14.9995 18.572 14.9995 21C14.9995 23.757 17.2425 26 19.9995 26C20.4145 26 20.8255 25.94 21.2295 25.834C21.8645 26.983 22.6265 28.043 23.5105 29H20.9995C18.2425 29 15.9995 31.243 15.9995 34V38.679C12.9735 40.059 10.8595 42.811 10.2215 46H0.999527C0.705527 46 0.426527 46.129 0.236527 46.354C0.0465271 46.579 -0.034473 46.875 0.013527 47.165L2.01353 59.165C2.09353 59.646 2.51053 60 2.99953 60H8.99953C9.48853 60 9.90553 59.646 9.98553 59.164L11.1945 51.908C12.2755 53.509 14.0045 54.632 15.9985 54.92V55C15.9985 57.757 18.2415 60 20.9985 60H48.9985C51.7555 60 53.9985 57.757 53.9985 55V54.92C57.3855 54.432 59.9985 51.519 59.9985 48C59.9995 43.988 57.6445 40.34 53.9995 38.678ZM8.15253 58H3.84653L2.18053 48H9.81953L8.15253 58ZM52.9995 21C52.9995 22.762 51.4315 24.189 49.6775 23.981C49.7555 23.787 49.8165 23.585 49.8875 23.387C49.9615 23.182 50.0385 22.98 50.1045 22.772C50.2635 22.275 50.4045 21.769 50.5215 21.255C50.5655 21.063 50.5975 20.867 50.6355 20.672C50.7205 20.235 50.7935 19.794 50.8475 19.349C50.8725 19.139 50.8915 18.928 50.9105 18.715C50.9265 18.529 50.9545 18.346 50.9655 18.159C52.1465 18.562 52.9995 19.684 52.9995 21ZM21.0505 15.838C21.0795 15.399 21.1265 14.967 21.1875 14.542C21.1955 14.487 21.2015 14.432 21.2095 14.377C21.2785 13.929 21.3635 13.489 21.4665 13.058C21.4725 13.034 21.4775 13.011 21.4825 12.987C22.7125 7.914 26.2525 4.039 30.9215 2.604C30.9775 2.587 31.0355 2.576 31.0915 2.559C31.4595 2.451 31.8325 2.353 32.2145 2.276C32.3835 2.242 32.5595 2.224 32.7315 2.196C33.0105 2.151 33.2875 2.1 33.5735 2.071C34.0405 2.026 34.5165 2 34.9995 2C35.4965 2 35.9865 2.025 36.4675 2.074C36.4835 2.076 36.4995 2.079 36.5155 2.081C41.7675 2.635 45.9855 6.05 47.8925 10.953C47.9155 11.014 47.9405 11.075 47.9635 11.137C48.0835 11.457 48.1865 11.788 48.2865 12.121C48.3415 12.308 48.3985 12.494 48.4475 12.685C48.5015 12.893 48.5455 13.106 48.5925 13.318C48.6585 13.627 48.7245 13.937 48.7735 14.255C48.7895 14.356 48.8005 14.46 48.8145 14.562C48.8715 14.976 48.9195 15.394 48.9475 15.821C48.9475 15.828 48.9475 15.834 48.9485 15.841C45.6495 16.509 41.4645 14.919 38.2715 11.727C37.2695 10.724 36.4065 9.599 35.7075 8.381C35.3515 7.76 34.3295 7.76 33.9735 8.381C33.2745 9.599 32.4115 10.724 31.4095 11.727C28.3465 14.789 24.2905 16.402 21.0485 15.902C21.0495 15.881 21.0495 15.86 21.0505 15.838ZM20.3215 23.981C18.5665 24.189 16.9995 22.762 16.9995 21C16.9995 19.684 17.8525 18.562 19.0345 18.159C19.0455 18.346 19.0735 18.529 19.0895 18.715C19.1085 18.927 19.1275 19.139 19.1525 19.349C19.2065 19.794 19.2795 20.235 19.3645 20.672C19.4025 20.867 19.4345 21.063 19.4785 21.255C19.5955 21.769 19.7365 22.275 19.8955 22.772C19.9625 22.98 20.0385 23.183 20.1125 23.387C20.1835 23.585 20.2445 23.788 20.3215 23.981ZM22.5105 23.978C22.3575 23.649 22.2245 23.308 22.0945 22.966C22.0195 22.771 21.9375 22.581 21.8705 22.383C21.7265 21.953 21.6085 21.511 21.4995 21.066C21.4675 20.934 21.4245 20.807 21.3955 20.674C21.2845 20.168 21.2055 19.652 21.1415 19.132C21.1305 19.041 21.1095 18.954 21.0995 18.863C21.0655 18.55 21.0645 18.231 21.0485 17.915C24.8815 18.383 29.3605 16.604 32.8225 13.141C33.5655 12.398 34.2405 11.594 34.8395 10.741C35.4385 11.595 36.1135 12.398 36.8575 13.141C39.9725 16.256 43.8475 17.997 47.3675 17.997C47.9055 17.997 48.4345 17.953 48.9525 17.87C48.9355 18.201 48.9335 18.534 48.8985 18.862C48.8885 18.953 48.8685 19.04 48.8565 19.131C48.7925 19.651 48.7135 20.167 48.6025 20.673C48.5735 20.806 48.5305 20.933 48.4985 21.065C48.3895 21.51 48.2715 21.952 48.1275 22.382C48.0605 22.581 47.9775 22.771 47.9035 22.965C47.7735 23.307 47.6405 23.648 47.4875 23.977C46.5725 25.935 45.2685 27.653 43.6115 28.999H26.3865C24.7305 27.654 23.4255 25.937 22.5105 23.978ZM11.9995 48C11.9995 45.086 13.5415 42.407 15.9995 40.929V52.9C13.7205 52.435 11.9995 50.415 11.9995 48ZM51.9995 55C51.9995 56.654 50.6535 58 48.9995 58H20.9995C19.3455 58 17.9995 56.654 17.9995 55V54V39.32V34C17.9995 32.346 19.3455 31 20.9995 31H48.9995C50.6535 31 51.9995 32.346 51.9995 34V39.32V54V55ZM53.9995 52.899V40.929C56.4575 42.408 57.9995 45.086 57.9995 48C57.9995 50.415 56.2785 52.435 53.9995 52.899Z" fill="#006666"/>
<path d="M29 20C27.346 20 26 21.346 26 23H28C28 22.448 28.449 22 29 22C29.551 22 30 22.448 30 23H32C32 21.346 30.654 20 29 20Z" fill="#006666"/>
<path d="M41 20C39.346 20 38 21.346 38 23H40C40 22.448 40.449 22 41 22C41.551 22 42 22.448 42 23H44C44 21.346 42.654 20 41 20Z" fill="#006666"/>
<path d="M1 14H9.764L13.553 15.895C13.694 15.965 13.847 16 14 16C14.183 16 14.365 15.95 14.526 15.851C14.82 15.668 15 15.347 15 15V13H16C16.552 13 17 12.553 17 12V1C17 0.447 16.552 0 16 0H1C0.448 0 0 0.447 0 1V13C0 13.553 0.448 14 1 14ZM2 2H15V11H14C13.448 11 13 11.447 13 12V13.382L10.447 12.106C10.309 12.036 10.155 12 10 12H2V2Z" fill="#006666"/>
<path d="M6 4H4V6H6V4Z" fill="#006666"/>
<path d="M13 4H8V6H13V4Z" fill="#006666"/>
<path d="M13 8H4V10H13V8Z" fill="#006666"/>
<path d="M45.646 36.5513C45.32 36.4873 44.992 36.5953 44.759 36.8273L41.5 40.0863L39.914 38.5003L43.173 35.2413C43.405 35.0093 43.508 34.6783 43.45 34.3543C43.391 34.0313 43.177 33.7573 42.878 33.6233C41.479 32.9903 39.938 32.8353 38.427 33.1773C35.823 33.7623 33.762 35.8233 33.177 38.4263C32.889 39.7063 32.955 41.0053 33.365 42.2223L25.914 49.6723C25.333 50.2533 25 51.0573 25 51.8793C25 53.6003 26.4 55.0003 28.121 55.0003C28.955 55.0003 29.739 54.6763 30.328 54.0863L37.779 46.6363C38.997 47.0463 40.296 47.1143 41.573 46.8243C44.177 46.2393 46.238 44.1783 46.823 41.5753C47.163 40.0613 47.009 38.5223 46.377 37.1233C46.242 36.8233 45.968 36.6093 45.646 36.5513ZM44.872 41.1353C44.462 42.9603 42.96 44.4623 41.134 44.8723C40.048 45.1173 38.946 45.0073 37.946 44.5553C37.566 44.3833 37.121 44.4663 36.827 44.7593L28.914 52.6723C28.702 52.8843 28.421 53.0003 28.121 53.0003C27.503 53.0003 27 52.4973 27 51.8793C27 51.5843 27.12 51.2953 27.328 51.0863L35.241 43.1733C35.535 42.8793 35.616 42.4333 35.445 42.0543C34.993 41.0543 34.883 39.9513 35.128 38.8663C35.538 37.0413 37.04 35.5393 38.866 35.1293C39.242 35.0443 39.621 35.0023 39.997 35.0023C40.184 35.0023 40.37 35.0133 40.554 35.0333L37.793 37.7943C37.402 38.1853 37.402 38.8173 37.793 39.2083L40.793 42.2083C41.184 42.5993 41.816 42.5993 42.207 42.2083L44.968 39.4473C45.03 40.0033 44.999 40.5713 44.872 41.1353Z" fill="#006666"/>
</g>
<defs>
<clipPath id="clip0_1702_2573">
<rect width="60" height="60" fill="white"/>
</clipPath>
</defs>
</svg>
