<svg width="99" height="67" viewBox="0 0 99 67" fill="none" xmlns="http://www.w3.org/2000/svg">
<g clip-path="url(#clip0_1702_2571)">
<path fill-rule="evenodd" clip-rule="evenodd" d="M15.4863 43.3881H5.72113C5.27477 43.3881 4.87348 43.1124 4.71682 42.6939C4.55266 42.2593 4.47326 41.8591 4.47326 41.4675C4.47326 40.8816 4.62669 40.3162 4.90996 39.7904C4.80802 39.6692 4.72219 39.534 4.68141 39.373C4.54193 38.829 4.47433 38.3333 4.47433 37.8601C4.47433 37.6198 4.4915 37.3837 4.51832 37.1509H1.07298C0.479622 37.1509 0 36.6712 0 36.0779C0 35.4845 0.479622 35.0049 1.07298 35.0049H5.18464C5.96041 33.5381 7.31343 32.4265 8.939 31.9662C9.80597 30.4394 13.0453 25.4082 19.5626 22.4199C19.6581 22.377 19.7557 22.3673 19.8534 22.3523V13.1279C19.8534 12.5346 20.333 12.0549 20.9263 12.0549H26.8288C26.8224 11.8918 26.8106 11.7277 26.8106 11.5657C26.8106 5.18893 31.9995 0 38.3762 0C42.5008 0 46.1167 2.17708 48.165 5.43572C48.1682 5.43894 48.1725 5.44108 48.1747 5.4443C48.18 5.45181 48.18 5.46147 48.1854 5.46898C49.2906 7.24154 49.9408 9.32742 49.9408 11.5657C49.9408 11.7277 49.9301 11.8918 49.9226 12.0549H55.8261C56.4194 12.0549 56.8991 12.5346 56.8991 13.1279V22.3394C57.0139 22.3502 57.1308 22.3673 57.2424 22.4178C58.2821 22.8845 59.2918 23.4832 60.2285 24.1667V13.7599C60.2307 13.7234 60.2307 13.6859 60.236 13.6494C60.2446 13.5753 60.2629 13.5024 60.2886 13.4316C60.3959 13.1472 60.6416 12.9198 60.9474 12.82C61.0236 12.7953 61.1019 12.7792 61.1813 12.7706C61.221 12.7663 61.2618 12.7663 61.3015 12.7642H95.9266C95.9674 12.7663 96.0071 12.7685 96.0468 12.7706C96.0865 12.7771 96.1262 12.7813 96.1659 12.7899C96.2442 12.806 96.3204 12.8307 96.3923 12.8629C96.6466 12.9766 96.8461 13.1837 96.9395 13.4316C96.9663 13.5024 96.9845 13.5753 96.9931 13.6494C96.9974 13.6859 96.9974 13.7234 96.9996 13.7599V39.7979C96.9974 39.8355 96.9974 39.873 96.9931 39.9095C96.9845 39.9835 96.9663 40.0565 96.9395 40.1273C96.8322 40.4106 96.5865 40.6391 96.2817 40.7378C96.2056 40.7625 96.1272 40.7797 96.0468 40.7883C96.0071 40.7926 95.9674 40.7926 95.9266 40.7936H85.5466L85.8255 45.7229C85.8277 45.8409 85.8202 45.9547 85.7891 46.0695C85.6946 46.4096 85.4318 46.6875 85.0981 46.8002C84.9854 46.8388 84.8727 46.8517 84.7547 46.857H82.0186C82.0444 47.1983 82.0669 47.5395 82.0841 47.8807C82.1216 48.6028 82.1399 49.326 82.1366 50.0502C82.1356 50.2509 82.1334 50.4515 82.1291 50.6522H97.3955C97.9888 50.6522 98.4685 51.1318 98.4685 51.7252C98.4685 52.3185 97.9888 52.7981 97.3955 52.7981H82.0132C81.775 55.5471 81.1731 58.2693 80.0529 60.7951C79.8447 61.265 79.6194 61.7264 79.3759 62.1781C79.0465 62.7897 78.6838 63.3831 78.2889 63.955C77.643 64.8928 76.9091 65.7619 76.1054 66.5677L75.9777 66.6932C75.9026 66.7587 75.8865 66.7791 75.8018 66.8327C75.6118 66.954 75.3854 67.0119 75.1601 66.998C75.0475 66.9915 74.9369 66.9668 74.8318 66.9261C74.7277 66.8842 74.6301 66.8263 74.5432 66.7555C74.2191 66.4883 74.0796 66.0441 74.1923 65.6406C74.232 65.4958 74.3028 65.3606 74.3983 65.2447C74.4219 65.2157 74.4487 65.19 74.4745 65.1621C74.5914 65.0473 74.7073 64.9303 74.8221 64.8134C75.4788 64.1288 76.0786 63.3949 76.6097 62.6095C76.9262 62.1417 77.2181 61.6567 77.4863 61.1599C78.8737 58.5836 79.5872 55.7006 79.8587 52.7981H36.2421C35.2131 55.6748 35.2828 58.3186 38.5071 60.8541C38.9739 61.221 39.0533 61.8949 38.6874 62.3605C38.476 62.6299 38.1616 62.7704 37.8429 62.7704C37.6112 62.7704 37.3783 62.6953 37.1809 62.5408C33.2109 59.4163 32.9941 56.0621 33.9931 52.7981H3.84556C3.2522 52.7981 2.77258 52.3185 2.77258 51.7252C2.77258 51.1318 3.2522 50.6522 3.84556 50.6522H34.8053C35.256 49.6318 35.7699 48.6264 36.2742 47.6489C36.3333 47.5362 36.3901 47.4247 36.4481 47.312H31.9941C31.698 47.312 31.4158 47.1907 31.213 46.9761C31.0102 46.7616 30.904 46.4718 30.9222 46.1768L31.0091 44.6789H25.156C24.5627 44.6789 24.083 44.1993 24.083 43.6059V41.3784H20.9263C20.333 41.3784 19.8534 40.8988 19.8534 40.3054V37.1509H16.6891C16.716 37.3837 16.7331 37.6198 16.7331 37.8601C16.7331 38.3333 16.6655 38.829 16.526 39.373C16.4853 39.5329 16.3994 39.6692 16.2975 39.7893C16.5818 40.3151 16.7342 40.8805 16.7342 41.4675C16.7342 41.8602 16.6537 42.2604 16.4906 42.6939C16.3329 43.1113 15.9327 43.3881 15.4863 43.3881ZM60.2285 39.3269C59.0869 39.7936 57.9195 40.0715 56.898 40.2067V40.3054C56.898 40.8988 56.4184 41.3784 55.825 41.3784H52.3357V43.6059C52.3357 44.1993 51.8561 44.6789 51.2627 44.6789H45.7401L45.8152 45.9633C45.8388 46.0512 45.8506 46.1435 45.8506 46.239C45.8506 46.8324 45.371 47.312 44.7776 47.312C44.7733 47.3131 44.7647 47.3131 44.7562 47.312H38.8515C38.6284 47.7573 38.402 48.1983 38.1777 48.6328C37.8236 49.3206 37.4792 49.9923 37.1616 50.6522H79.9821C79.9842 50.547 79.9864 50.4408 79.9875 50.3357C79.9971 49.6511 79.9853 48.9655 79.9553 48.2809C79.9338 47.8056 79.9038 47.3313 79.8662 46.857H72.4744C72.3564 46.8517 72.2438 46.8388 72.1311 46.8002C71.7963 46.6875 71.5334 46.4096 71.4401 46.0695C71.4079 45.9547 71.4004 45.8409 71.4025 45.7229L71.6815 40.7936H61.3015C61.2618 40.7926 61.221 40.7926 61.1813 40.7883C61.1019 40.7797 61.0236 40.7625 60.9474 40.7378C60.6416 40.6391 60.3959 40.4106 60.2886 40.1273C60.2629 40.0565 60.2446 39.9835 60.236 39.9095C60.2307 39.873 60.2307 39.8355 60.2285 39.7979V39.3269ZM43.6209 45.166L43.4697 42.5759L43.3409 40.3677V40.3666L42.6724 28.8782H34.0768L33.4083 40.3666V40.3677L33.2796 42.5759L33.1283 45.166H37.5082C38.3472 43.3548 38.9052 41.6595 38.7217 40.0544C38.6058 40.0662 38.4932 40.0898 38.3741 40.0898C36.4642 40.0898 34.9094 38.535 34.9094 36.6251C34.9094 34.7141 36.4642 33.1594 38.3741 33.1594C40.285 33.1594 41.8398 34.7141 41.8398 36.6251C41.8398 37.6123 41.4203 38.4985 40.755 39.1305C41.1735 41.1424 40.6595 43.1842 39.8408 45.166V45.1671V45.166H43.6209ZM82.6678 27.8921H74.5614L73.6097 44.7111H79.6355C79.5218 43.8602 79.3844 43.0126 79.2235 42.1692C79.0432 41.2207 78.834 40.2775 78.5958 39.3419C78.1237 39.3397 77.6526 39.2443 77.2181 39.0597C76.8189 38.8912 76.4531 38.6498 76.1398 38.3515C75.8275 38.0532 75.5689 37.6992 75.3812 37.3107C75.2277 36.9921 75.1215 36.6498 75.0678 36.3C75.0131 35.9395 75.0131 35.5704 75.0678 35.2098C75.1215 34.8601 75.2277 34.5188 75.3812 34.1991C75.7202 33.4984 76.2878 32.9158 76.981 32.5607C77.3222 32.3868 77.6902 32.2667 78.069 32.2087C78.2192 32.1862 78.3705 32.1744 78.5218 32.169C78.6151 32.1679 78.614 32.1679 78.7063 32.169C78.8587 32.1744 79.0089 32.1862 79.1591 32.2087C79.5379 32.2667 79.907 32.3868 80.2482 32.5607C80.9671 32.9298 81.5508 33.5424 81.8834 34.2785C82.0175 34.5746 82.1109 34.889 82.1602 35.2098C82.215 35.5704 82.215 35.9395 82.1602 36.3C82.1066 36.6498 82.0004 36.9921 81.8469 37.3107C81.6592 37.6992 81.4016 38.0532 81.0894 38.3515C80.9521 38.4814 80.8051 38.6015 80.6495 38.7088C80.8684 39.5619 81.0637 40.4213 81.2375 41.2851C81.465 42.4192 81.6538 43.563 81.7997 44.7111H83.6195L82.6678 27.8921ZM50.1897 42.534V41.3795H45.5491L45.6156 42.534H50.1897ZM26.2279 41.3784V42.5329H31.1325L31.199 41.3784H26.2279ZM14.5657 41.2432C14.4842 40.7936 14.1719 40.4288 13.8887 40.181H7.31558C7.03231 40.4288 6.72008 40.7947 6.63853 41.2432H14.5657ZM54.7542 39.2324V14.2009H21.9982V39.2324H31.3257L31.9941 27.743C32.0188 27.317 32.2892 26.9618 32.6626 26.8106C32.7871 26.7601 32.9233 26.7322 33.065 26.7322H43.6842C43.8259 26.7322 43.9622 26.7601 44.0866 26.8106C44.46 26.9618 44.7304 27.3181 44.7551 27.743L45.4235 39.2324H54.7542ZM85.4371 38.8548L94.8536 38.8022V14.7567H62.3745C62.3745 22.7719 62.3745 30.787 62.3745 38.8022L71.791 38.8548L72.4755 26.758C72.4873 26.6432 72.5066 26.5337 72.5485 26.4254C72.6644 26.1314 72.9101 25.8985 73.2105 25.7998C73.321 25.7633 73.4315 25.7505 73.5474 25.7462C76.9541 25.7462 80.363 25.6131 83.7665 25.7494C83.8813 25.7633 83.9907 25.7848 84.098 25.8299C84.362 25.9414 84.5744 26.1582 84.6796 26.4254C84.7225 26.5337 84.7418 26.6432 84.7526 26.758L85.4371 38.8548ZM14.5797 38.0339C14.5829 37.9749 14.585 37.918 14.585 37.8601C14.585 35.6637 12.7985 33.8761 10.6021 33.8761C8.4068 33.8761 6.61922 35.6637 6.61814 37.8601C6.61814 37.918 6.62029 37.9749 6.62351 38.0339H14.5797ZM60.2285 26.9425C59.2714 26.0756 58.1427 25.2644 56.8969 24.6356V29.5016L57.4002 29.3793C57.9806 29.2376 58.5568 29.5917 58.6974 30.1668C58.8379 30.743 58.4849 31.3235 57.9098 31.4641L56.898 31.7109V38.0296C57.7757 37.888 59.0418 37.5929 60.2285 36.9846V26.9425ZM39.6917 36.6326C39.5404 36.4041 39.3795 36.1755 39.196 35.9481C38.8215 35.4877 38.1455 35.4191 37.6863 35.7914C37.226 36.1659 37.1573 36.8419 37.5296 37.3011C37.6788 37.4846 37.8108 37.668 37.9299 37.8537C37.4223 37.6702 37.0543 37.1938 37.0543 36.624C37.0543 35.8955 37.6466 35.3043 38.373 35.3043C39.1015 35.3043 39.6928 35.8966 39.6928 36.624C39.6938 36.6273 39.6917 36.6294 39.6917 36.6326ZM79.9542 36.2871C79.9939 36.1873 80.0229 36.0822 80.039 35.976C80.0647 35.8064 80.0604 35.6315 80.0261 35.4641C79.9413 35.051 79.6699 34.6884 79.2997 34.4877C79.1108 34.3847 78.9037 34.3289 78.6892 34.3161C78.6516 34.3139 78.614 34.3139 78.5765 34.3139C78.3608 34.3225 78.1516 34.3729 77.9595 34.4706C77.5743 34.6691 77.2889 35.0392 77.202 35.4641C77.1677 35.6315 77.1634 35.8064 77.1902 35.976C77.2117 36.1154 77.2535 36.2517 77.3147 36.3783C77.3908 36.535 77.4949 36.6777 77.6205 36.7979C77.716 36.8891 77.8233 36.9663 77.9391 37.0285C77.8619 36.7861 77.7825 36.5446 77.6966 36.3054L77.6645 36.197C77.643 36.0843 77.629 35.9781 77.6376 35.8622C77.6666 35.4845 77.9005 35.1412 78.2428 34.977C78.3447 34.9287 78.4531 34.8955 78.5647 34.8804C78.6022 34.8762 78.6387 34.8751 78.6763 34.8719C78.7138 34.8729 78.7514 34.8729 78.7889 34.874C78.8877 34.8869 78.9134 34.8869 79.01 34.9148C79.2256 34.9781 79.4188 35.1101 79.5572 35.2892C79.6269 35.3805 79.6741 35.4781 79.7181 35.5832C79.7793 35.756 79.8372 35.9298 79.8952 36.1036C79.9145 36.1648 79.9349 36.226 79.9542 36.2871ZM19.8512 35.0049V24.6732C15.5518 26.8138 12.8822 29.9501 11.5817 31.816C13.5099 32.1283 15.1398 33.3364 16.0217 35.0049H19.8512ZM38.7442 17.011C36.8333 17.011 35.2785 18.5658 35.2785 20.4768C35.2785 22.3877 36.8333 23.9425 38.7442 23.9425C40.6542 23.9425 42.2089 22.3877 42.2089 20.4768C42.2089 18.5658 40.6552 17.011 38.7442 17.011ZM78.7063 16.6741C78.8587 16.6806 79.0089 16.6913 79.1591 16.7149C79.5379 16.7728 79.907 16.8919 80.2482 17.0668C80.9671 17.4349 81.5508 18.0475 81.8834 18.7836C82.0175 19.0797 82.1109 19.3941 82.1602 19.716C82.215 20.0765 82.215 20.4446 82.1602 20.8051C82.1066 21.156 82.0004 21.4972 81.8469 21.8158C81.6592 22.2053 81.4016 22.5594 81.0894 22.8566C80.7761 23.1549 80.4091 23.3963 80.0111 23.5648C79.5701 23.7515 79.0926 23.8481 78.614 23.8481C78.1355 23.8481 77.658 23.7515 77.2181 23.5648C76.8189 23.3963 76.4531 23.1549 76.1398 22.8566C75.8275 22.5594 75.5689 22.2053 75.3812 21.8158C75.2277 21.4972 75.1215 21.156 75.0678 20.8051C75.0131 20.4446 75.0131 20.0765 75.0678 19.716C75.1215 19.3651 75.2277 19.0239 75.3812 18.7053C75.7202 18.0035 76.2878 17.422 76.981 17.0668C77.3222 16.8919 77.6902 16.7728 78.069 16.7149C78.2192 16.6913 78.3705 16.6806 78.5218 16.6741C78.6151 16.673 78.614 16.673 78.7063 16.6741ZM38.7442 21.7965C38.0157 21.7965 37.4245 21.2042 37.4245 20.4768C37.4245 19.7493 38.0168 19.157 38.7442 19.157C39.4717 19.157 40.0629 19.7493 40.0629 20.4768C40.0629 21.2042 39.4717 21.7965 38.7442 21.7965ZM78.5765 18.8201C78.3608 18.8276 78.1516 18.878 77.9595 18.9767C77.5625 19.1795 77.2739 19.5658 77.1956 20.0046C77.1655 20.1731 77.1655 20.348 77.1956 20.5165C77.2202 20.6549 77.2664 20.7901 77.3308 20.9156C77.4091 21.0701 77.5175 21.2107 77.6462 21.3276C77.775 21.4446 77.9241 21.5379 78.0861 21.6023C78.2664 21.6731 78.4595 21.7064 78.6516 21.701C78.8426 21.6967 79.0325 21.6538 79.2063 21.5744C79.6119 21.392 79.9188 21.0197 80.0186 20.5862C80.0572 20.4199 80.0658 20.2461 80.0443 20.0755C80.0261 19.9349 79.9875 19.7976 79.9284 19.6688C79.8566 19.51 79.7557 19.3651 79.6334 19.2418C79.51 19.1184 79.3651 19.0175 79.2063 18.9467C79.0078 18.8566 78.7943 18.8169 78.5765 18.8201ZM44.4783 12.056C43.1885 11.3875 42.2765 10.7899 41.7733 10.4283C40.7336 10.9401 39.5608 11.4873 38.255 12.056H44.4783ZM32.4974 12.0549C39.5511 9.44544 44.0061 6.88639 45.7862 5.77371C44.0609 3.5698 41.3838 2.14596 38.3741 2.14596C33.1798 2.14596 28.9544 6.37136 28.9544 11.5657C28.9544 11.7287 28.9587 11.8908 28.9662 12.0549H32.4974ZM47.7755 11.2062C46.1049 10.5377 44.8345 9.83815 43.9686 9.30166C45.2701 8.60315 46.2508 8.01838 46.9096 7.60636C47.4225 8.70831 47.7262 9.924 47.7755 11.2062Z" fill="#006666"/>
</g>
<defs>
<clipPath id="clip0_1702_2571">
<rect width="99" height="67" fill="white"/>
</clipPath>
</defs>
</svg>
