<svg width="51" height="60" viewBox="0 0 51 60" fill="none" xmlns="http://www.w3.org/2000/svg">
<g clip-path="url(#clip0_1702_2314)">
<path d="M50.621 42.4556C50.3265 40.7108 49.0504 36.0582 43.0622 34.2165C39.6263 33.0533 35.2088 32.4717 35.2088 32.4717C33.7363 32.2779 32.5583 31.1147 32.2638 29.6607C33.4418 28.4976 34.5216 27.0436 35.4051 25.4927C39.8226 23.651 42.1786 20.1616 42.1786 15.5089C42.1786 6.979 34.7179 0 25.4902 0C16.2625 0 8.80181 6.979 8.80181 15.5089C8.80181 20.2585 11.1578 23.748 15.6735 25.5897C16.4588 27.0436 17.5387 28.4006 18.6185 29.5638C18.4222 31.1147 17.2442 32.3748 15.6735 32.5687C12.2377 32.9564 7.9183 34.3134 7.9183 34.3134C3.99162 35.4766 1.24293 38.6753 0.457596 42.6494C-1.01491 49.6284 1.53743 56.6074 1.53743 56.6074C1.53743 56.6074 12.6303 60 25.4902 60C39.6263 60 49.5412 56.6074 49.5412 56.6074C49.5412 56.6074 51.8972 49.4346 50.621 42.4556ZM14.79 16.0905C19.2075 14.4426 22.9379 11.4378 25.5884 7.56058C28.2389 11.4378 31.9693 14.4426 36.3868 16.0905C36.0923 22.1002 31.2821 30.9208 25.5884 30.9208C19.8947 30.9208 15.0845 22.1002 14.79 16.0905ZM10.7652 15.412C10.7652 7.9483 17.3424 1.84168 25.4902 1.84168C33.6381 1.84168 40.2153 7.9483 40.2153 15.412C40.2153 18.5137 39.0373 20.937 36.7795 22.4879C38.3501 18.5137 38.252 14.7334 38.252 14.7334C28.8279 11.7286 25.4902 3.78029 25.4902 3.78029C25.4902 3.78029 22.2507 11.7286 12.7285 14.7334C12.7285 14.7334 12.5322 18.6107 14.201 22.4879C11.9432 20.937 10.7652 18.6107 10.7652 15.412ZM15.8698 34.4103C17.9314 34.1195 19.502 32.7625 20.1892 31.0178C21.7599 32.1809 23.5269 32.9564 25.4902 32.9564C27.3554 32.9564 29.1224 32.2779 30.5949 31.1147C31.2821 32.8595 32.9509 34.1195 34.9143 34.4103C34.9143 34.4103 38.1538 34.9919 39.43 35.2827C38.0556 36.1551 36.8776 37.3183 35.7978 38.5784C32.8528 39.9354 29.2206 40.6139 25.4902 40.6139C21.6617 40.6139 18.0295 39.9354 15.0845 38.5784C14.0047 37.2213 12.8267 36.1551 11.4523 35.2827C12.7285 34.895 15.8698 34.4103 15.8698 34.4103ZM2.32277 42.7464C2.71544 38.0937 8.60547 35.9612 8.60547 35.9612C13.9065 38.1906 17.6369 44.8788 17.6369 52.2456C17.6369 54.0872 17.4405 55.9289 16.9497 57.5767C12.2377 57.0921 7.6238 56.2197 3.10811 54.9596C3.10811 55.0565 1.73377 51.0824 2.32277 42.7464ZM19.0112 57.7706C19.4039 56.0259 19.6984 54.1842 19.6984 52.2456C19.6984 48.1745 18.7167 44.3942 17.0478 41.2924C19.6984 42.0679 22.6434 42.5525 25.6866 42.5525C28.7297 42.5525 31.5766 42.1648 34.2271 41.2924C32.5583 44.3942 31.5766 48.1745 31.5766 52.2456C31.5766 54.0872 31.7729 56.0259 32.2638 57.7706C27.7481 58.1583 23.2324 58.1583 19.0112 57.7706ZM47.8723 55.0565C43.3567 56.3166 38.6446 57.189 34.0308 57.6737C33.6381 55.9289 33.3436 54.1842 33.3436 52.3425C33.3436 44.9758 36.9758 38.3845 42.2768 36.0582C44.0438 36.4459 47.7742 38.0937 48.6577 42.8433C49.9339 48.853 47.8723 55.0565 47.8723 55.0565Z" fill="#808080"/>
<path d="M26.5697 19.9678C26.8642 21.8095 28.533 23.1666 30.3982 23.1666C32.5579 23.1666 34.3249 21.4218 34.3249 19.2893C34.3249 17.1569 32.5579 15.4121 30.3982 15.4121C28.7294 15.4121 27.2569 16.4783 26.6679 18.0292C25.8825 17.8354 24.999 17.8354 24.2137 18.0292C23.7228 16.4783 22.2503 15.4121 20.4833 15.4121C18.3237 15.4121 16.5566 17.1569 16.5566 19.2893C16.5566 21.4218 18.3237 23.1666 20.4833 23.1666C22.4467 23.1666 24.0173 21.8095 24.3118 19.9678C25.0972 19.774 25.8825 19.774 26.5697 19.9678ZM30.3982 17.3507C31.4781 17.3507 32.3616 18.2231 32.3616 19.2893C32.3616 20.3556 31.4781 21.2279 30.3982 21.2279C29.3184 21.2279 28.4349 20.3556 28.4349 19.2893C28.4349 18.2231 29.3184 17.3507 30.3982 17.3507ZM20.5815 21.2279C19.5017 21.2279 18.6182 20.3556 18.6182 19.2893C18.6182 18.2231 19.5017 17.3507 20.5815 17.3507C21.6613 17.3507 22.5448 18.2231 22.5448 19.2893C22.5448 20.3556 21.6613 21.2279 20.5815 21.2279Z" fill="#808080"/>
</g>
<defs>
<clipPath id="clip0_1702_2314">
<rect width="51" height="60" fill="white"/>
</clipPath>
</defs>
</svg>
