<svg width="390" height="120" viewBox="0 0 390 120" fill="none" xmlns="http://www.w3.org/2000/svg">
<path d="M19.8436 84.1177V43.9206H0V35.6919H49.1176V43.9206H29.2739V84.1177H19.8436Z" fill="black"/>
<path d="M82.4695 84.8094C64.2643 84.8094 56.7274 78.0371 56.7274 62.1257V57.7565C56.7274 41.7723 64.2643 35 82.4695 35H86.5474C104.753 35 112.362 41.7723 112.362 57.7565V62.1257C112.362 78.0371 104.753 84.8094 86.5474 84.8094H82.4695V84.8094ZM102.75 61.0698V58.7031C102.75 48.1806 99.7644 43.1195 85.7828 43.0831H83.3069C69.2525 43.1559 66.3033 48.217 66.3033 58.7031V61.0698C66.3033 71.5924 69.2889 76.6535 83.3069 76.6899H85.7828C99.7644 76.6535 102.75 71.5924 102.75 61.0698Z" fill="black"/>
<path d="M175.571 84.1177L161.808 47.0519L147.972 84.1177H134.828L120.154 35.6919H130.422L141.746 74.5782H142.255L156.565 35.6919H167.342L181.724 74.5782H182.161L193.448 35.6919H202.915L188.242 84.1177H175.571Z" fill="black"/>
<path d="M253.635 84.1177L247.773 71.8838H219.336L213.438 84.1177H203.133L226.436 35.6919H240.745L264.121 84.1177H253.635ZM223.123 63.9099H243.949L233.791 42.6827H233.39L223.123 63.9099Z" fill="black"/>
<path d="M273.915 84.1177V35.6919H306.357C318.955 35.6919 323.725 39.1509 323.725 48.0714V49.8555C323.725 57.1012 320.957 60.1597 315.022 60.8515V61.2156C320.848 62.1258 323.725 63.9827 323.725 72.2115V84.1177H314.331V73.413C314.331 67.2597 312.328 65.8033 303.48 65.8033H283.273V84.1177H273.915ZM283.273 57.8294H304.718C312.037 57.8294 314.331 56.1545 314.331 50.9842V50.5837C314.331 45.195 311.891 43.6658 303.335 43.6658H283.273V57.8294V57.8294Z" fill="black"/>
<path d="M364.213 84.1177H337.451V35.6919H364.104C382.382 35.6919 389.7 42.4642 389.7 58.4484V61.434C389.664 77.3453 382.454 84.1177 364.213 84.1177ZM346.772 76.1802H362.829C376.884 76.1802 380.124 70.9735 380.124 60.4874V59.4679C380.124 48.8724 376.957 43.7022 362.829 43.7022H346.772V76.1802Z" fill="black"/>
</svg>
