<svg width="180" height="55" viewBox="0 0 180 55" fill="none" xmlns="http://www.w3.org/2000/svg">
<g clip-path="url(#clip0_1534_2209)">
<path d="M9.45826 38.554V20.1304H0.363281V16.3589H22.8755V20.1304H13.7805V38.554H9.45826Z" fill="black"/>
<path d="M38.1617 38.8711C29.8177 38.8711 26.3633 35.7671 26.3633 28.4744V26.4718C26.3633 19.1457 29.8177 16.0417 38.1617 16.0417H40.0308C48.375 16.0417 51.8625 19.1457 51.8625 26.4718V28.4744C51.8625 35.7671 48.375 38.8711 40.0308 38.8711H38.1617ZM47.457 27.9904V26.9057C47.457 22.0829 46.0886 19.7632 39.6803 19.7465H38.5456C32.104 19.7799 30.7522 22.0995 30.7522 26.9057V27.9904C30.7522 32.8133 32.1206 35.1329 38.5456 35.1496H39.6803C46.0886 35.1329 47.457 32.8133 47.457 27.9904Z" fill="black"/>
<path d="M80.8331 38.554L74.525 21.5656L68.1835 38.554H62.1592L55.4336 16.3589H60.1398L65.3299 34.1818H65.5632L72.122 16.3589H77.0614L83.6532 34.1818H83.8535L89.0267 16.3589H93.3657L86.6406 38.554H80.8331Z" fill="black"/>
<path d="M116.612 38.554L113.925 32.9468H100.891L98.188 38.554H93.4648L104.145 16.3589H110.704L121.418 38.554H116.612ZM102.627 29.2921H112.172L107.516 19.563H107.333L102.627 29.2921Z" fill="black"/>
<path d="M125.906 38.554V16.3589H140.775C146.55 16.3589 148.736 17.9443 148.736 22.0328V22.8505C148.736 26.1715 147.467 27.5733 144.747 27.8904V28.0572C147.417 28.4744 148.736 29.3255 148.736 33.097V38.554H144.43V33.6477C144.43 30.8275 143.512 30.1599 139.457 30.1599H130.195V38.554H125.906ZM130.195 26.5052H140.024C143.379 26.5052 144.43 25.7376 144.43 23.3679V23.1843C144.43 20.7145 143.312 20.0136 139.39 20.0136H130.195V26.5052Z" fill="black"/>
<path d="M167.293 38.554H155.027V16.3589H167.243C175.621 16.3589 178.975 19.4629 178.975 26.7889V28.1573C178.958 35.45 175.654 38.554 167.293 38.554ZM159.299 34.916H166.659C173.101 34.916 174.586 32.5296 174.586 27.7235V27.2562C174.586 22.3999 173.134 20.0303 166.659 20.0303H159.299V34.916Z" fill="black"/>
</g>
<defs>
<clipPath id="clip0_1534_2209">
<rect width="178.75" height="55" fill="white" transform="translate(0.363281)"/>
</clipPath>
</defs>
</svg>
