<svg width="152" height="46" viewBox="0 0 152 46" fill="none" xmlns="http://www.w3.org/2000/svg">
<g style="mix-blend-mode:luminosity" opacity="0.5">
<path d="M7.73392 32.2451V16.8362H0V13.6819H19.1433V16.8362H11.4093V32.2451H7.73392Z" fill="black"/>
<path d="M32.1422 32.5104C25.0468 32.5104 22.1094 29.9143 22.1094 23.8149V22.1401C22.1094 16.0128 25.0468 13.4167 32.1422 13.4167H33.7315C40.827 13.4167 43.7926 16.0128 43.7926 22.1401V23.8149C43.7926 29.9143 40.827 32.5104 33.7315 32.5104H32.1422ZM40.0464 23.4102V22.5029C40.0464 18.4693 38.8828 16.5292 33.4335 16.5153H32.4686C26.991 16.5432 25.8415 18.4833 25.8415 22.5029V23.4102C25.8415 27.4438 27.0051 29.3839 32.4686 29.3979H33.4335C38.8828 29.3839 40.0464 27.4438 40.0464 23.4102Z" fill="black"/>
<path d="M68.4275 32.2451L63.0635 18.0366L57.671 32.2451H52.5482L46.8291 13.6819H50.831L55.2444 28.5883H55.4428L61.0201 13.6819H65.2203L70.8256 28.5883H70.9959L75.395 13.6819H79.0847L73.366 32.2451H68.4275Z" fill="black"/>
<path d="M98.8528 32.2451L96.5681 27.5554H85.4849L83.1862 32.2451H79.1699L88.2521 13.6819H93.829L102.94 32.2451H98.8528ZM86.9609 24.4988H95.0777L91.1187 16.3617H90.9624L86.9609 24.4988Z" fill="black"/>
<path d="M106.757 32.2451V13.6819H119.401C124.311 13.6819 126.17 15.0078 126.17 18.4274V19.1113C126.17 21.8888 125.091 23.0612 122.778 23.3264V23.466C125.049 23.8149 126.17 24.5267 126.17 27.6811V32.2451H122.509V28.1416C122.509 25.7829 121.728 25.2246 118.28 25.2246H110.404V32.2451H106.757ZM110.404 22.1679H118.762C121.615 22.1679 122.509 21.5259 122.509 19.5439V19.3904C122.509 17.3247 121.558 16.7385 118.223 16.7385H110.404V22.1679Z" fill="black"/>
<path d="M141.95 32.2451H131.52V13.6819H141.907C149.031 13.6819 151.883 16.2779 151.883 22.4052V23.5497C151.869 29.649 149.059 32.2451 141.95 32.2451ZM135.152 29.2024H141.41C146.888 29.2024 148.151 27.2065 148.151 23.1868V22.796C148.151 18.7344 146.917 16.7525 141.41 16.7525H135.152V29.2024Z" fill="black"/>
</g>
</svg>
