<svg width="37" height="36" viewBox="0 0 37 36" fill="none" xmlns="http://www.w3.org/2000/svg">
<path d="M23.7875 15.8625C24.2875 15.8625 24.7062 15.6938 25.0437 15.3563C25.3812 15.0188 25.55 14.5875 25.55 14.0625C25.55 13.5375 25.3812 13.1062 25.0437 12.7687C24.7062 12.4312 24.2875 12.2625 23.7875 12.2625C23.2625 12.2625 22.8313 12.4312 22.4938 12.7687C22.1563 13.1062 21.9875 13.5375 21.9875 14.0625C21.9875 14.5875 22.1563 15.0188 22.4938 15.3563C22.8313 15.6938 23.2625 15.8625 23.7875 15.8625ZM13.2125 15.8625C13.7375 15.8625 14.1687 15.6938 14.5062 15.3563C14.8437 15.0188 15.0125 14.5875 15.0125 14.0625C15.0125 13.5375 14.8437 13.1062 14.5062 12.7687C14.1687 12.4312 13.7375 12.2625 13.2125 12.2625C12.7125 12.2625 12.2937 12.4312 11.9562 12.7687C11.6187 13.1062 11.45 13.5375 11.45 14.0625C11.45 14.5875 11.6187 15.0188 11.9562 15.3563C12.2937 15.6938 12.7125 15.8625 13.2125 15.8625ZM18.5 32.25C16.525 32.25 14.675 31.875 12.95 31.125C11.225 30.375 9.71875 29.3562 8.43125 28.0687C7.14375 26.7812 6.125 25.275 5.375 23.55C4.625 21.825 4.25 19.975 4.25 18C4.25 16.025 4.625 14.1688 5.375 12.4313C6.125 10.6938 7.14375 9.1875 8.43125 7.9125C9.71875 6.6375 11.225 5.625 12.95 4.875C14.675 4.125 16.525 3.75 18.5 3.75C20.475 3.75 22.3312 4.125 24.0687 4.875C25.8062 5.625 27.3125 6.6375 28.5875 7.9125C29.8625 9.1875 30.875 10.6938 31.625 12.4313C32.375 14.1688 32.75 16.025 32.75 18C32.75 19.975 32.375 21.825 31.625 23.55C30.875 25.275 29.8625 26.7812 28.5875 28.0687C27.3125 29.3562 25.8062 30.375 24.0687 31.125C22.3312 31.875 20.475 32.25 18.5 32.25ZM18.5 30.5625C22 30.5625 24.9688 29.3375 27.4062 26.8875C29.8438 24.4375 31.0625 21.475 31.0625 18C31.0625 14.5 29.8438 11.5312 27.4062 9.09375C24.9688 6.65625 22 5.4375 18.5 5.4375C15.025 5.4375 12.0625 6.65625 9.6125 9.09375C7.1625 11.5312 5.9375 14.5 5.9375 18C5.9375 21.475 7.1625 24.4375 9.6125 26.8875C12.0625 29.3375 15.025 30.5625 18.5 30.5625ZM12.575 24.9C12.7 24.9 12.825 24.8625 12.95 24.7875C13.075 24.7125 13.175 24.6125 13.25 24.4875C13.825 23.6375 14.575 22.9812 15.5 22.5187C16.425 22.0562 17.425 21.825 18.5 21.825C19.6 21.825 20.6062 22.0625 21.5187 22.5375C22.4312 23.0125 23.1875 23.675 23.7875 24.525C23.8625 24.625 23.9688 24.7125 24.1063 24.7875C24.2438 24.8625 24.3625 24.9 24.4625 24.9C24.7625 24.9 24.9688 24.7812 25.0813 24.5437C25.1938 24.3062 25.175 24.075 25.025 23.85C24.3 22.7 23.3562 21.825 22.1937 21.225C21.0312 20.625 19.8 20.325 18.5 20.325C17.2 20.325 15.975 20.6187 14.825 21.2062C13.675 21.7937 12.75 22.6375 12.05 23.7375C11.85 24.0125 11.8187 24.275 11.9562 24.525C12.0937 24.775 12.3 24.9 12.575 24.9Z" fill="white"/>
</svg>
