<svg width="37" height="36" viewBox="0 0 37 36" fill="none" xmlns="http://www.w3.org/2000/svg">
<path d="M2.2625 26.6999C1.9875 26.6999 1.75 26.5937 1.55 26.3812C1.35 26.1687 1.25 25.925 1.25 25.65V25.125C1.25 24.2 1.7375 23.45 2.7125 22.875C3.6875 22.3 4.9875 22.0125 6.6125 22.0125C6.8875 22.0125 7.1625 22.0187 7.4375 22.0312C7.7125 22.0437 7.975 22.075 8.225 22.125C8.05 22.5 7.91875 22.8937 7.83125 23.3062C7.74375 23.7187 7.7 24.15 7.7 24.6V26.6999H2.2625ZM11.3375 26.6999C11.0125 26.6999 10.75 26.5937 10.55 26.3812C10.35 26.1687 10.25 25.9125 10.25 25.6125V24.675C10.25 23.225 11.0062 22.0625 12.5187 21.1875C14.0312 20.3125 16.025 19.875 18.5 19.875C20.975 19.875 22.9688 20.3125 24.4813 21.1875C25.9937 22.0625 26.75 23.225 26.75 24.675V25.6125C26.75 25.9125 26.6438 26.1687 26.4313 26.3812C26.2188 26.5937 25.9625 26.6999 25.6625 26.6999H11.3375ZM29.3 26.6999V24.6C29.3 24.15 29.2562 23.7187 29.1687 23.3062C29.0812 22.8937 28.95 22.4875 28.775 22.0875C29.025 22.0625 29.2875 22.0437 29.5625 22.0312C29.8375 22.0187 30.1125 22.0125 30.3875 22.0125C31.9875 22.0125 33.2812 22.3 34.2688 22.875C35.2563 23.45 35.75 24.2 35.75 25.125V25.65C35.75 25.925 35.65 26.1687 35.45 26.3812C35.25 26.5937 35.0125 26.6999 34.7375 26.6999H29.3ZM18.5 21.5625C16.5 21.5625 14.9 21.8562 13.7 22.4437C12.5 23.0312 11.9125 23.7875 11.9375 24.7125V24.975H25.0625V24.675C25.0875 23.8 24.5 23.0625 23.3 22.4625C22.1 21.8625 20.5 21.5625 18.5 21.5625ZM6.6125 20.8125C5.9625 20.8125 5.41875 20.5875 4.98125 20.1375C4.54375 19.6875 4.325 19.15 4.325 18.525C4.325 17.875 4.54375 17.3312 4.98125 16.8937C5.41875 16.4562 5.9625 16.2375 6.6125 16.2375C7.2375 16.2375 7.775 16.4625 8.225 16.9125C8.675 17.3625 8.9 17.9 8.9 18.525C8.9 19.15 8.675 19.6875 8.225 20.1375C7.775 20.5875 7.2375 20.8125 6.6125 20.8125ZM30.3875 20.8125C29.7625 20.8125 29.225 20.5875 28.775 20.1375C28.325 19.6875 28.1 19.15 28.1 18.525C28.1 17.875 28.325 17.3312 28.775 16.8937C29.225 16.4562 29.7625 16.2375 30.3875 16.2375C31.0375 16.2375 31.5813 16.4625 32.0188 16.9125C32.4563 17.3625 32.675 17.9 32.675 18.525C32.675 19.15 32.4563 19.6875 32.0188 20.1375C31.5813 20.5875 31.0375 20.8125 30.3875 20.8125ZM18.5 18.75C17.425 18.75 16.5063 18.3687 15.7438 17.6062C14.9813 16.8437 14.6 15.925 14.6 14.85C14.6 13.775 14.9813 12.8562 15.7438 12.0937C16.5063 11.3312 17.425 10.95 18.5 10.95C19.575 10.95 20.4937 11.3312 21.2562 12.0937C22.0187 12.8562 22.4 13.775 22.4 14.85C22.4 15.925 22.0187 16.8437 21.2562 17.6062C20.4937 18.3687 19.575 18.75 18.5 18.75ZM18.5 12.675C17.875 12.675 17.3562 12.8812 16.9437 13.2937C16.5312 13.7062 16.325 14.225 16.325 14.85C16.325 15.475 16.5312 16 16.9437 16.425C17.3562 16.85 17.875 17.0625 18.5 17.0625C19.125 17.0625 19.6438 16.85 20.0563 16.425C20.4688 16 20.675 15.475 20.675 14.85C20.675 14.225 20.4688 13.7062 20.0563 13.2937C19.6438 12.8812 19.125 12.675 18.5 12.675Z" fill="black"/>
<path d="M2.2625 26.6999C1.9875 26.6999 1.75 26.5937 1.55 26.3812C1.35 26.1687 1.25 25.925 1.25 25.65V25.125C1.25 24.2 1.7375 23.45 2.7125 22.875C3.6875 22.3 4.9875 22.0125 6.6125 22.0125C6.8875 22.0125 7.1625 22.0187 7.4375 22.0312C7.7125 22.0437 7.975 22.075 8.225 22.125C8.05 22.5 7.91875 22.8937 7.83125 23.3062C7.74375 23.7187 7.7 24.15 7.7 24.6V26.6999H2.2625ZM11.3375 26.6999C11.0125 26.6999 10.75 26.5937 10.55 26.3812C10.35 26.1687 10.25 25.9125 10.25 25.6125V24.675C10.25 23.225 11.0062 22.0625 12.5187 21.1875C14.0312 20.3125 16.025 19.875 18.5 19.875C20.975 19.875 22.9688 20.3125 24.4813 21.1875C25.9937 22.0625 26.75 23.225 26.75 24.675V25.6125C26.75 25.9125 26.6438 26.1687 26.4313 26.3812C26.2188 26.5937 25.9625 26.6999 25.6625 26.6999H11.3375ZM29.3 26.6999V24.6C29.3 24.15 29.2562 23.7187 29.1687 23.3062C29.0812 22.8937 28.95 22.4875 28.775 22.0875C29.025 22.0625 29.2875 22.0437 29.5625 22.0312C29.8375 22.0187 30.1125 22.0125 30.3875 22.0125C31.9875 22.0125 33.2812 22.3 34.2688 22.875C35.2563 23.45 35.75 24.2 35.75 25.125V25.65C35.75 25.925 35.65 26.1687 35.45 26.3812C35.25 26.5937 35.0125 26.6999 34.7375 26.6999H29.3ZM18.5 21.5625C16.5 21.5625 14.9 21.8562 13.7 22.4437C12.5 23.0312 11.9125 23.7875 11.9375 24.7125V24.975H25.0625V24.675C25.0875 23.8 24.5 23.0625 23.3 22.4625C22.1 21.8625 20.5 21.5625 18.5 21.5625ZM6.6125 20.8125C5.9625 20.8125 5.41875 20.5875 4.98125 20.1375C4.54375 19.6875 4.325 19.15 4.325 18.525C4.325 17.875 4.54375 17.3312 4.98125 16.8937C5.41875 16.4562 5.9625 16.2375 6.6125 16.2375C7.2375 16.2375 7.775 16.4625 8.225 16.9125C8.675 17.3625 8.9 17.9 8.9 18.525C8.9 19.15 8.675 19.6875 8.225 20.1375C7.775 20.5875 7.2375 20.8125 6.6125 20.8125ZM30.3875 20.8125C29.7625 20.8125 29.225 20.5875 28.775 20.1375C28.325 19.6875 28.1 19.15 28.1 18.525C28.1 17.875 28.325 17.3312 28.775 16.8937C29.225 16.4562 29.7625 16.2375 30.3875 16.2375C31.0375 16.2375 31.5813 16.4625 32.0188 16.9125C32.4563 17.3625 32.675 17.9 32.675 18.525C32.675 19.15 32.4563 19.6875 32.0188 20.1375C31.5813 20.5875 31.0375 20.8125 30.3875 20.8125ZM18.5 18.75C17.425 18.75 16.5063 18.3687 15.7438 17.6062C14.9813 16.8437 14.6 15.925 14.6 14.85C14.6 13.775 14.9813 12.8562 15.7438 12.0937C16.5063 11.3312 17.425 10.95 18.5 10.95C19.575 10.95 20.4937 11.3312 21.2562 12.0937C22.0187 12.8562 22.4 13.775 22.4 14.85C22.4 15.925 22.0187 16.8437 21.2562 17.6062C20.4937 18.3687 19.575 18.75 18.5 18.75ZM18.5 12.675C17.875 12.675 17.3562 12.8812 16.9437 13.2937C16.5312 13.7062 16.325 14.225 16.325 14.85C16.325 15.475 16.5312 16 16.9437 16.425C17.3562 16.85 17.875 17.0625 18.5 17.0625C19.125 17.0625 19.6438 16.85 20.0563 16.425C20.4688 16 20.675 15.475 20.675 14.85C20.675 14.225 20.4688 13.7062 20.0563 13.2937C19.6438 12.8812 19.125 12.675 18.5 12.675Z" fill="url(#paint0_linear_1683_5171)"/>
<defs>
<linearGradient id="paint0_linear_1683_5171" x1="-3.78125" y1="7.34058" x2="33.4454" y2="37.8278" gradientUnits="userSpaceOnUse">
<stop stop-color="#2F4EAC"/>
<stop offset="1" stop-color="#1BB0F0"/>
</linearGradient>
</defs>
</svg>
