<svg width="140" height="34" viewBox="0 0 140 34" fill="none" xmlns="http://www.w3.org/2000/svg">
<g style="mix-blend-mode:luminosity" opacity="0.5" clip-path="url(#clip0_1246_1913)">
<path d="M29.7338 32.9056V30.772L28.126 28.2461H28.7789L30.0217 30.2627L31.2574 28.2461H31.9033L30.2955 30.772V32.9056H29.7338Z" fill="black"/>
<path d="M38.1036 30.5861C38.1036 30.9165 38.0404 31.2331 37.914 31.5291C37.7876 31.825 37.6051 32.0865 37.3664 32.3137C37.1276 32.5408 36.8468 32.7197 36.5379 32.8436C36.2219 32.9675 35.899 33.0295 35.569 33.0295C35.232 33.0295 34.909 32.9675 34.6001 32.8436C34.2911 32.7197 34.0173 32.5408 33.7716 32.3137C33.5258 32.0797 33.3433 31.8181 33.2169 31.5222C33.0905 31.2262 33.0273 30.9165 33.0273 30.5861C33.0273 30.2558 33.0905 29.9392 33.2169 29.6432C33.3433 29.3473 33.5258 29.0857 33.7716 28.8517C34.0103 28.6246 34.2841 28.4525 34.593 28.3287C34.902 28.2048 35.2249 28.1428 35.5619 28.1428C35.899 28.1428 36.2219 28.2048 36.5379 28.3287C36.8538 28.4525 37.1276 28.6246 37.3664 28.8517C37.6051 29.0789 37.7876 29.3404 37.914 29.6363C38.0404 29.9323 38.1036 30.2489 38.1036 30.5861ZM35.569 32.5064C35.8287 32.5064 36.0745 32.4582 36.3132 32.3619C36.5449 32.2655 36.7626 32.1278 36.9451 31.942C37.1347 31.7631 37.2751 31.5497 37.3734 31.3226C37.4717 31.0886 37.5208 30.8477 37.5208 30.5861C37.5208 30.3246 37.4717 30.0768 37.3734 29.8428C37.2751 29.6088 37.1347 29.4023 36.9521 29.2165C36.7625 29.0376 36.5519 28.893 36.3202 28.7967C36.0885 28.7003 35.8358 28.6521 35.576 28.6521C35.3092 28.6521 35.0635 28.7003 34.8247 28.7967C34.586 28.893 34.3824 29.0307 34.1999 29.2165C34.0103 29.4023 33.8699 29.6088 33.7716 29.8428C33.6733 30.0768 33.6241 30.3246 33.6241 30.5861C33.6241 30.8477 33.6733 31.0886 33.7716 31.3157C33.8699 31.5428 34.0103 31.7493 34.1999 31.942C34.3894 32.1278 34.6001 32.2724 34.8318 32.3619C35.0564 32.4582 35.3022 32.5064 35.569 32.5064Z" fill="black"/>
<path d="M40.0059 28.2461H40.5746V31.1437C40.5746 31.6117 40.6799 31.9627 40.8835 32.1829C41.0871 32.4032 41.4101 32.5133 41.8454 32.5133C42.2807 32.5133 42.6037 32.4032 42.8073 32.1829C43.0109 31.9627 43.1162 31.6186 43.1162 31.1437V28.2461H43.6919V31.1437C43.6919 31.77 43.5375 32.2449 43.2355 32.5546C42.9266 32.8643 42.4703 33.0226 41.8524 33.0226C41.2416 33.0226 40.7782 32.8643 40.4693 32.5546C40.1603 32.2449 40.0129 31.77 40.0129 31.1437V28.2461H40.0059Z" fill="black"/>
<path d="M45.8057 32.9056V28.2529H46.922C47.238 28.2529 47.4697 28.2736 47.6241 28.308C47.7716 28.3424 47.905 28.4043 48.0173 28.4869C48.1577 28.5971 48.2701 28.7416 48.3473 28.9205C48.4245 29.0995 48.4666 29.306 48.4666 29.5262C48.4666 29.9048 48.3613 30.2007 48.1437 30.3934C47.926 30.5861 47.6101 30.6894 47.1888 30.6894H47.0905L48.902 32.9056H48.1858L46.4516 30.6894H46.3673V32.9056H45.8057ZM46.3533 28.7141V30.2695H46.7816C47.2239 30.2695 47.5188 30.2145 47.6662 30.1043C47.8137 29.9942 47.8909 29.8015 47.8909 29.5193C47.8909 29.2234 47.8137 29.01 47.6592 28.893C47.5048 28.776 47.2099 28.7141 46.7816 28.7141H46.3533Z" fill="black"/>
<path d="M57.1658 29.361C56.9411 29.1201 56.6954 28.9412 56.4356 28.8242C56.1758 28.7071 55.895 28.6521 55.579 28.6521C55.3263 28.6521 55.0805 28.7003 54.8418 28.8035C54.6031 28.8999 54.3925 29.0444 54.224 29.2233C54.0414 29.4092 53.908 29.6157 53.8167 29.8428C53.7255 30.0699 53.6833 30.3246 53.6833 30.5999C53.6833 30.8132 53.7114 31.0128 53.7676 31.1986C53.8238 31.3845 53.901 31.5497 54.0133 31.7011C54.2029 31.9695 54.4346 32.1691 54.7154 32.3136C54.9963 32.4582 55.2912 32.527 55.6141 32.527C55.916 32.527 56.1969 32.465 56.4567 32.3412C56.7164 32.2173 56.9552 32.0314 57.1658 31.7905V32.527C56.9271 32.6922 56.6743 32.8229 56.4075 32.9055C56.1337 32.9881 55.8528 33.0363 55.565 33.0363C55.3122 33.0363 55.0665 33.0019 54.8348 32.9262C54.5961 32.8505 54.3714 32.7472 54.1678 32.6096C53.8238 32.3756 53.557 32.0865 53.3744 31.7424C53.1919 31.3982 53.1006 31.0197 53.1006 30.6136C53.1006 30.2557 53.1638 29.9322 53.2831 29.6363C53.4025 29.3403 53.5921 29.0788 53.8448 28.8379C54.0835 28.6108 54.3574 28.4387 54.6522 28.3217C54.9471 28.2116 55.2701 28.1497 55.6141 28.1497C55.8879 28.1497 56.1547 28.191 56.4145 28.2735C56.6743 28.3561 56.9271 28.48 57.1798 28.6521V29.361H57.1658Z" fill="black"/>
<path d="M60.627 28.0671L62.7894 32.9056H62.1786L61.5608 31.4809H59.7072L59.0893 32.9056H58.4785L60.627 28.0671ZM60.627 29.2922L59.8687 31.006H61.3782L60.627 29.2922Z" fill="black"/>
<path d="M64.2783 32.9056V28.2529H65.3947C65.7106 28.2529 65.9423 28.2736 66.0968 28.308C66.2442 28.3424 66.3776 28.4043 66.49 28.4869C66.6304 28.5971 66.7427 28.7416 66.8199 28.9205C66.8972 29.0995 66.9393 29.306 66.9393 29.5262C66.9393 29.9048 66.834 30.2007 66.6163 30.3934C66.3987 30.593 66.0827 30.6894 65.6615 30.6894H65.5632L67.3746 32.9056H66.6585L64.9243 30.6894H64.84V32.9056H64.2783ZM64.826 28.7141V30.2695H65.2542C65.6966 30.2695 65.9915 30.2145 66.1389 30.1043C66.2863 29.9942 66.3636 29.8015 66.3636 29.5193C66.3636 29.2234 66.2863 29.01 66.1319 28.893C65.9774 28.776 65.6825 28.7141 65.2542 28.7141H64.826Z" fill="black"/>
<path d="M68.6445 33.8279L69.2624 32.0935L69.817 32.2793L69.0237 33.9656L68.6445 33.8279Z" fill="black"/>
<path d="M76.6417 30.5861C76.6417 30.9165 76.5785 31.2331 76.4521 31.5291C76.3257 31.825 76.1432 32.0865 75.9044 32.3137C75.6657 32.5408 75.3849 32.7197 75.076 32.8436C74.76 32.9675 74.437 33.0295 74.1071 33.0295C73.77 33.0295 73.4471 32.9675 73.1381 32.8436C72.8292 32.7197 72.5554 32.5408 72.3097 32.3137C72.0639 32.0797 71.8814 31.8181 71.755 31.5222C71.6286 31.2262 71.5654 30.9165 71.5654 30.5861C71.5654 30.2558 71.6286 29.9392 71.755 29.6432C71.8814 29.3473 72.0639 29.0857 72.3097 28.8517C72.5484 28.6246 72.8222 28.4525 73.1311 28.3287C73.4401 28.2048 73.763 28.1428 74.1 28.1428C74.437 28.1428 74.76 28.2048 75.076 28.3287C75.3919 28.4525 75.6657 28.6246 75.9044 28.8517C76.1432 29.0789 76.3257 29.3404 76.4521 29.6363C76.5785 29.9392 76.6417 30.2489 76.6417 30.5861ZM74.1071 32.5064C74.3668 32.5064 74.6126 32.4582 74.8513 32.3619C75.083 32.2655 75.3006 32.1278 75.4832 31.942C75.6728 31.7631 75.8132 31.5497 75.9115 31.3226C76.0098 31.0955 76.0589 30.8477 76.0589 30.5861C76.0589 30.3246 76.0098 30.0768 75.9115 29.8428C75.8132 29.6088 75.6727 29.4023 75.4902 29.2165C75.3006 29.0376 75.097 28.893 74.8583 28.7967C74.6266 28.7003 74.3739 28.6521 74.1141 28.6521C73.8473 28.6521 73.6015 28.7003 73.3628 28.7967C73.1241 28.893 72.9205 29.0307 72.7379 29.2165C72.5484 29.4023 72.408 29.6088 72.3097 29.8428C72.2114 30.0768 72.1622 30.3246 72.1622 30.5861C72.1622 30.8477 72.2114 31.0886 72.3097 31.3157C72.408 31.5428 72.5484 31.7493 72.7379 31.942C72.9275 32.1278 73.1381 32.2724 73.3698 32.3619C73.5945 32.4582 73.8403 32.5064 74.1071 32.5064Z" fill="black"/>
<path d="M78.5381 28.2461H79.1068V31.1437C79.1068 31.6117 79.2121 31.9627 79.4157 32.1829C79.6193 32.4032 79.9423 32.5133 80.3776 32.5133C80.8129 32.5133 81.1359 32.4032 81.3395 32.1829C81.5431 31.9627 81.6484 31.6186 81.6484 31.1437V28.2461H82.2241V31.1437C82.2241 31.77 82.0697 32.2449 81.7678 32.5546C81.4588 32.8643 81.0025 33.0226 80.3846 33.0226C79.7738 33.0226 79.3104 32.8643 79.0015 32.5546C78.6925 32.2449 78.5451 31.77 78.5451 31.1437V28.2461H78.5381Z" fill="black"/>
<path d="M84.3438 32.9056V28.2529H85.4601C85.776 28.2529 86.0077 28.2736 86.1622 28.308C86.3096 28.3424 86.443 28.4043 86.5554 28.4869C86.6958 28.5971 86.8081 28.7416 86.8854 28.9205C86.9626 29.0995 87.0047 29.306 87.0047 29.5262C87.0047 29.9048 86.8994 30.2007 86.6818 30.3934C86.4641 30.593 86.1482 30.6894 85.7269 30.6894H85.6286L87.44 32.9056H86.7098L84.9756 30.6894H84.8914V32.9056H84.3438ZM84.8914 28.7141V30.2695H85.3197C85.762 30.2695 86.0569 30.2145 86.2043 30.1043C86.3518 29.9942 86.429 29.8015 86.429 29.5193C86.429 29.2234 86.3518 29.01 86.1973 28.893C86.0428 28.776 85.748 28.7141 85.3197 28.7141H84.8914Z" fill="black"/>
<path d="M95.7039 29.361C95.4792 29.1201 95.2335 28.9412 94.9737 28.8242C94.7139 28.7071 94.4331 28.6521 94.1171 28.6521C93.8644 28.6521 93.6186 28.7003 93.3799 28.8035C93.1412 28.8999 92.9305 29.0444 92.762 29.2233C92.5795 29.4092 92.4461 29.6157 92.3548 29.8428C92.2636 30.0699 92.2214 30.3246 92.2214 30.5999C92.2214 30.8132 92.2495 31.0128 92.3057 31.1986C92.3618 31.3845 92.4391 31.5497 92.5514 31.7011C92.741 31.9695 92.9727 32.1691 93.2535 32.3136C93.5344 32.4582 93.8292 32.527 94.1522 32.527C94.4541 32.527 94.735 32.465 94.9947 32.3412C95.2545 32.2173 95.4932 32.0314 95.7039 31.7905V32.527C95.4652 32.6922 95.2124 32.8229 94.9456 32.9055C94.6718 32.9881 94.3909 33.0363 94.1031 33.0363C93.8503 33.0363 93.6046 33.0019 93.3729 32.9262C93.1342 32.8505 92.9095 32.7472 92.7059 32.6096C92.3618 32.3756 92.095 32.0865 91.9125 31.7424C91.7299 31.3982 91.6387 31.0197 91.6387 30.6136C91.6387 30.2557 91.7019 29.9322 91.8212 29.6363C91.9406 29.3403 92.1302 29.0788 92.3829 28.8379C92.6216 28.6108 92.8954 28.4387 93.1903 28.3217C93.4852 28.2116 93.8082 28.1497 94.1522 28.1497C94.426 28.1497 94.6928 28.191 94.9526 28.2735C95.2124 28.3561 95.4652 28.48 95.7179 28.6521V29.361H95.7039Z" fill="black"/>
<path d="M97.6631 32.9056V28.2529H98.2248V30.0424H100.745V28.2529H101.321V32.9056H100.745V30.5655H98.2248V32.9056H97.6631Z" fill="black"/>
<path d="M104.958 28.0671L107.12 32.9056H106.51L105.892 31.4809H104.038L103.42 32.9056H102.81L104.958 28.0671ZM104.958 29.2922L104.2 31.006H105.709L104.958 29.2922Z" fill="black"/>
<path d="M108.469 28.2461H109.037V31.1437C109.037 31.6117 109.143 31.9627 109.346 32.1829C109.55 32.4032 109.873 32.5133 110.308 32.5133C110.744 32.5133 111.067 32.4032 111.27 32.1829C111.474 31.9627 111.579 31.6186 111.579 31.1437V28.2461H112.155V31.1437C112.155 31.77 112 32.2449 111.698 32.5546C111.39 32.8643 110.933 33.0226 110.315 33.0226C109.704 33.0226 109.241 32.8643 108.932 32.5546C108.623 32.2449 108.476 31.77 108.476 31.1437V28.2461H108.469Z" fill="black"/>
<path d="M114.274 32.9056V28.2529H116.781V28.7554H114.843V30.0906H116.781V30.6068H114.843V32.9056H114.274Z" fill="black"/>
<path d="M118.635 32.9056V28.2529H121.141V28.7554H119.203V30.0906H121.141V30.6068H119.203V32.9056H118.635Z" fill="black"/>
<path d="M123.002 32.9056V28.2529H125.508V28.7554H123.571V30.0906H125.508V30.6068H123.571V32.3894H125.508V32.9056H123.002Z" fill="black"/>
<path d="M127.439 28.2461H128.008V31.1437C128.008 31.6117 128.113 31.9627 128.317 32.1829C128.521 32.4032 128.844 32.5133 129.279 32.5133C129.714 32.5133 130.037 32.4032 130.241 32.1829C130.444 31.9627 130.55 31.6186 130.55 31.1437V28.2461H131.126V31.1437C131.126 31.77 130.971 32.2449 130.669 32.5546C130.36 32.8643 129.904 33.0226 129.286 33.0226C128.675 33.0226 128.212 32.8643 127.903 32.5546C127.594 32.2449 127.446 31.77 127.446 31.1437V28.2461H127.439Z" fill="black"/>
<path d="M133.238 32.9056V28.2529H134.355C134.671 28.2529 134.902 28.2736 135.057 28.308C135.204 28.3424 135.338 28.4043 135.45 28.4869C135.59 28.5971 135.703 28.7416 135.78 28.9205C135.857 29.0995 135.899 29.306 135.899 29.5262C135.899 29.9048 135.794 30.2007 135.576 30.3934C135.359 30.593 135.043 30.6894 134.621 30.6894H134.523L136.335 32.9056H135.618L133.884 30.6894H133.8V32.9056H133.238ZM133.793 28.7141V30.2695H134.221C134.664 30.2695 134.958 30.2145 135.106 30.1043C135.253 29.9942 135.331 29.8015 135.331 29.5193C135.331 29.2234 135.253 29.01 135.099 28.893C134.944 28.776 134.65 28.7141 134.221 28.7141H133.793Z" fill="black"/>
<path d="M137.9 32.6509C137.9 32.5477 137.935 32.4582 138.013 32.3825C138.09 32.3068 138.181 32.2724 138.287 32.2724C138.392 32.2724 138.483 32.3068 138.56 32.3825C138.638 32.4582 138.673 32.5477 138.673 32.6509C138.673 32.7542 138.638 32.8436 138.56 32.9193C138.49 32.995 138.399 33.0295 138.287 33.0295C138.181 33.0295 138.09 32.995 138.013 32.9193C137.935 32.8436 137.9 32.7542 137.9 32.6509ZM138.027 31.8457V28.1428H138.546V31.8457H138.027Z" fill="black"/>
<path d="M28.0137 25.3141L41.5362 4.2947H30.5623V1.73438H46.3878L32.9916 22.6437H45.8402V25.321H28.0137V25.3141Z" fill="black"/>
<path d="M73.0334 13.5655C73.0334 15.2518 72.7175 16.8416 72.0785 18.3352C71.4396 19.8287 70.5199 21.157 69.2982 22.3133C68.0836 23.4765 66.6793 24.3643 65.0996 24.9975C63.5128 25.6238 61.8769 25.9404 60.1778 25.9404C58.4787 25.9404 56.8428 25.6238 55.2701 24.9975C53.6974 24.3712 52.3002 23.4765 51.0856 22.3133C49.8569 21.1433 48.9231 19.808 48.2842 18.3214C47.6452 16.8279 47.3223 15.2449 47.3223 13.5724C47.3223 11.8862 47.6452 10.2963 48.2842 8.7959C48.9231 7.29549 49.8569 5.96026 51.0856 4.79022C52.2932 3.64083 53.6833 2.75298 55.2631 2.13354C56.8428 1.51411 58.4787 1.19751 60.1778 1.19751C61.891 1.19751 63.5339 1.50723 65.1207 2.13354C66.7074 2.75986 68.0976 3.64083 69.3052 4.79022C70.5199 5.95338 71.4466 7.28173 72.0856 8.77525C72.7104 10.2757 73.0334 11.8724 73.0334 13.5655ZM60.1708 23.2975C61.4838 23.2975 62.7405 23.0566 63.9271 22.568C65.1136 22.0793 66.1879 21.3704 67.1427 20.4344C68.0835 19.5121 68.8067 18.4659 69.2982 17.2959C69.7897 16.1259 70.0354 14.887 70.0354 13.5724C70.0354 12.251 69.7826 10.9983 69.2842 9.80076C68.7857 8.61007 68.0695 7.55703 67.1357 6.64164C66.1949 5.71937 65.1277 5.01735 63.9341 4.52868C62.7475 4.0469 61.4838 3.80601 60.1568 3.80601C58.8157 3.80601 57.552 4.0469 56.3584 4.52868C55.1648 5.01047 54.1046 5.71249 53.1849 6.64164C52.244 7.57768 51.5209 8.63072 51.0294 9.81452C50.5379 10.9983 50.2922 12.2441 50.2922 13.5655C50.2922 14.8732 50.5379 16.1121 51.0224 17.2684C51.5068 18.4315 52.23 19.4777 53.1849 20.4275C54.1467 21.3704 55.221 22.0862 56.4005 22.568C57.5941 23.0566 58.8438 23.2975 60.1708 23.2975Z" fill="black"/>
<path d="M75.9893 25.3142V1.72754H88.6763V4.28786H78.8468V11.0534H88.6763V13.6619H78.8468V25.3073H75.9893V25.3142Z" fill="black"/>
<path d="M91.3438 25.3142V1.72754H104.031V4.28786H94.2013V11.0534H104.031V13.6619H94.2013V22.6988H104.031V25.3073H91.3438V25.3142Z" fill="black"/>
<path d="M130.782 14.068H131.294C133.421 14.068 135.029 13.5656 136.132 12.5607C137.234 11.5559 137.782 10.0899 137.782 8.15587C137.782 7.04089 137.585 6.02228 137.192 5.10001C136.799 4.18462 136.244 3.44819 135.535 2.90446C134.966 2.47774 134.306 2.17491 133.555 1.99596C132.804 1.81701 131.624 1.72754 130.016 1.72754H126.049H124.554H123.143V16.4012C123.143 18.7826 122.623 20.5377 121.591 21.6526C120.559 22.7676 118.93 23.3251 116.718 23.3251C114.507 23.3251 112.885 22.7676 111.846 21.6526C110.814 20.5377 110.294 18.7826 110.294 16.4012V1.72754H107.401V16.4012C107.401 19.5879 108.174 21.9761 109.725 23.5591C111.277 25.1421 113.608 25.9336 116.718 25.9336C119.843 25.9336 122.174 25.1421 123.725 23.5591C125.277 21.9761 126.049 19.5879 126.049 16.4012V4.09515H129.342C131.533 4.09515 133.014 4.39798 133.794 5.00365C134.573 5.60932 134.959 6.66924 134.959 8.1834C134.959 9.58745 134.58 10.5785 133.829 11.136C133.07 11.7004 131.575 11.9826 129.342 11.9826H127.545V14.0611L136.342 25.3073H139.972L130.782 14.068Z" fill="black"/>
<path d="M18.1071 8.34155C18.1071 8.34155 13.1502 10.2549 7.08398 8.34155C7.08398 8.34155 7.29462 12.9254 10.5032 16.0707C10.5032 16.0707 12.4551 18.0529 14.6176 16.0707C16.7801 14.0885 17.8964 11.3492 18.1071 8.34155Z" fill="black"/>
<path d="M5.61669 6.15301V4.8522C5.61669 4.8522 4.71097 4.64572 4.43013 4.37042C4.14928 4.09511 4.14928 3.41373 4.50034 3.13843C4.85139 2.86313 11.5495 0.268396 11.5495 0.268396C11.5495 0.268396 12.4552 -0.282211 13.712 0.268396C14.9687 0.818998 20.4101 3.00766 20.4101 3.00766C20.4101 3.00766 21.0349 3.14531 20.9718 3.82669C20.9015 4.50807 20.4101 4.57689 20.4101 4.57689L19.5746 4.8522V6.15301C19.5746 6.15301 12.8063 9.78012 5.61669 6.15301Z" fill="black"/>
<path d="M23.1978 19.5603C20.256 18.2457 17.7916 16.821 17.7916 16.821C17.7916 16.821 15.8468 20.0352 12.589 20.104C9.33124 20.1729 7.24598 16.821 7.24598 16.821L1.97315 19.5603C1.97315 19.5603 0.0283203 20.2417 0.0283203 22.0243C0.0283203 23.8069 0.0283203 29.9599 0.0283203 29.9599H25.2831V22.8433C25.2901 22.8433 25.5007 20.5858 23.1978 19.5603ZM3.38439 22.568L2.75951 21.1984L6.45961 19.0785L7.0845 20.517L3.38439 22.568ZM14.0564 24.6947V29.2785H11.1918V24.6947L9.79463 23.1186L11.1918 21.5425H14.0564L15.4536 23.1874L14.0564 24.6947ZM21.8077 22.568L18.1076 20.517L18.7324 19.0785L22.4325 21.1984L21.8077 22.568Z" fill="black"/>
<path d="M25.2969 31.646H0.0351562V33.1326H25.2969V31.646Z" fill="black"/>
</g>
<defs>
<clipPath id="clip0_1246_1913">
<rect width="140" height="34" fill="white"/>
</clipPath>
</defs>
</svg>
