<svg width="1994" height="494" viewBox="0 0 1994 494" fill="none" xmlns="http://www.w3.org/2000/svg">
<g clip-path="url(#clip0_1102_1254)">
<path d="M423.5 478.1V447.1L400.6 410.4H409.9L427.6 439.7L445.2 410.4H454.4L431.5 447.1V478.1H423.5Z" fill="black"/>
<path d="M542.7 444.4C542.7 449.2 541.8 453.8 540 458.1C538.2 462.4 535.6 466.2 532.2 469.5C528.8 472.8 524.8 475.4 520.4 477.2C515.9 479 511.3 479.9 506.6 479.9C501.8 479.9 497.2 479 492.8 477.2C488.4 475.4 484.5 472.8 481 469.5C477.5 466.1 474.9 462.3 473.1 458C471.3 453.7 470.4 449.2 470.4 444.4C470.4 439.6 471.3 435 473.1 430.7C474.9 426.4 477.5 422.6 481 419.2C484.4 415.9 488.3 413.4 492.7 411.6C497.1 409.8 501.7 408.9 506.5 408.9C511.3 408.9 515.9 409.8 520.4 411.6C524.9 413.4 528.8 415.9 532.2 419.2C535.6 422.5 538.2 426.3 540 430.6C541.8 434.9 542.7 439.5 542.7 444.4ZM506.6 472.3C510.3 472.3 513.8 471.6 517.2 470.2C520.5 468.8 523.6 466.8 526.2 464.1C528.9 461.5 530.9 458.4 532.3 455.1C533.7 451.7 534.4 448.2 534.4 444.4C534.4 440.6 533.7 437 532.3 433.6C530.9 430.2 528.9 427.2 526.3 424.5C523.6 421.9 520.6 419.8 517.3 418.4C514 417 510.4 416.3 506.7 416.3C502.9 416.3 499.4 417 496 418.4C492.6 419.8 489.7 421.8 487.1 424.5C484.4 427.2 482.4 430.2 481 433.6C479.6 437 478.9 440.6 478.9 444.4C478.9 448.2 479.6 451.7 481 455C482.4 458.3 484.4 461.3 487.1 464.1C489.8 466.8 492.8 468.9 496.1 470.2C499.3 471.6 502.8 472.3 506.6 472.3Z" fill="black"/>
<path d="M569.8 410.4H577.9V452.5C577.9 459.3 579.4 464.4 582.3 467.6C585.2 470.8 589.8 472.4 596 472.4C602.2 472.4 606.8 470.8 609.7 467.6C612.6 464.4 614.1 459.4 614.1 452.5V410.4H622.3V452.5C622.3 461.6 620.1 468.5 615.8 473C611.4 477.5 604.9 479.8 596.1 479.8C587.4 479.8 580.8 477.5 576.4 473C572 468.5 569.9 461.6 569.9 452.5V410.4H569.8Z" fill="black"/>
<path d="M652.4 478.1V410.5H668.3C672.8 410.5 676.1 410.8 678.3 411.3C680.4 411.8 682.3 412.7 683.9 413.9C685.9 415.5 687.5 417.6 688.6 420.2C689.7 422.8 690.3 425.8 690.3 429C690.3 434.5 688.8 438.8 685.7 441.6C682.6 444.4 678.1 445.9 672.1 445.9H670.7L696.5 478.1H686.3L661.6 445.9H660.4V478.1H652.4ZM660.2 417.2V439.8H666.3C672.6 439.8 676.8 439 678.9 437.4C681 435.8 682.1 433 682.1 428.9C682.1 424.6 681 421.5 678.8 419.8C676.6 418.1 672.4 417.2 666.3 417.2H660.2Z" fill="black"/>
<path d="M814.2 426.6C811 423.1 807.5 420.5 803.8 418.8C800.1 417.1 796.1 416.3 791.6 416.3C788 416.3 784.5 417 781.1 418.5C777.7 419.9 774.7 422 772.3 424.6C769.7 427.3 767.8 430.3 766.5 433.6C765.2 436.9 764.6 440.6 764.6 444.6C764.6 447.7 765 450.6 765.8 453.3C766.6 456 767.7 458.4 769.3 460.6C772 464.5 775.3 467.4 779.3 469.5C783.3 471.6 787.5 472.6 792.1 472.6C796.4 472.6 800.4 471.7 804.1 469.9C807.8 468.1 811.2 465.4 814.2 461.9V472.6C810.8 475 807.2 476.9 803.4 478.1C799.5 479.3 795.5 480 791.4 480C787.8 480 784.3 479.5 781 478.4C777.6 477.3 774.4 475.8 771.5 473.8C766.6 470.4 762.8 466.2 760.2 461.2C757.6 456.2 756.3 450.7 756.3 444.8C756.3 439.6 757.2 434.9 758.9 430.6C760.6 426.3 763.3 422.5 766.9 419C770.3 415.7 774.2 413.2 778.4 411.5C782.6 409.9 787.2 409 792.1 409C796 409 799.8 409.6 803.5 410.8C807.2 412 810.8 413.8 814.4 416.3V426.6H814.2Z" fill="black"/>
<path d="M863.5 407.8L894.3 478.1H885.6L876.8 457.4H850.4L841.6 478.1H832.9L863.5 407.8ZM863.5 425.6L852.7 450.5H874.2L863.5 425.6Z" fill="black"/>
<path d="M915.5 478.1V410.5H931.4C935.9 410.5 939.2 410.8 941.4 411.3C943.5 411.8 945.4 412.7 947 413.9C949 415.5 950.6 417.6 951.7 420.2C952.8 422.8 953.4 425.8 953.4 429C953.4 434.5 951.9 438.8 948.8 441.6C945.7 444.5 941.2 445.9 935.2 445.9H933.8L959.6 478.1H949.4L924.7 445.9H923.5V478.1H915.5ZM923.3 417.2V439.8H929.4C935.7 439.8 939.9 439 942 437.4C944.1 435.8 945.2 433 945.2 428.9C945.2 424.6 944.1 421.5 941.9 419.8C939.7 418.1 935.5 417.2 929.4 417.2H923.3Z" fill="black"/>
<path d="M977.7 491.5L986.5 466.3L994.4 469L983.1 493.5L977.7 491.5Z" fill="black"/>
<path d="M1091.6 444.4C1091.6 449.2 1090.7 453.8 1088.9 458.1C1087.1 462.4 1084.5 466.2 1081.1 469.5C1077.7 472.8 1073.7 475.4 1069.3 477.2C1064.8 479 1060.2 479.9 1055.5 479.9C1050.7 479.9 1046.1 479 1041.7 477.2C1037.3 475.4 1033.4 472.8 1029.9 469.5C1026.4 466.1 1023.8 462.3 1022 458C1020.2 453.7 1019.3 449.2 1019.3 444.4C1019.3 439.6 1020.2 435 1022 430.7C1023.8 426.4 1026.4 422.6 1029.9 419.2C1033.3 415.9 1037.2 413.4 1041.6 411.6C1046 409.8 1050.6 408.9 1055.4 408.9C1060.2 408.9 1064.8 409.8 1069.3 411.6C1073.8 413.4 1077.7 415.9 1081.1 419.2C1084.5 422.5 1087.1 426.3 1088.9 430.6C1090.7 435 1091.6 439.5 1091.6 444.4ZM1055.5 472.3C1059.2 472.3 1062.7 471.6 1066.1 470.2C1069.4 468.8 1072.5 466.8 1075.1 464.1C1077.8 461.5 1079.8 458.4 1081.2 455.1C1082.6 451.8 1083.3 448.2 1083.3 444.4C1083.3 440.6 1082.6 437 1081.2 433.6C1079.8 430.2 1077.8 427.2 1075.2 424.5C1072.5 421.9 1069.6 419.8 1066.2 418.4C1062.9 417 1059.3 416.3 1055.6 416.3C1051.8 416.3 1048.3 417 1044.9 418.4C1041.5 419.8 1038.6 421.8 1036 424.5C1033.3 427.2 1031.3 430.2 1029.9 433.6C1028.5 437 1027.8 440.6 1027.8 444.4C1027.8 448.2 1028.5 451.7 1029.9 455C1031.3 458.3 1033.3 461.3 1036 464.1C1038.7 466.8 1041.7 468.9 1045 470.2C1048.2 471.6 1051.7 472.3 1055.5 472.3Z" fill="black"/>
<path d="M1118.6 410.4H1126.7V452.5C1126.7 459.3 1128.2 464.4 1131.1 467.6C1134 470.8 1138.6 472.4 1144.8 472.4C1151 472.4 1155.6 470.8 1158.5 467.6C1161.4 464.4 1162.9 459.4 1162.9 452.5V410.4H1171.1V452.5C1171.1 461.6 1168.9 468.5 1164.6 473C1160.2 477.5 1153.7 479.8 1144.9 479.8C1136.2 479.8 1129.6 477.5 1125.2 473C1120.8 468.5 1118.7 461.6 1118.7 452.5V410.4H1118.6Z" fill="black"/>
<path d="M1201.3 478.1V410.5H1217.2C1221.7 410.5 1225 410.8 1227.2 411.3C1229.3 411.8 1231.2 412.7 1232.8 413.9C1234.8 415.5 1236.4 417.6 1237.5 420.2C1238.6 422.8 1239.2 425.8 1239.2 429C1239.2 434.5 1237.7 438.8 1234.6 441.6C1231.5 444.5 1227 445.9 1221 445.9H1219.6L1245.4 478.1H1235L1210.3 445.9H1209.1V478.1H1201.3ZM1209.1 417.2V439.8H1215.2C1221.5 439.8 1225.7 439 1227.8 437.4C1229.9 435.8 1231 433 1231 428.9C1231 424.6 1229.9 421.5 1227.7 419.8C1225.5 418.1 1221.3 417.2 1215.2 417.2H1209.1Z" fill="black"/>
<path d="M1363.1 426.6C1359.9 423.1 1356.4 420.5 1352.7 418.8C1349 417.1 1345 416.3 1340.5 416.3C1336.9 416.3 1333.4 417 1330 418.5C1326.6 419.9 1323.6 422 1321.2 424.6C1318.6 427.3 1316.7 430.3 1315.4 433.6C1314.1 436.9 1313.5 440.6 1313.5 444.6C1313.5 447.7 1313.9 450.6 1314.7 453.3C1315.5 456 1316.6 458.4 1318.2 460.6C1320.9 464.5 1324.2 467.4 1328.2 469.5C1332.2 471.6 1336.4 472.6 1341 472.6C1345.3 472.6 1349.3 471.7 1353 469.9C1356.7 468.1 1360.1 465.4 1363.1 461.9V472.6C1359.7 475 1356.1 476.9 1352.3 478.1C1348.4 479.3 1344.4 480 1340.3 480C1336.7 480 1333.2 479.5 1329.9 478.4C1326.5 477.3 1323.3 475.8 1320.4 473.8C1315.5 470.4 1311.7 466.2 1309.1 461.2C1306.5 456.2 1305.2 450.7 1305.2 444.8C1305.2 439.6 1306.1 434.9 1307.8 430.6C1309.5 426.3 1312.2 422.5 1315.8 419C1319.2 415.7 1323.1 413.2 1327.3 411.5C1331.5 409.9 1336.1 409 1341 409C1344.9 409 1348.7 409.6 1352.4 410.8C1356.1 412 1359.7 413.8 1363.3 416.3V426.6H1363.1Z" fill="black"/>
<path d="M1391 478.1V410.5H1399V436.5H1434.9V410.5H1443.1V478.1H1434.9V444.1H1399V478.1H1391Z" fill="black"/>
<path d="M1494.9 407.8L1525.7 478.1H1517L1508.2 457.4H1481.8L1473 478.1H1464.3L1494.9 407.8ZM1494.9 425.6L1484.1 450.5H1505.6L1494.9 425.6Z" fill="black"/>
<path d="M1544.9 410.4H1553V452.5C1553 459.3 1554.5 464.4 1557.4 467.6C1560.3 470.8 1564.9 472.4 1571.1 472.4C1577.3 472.4 1581.9 470.8 1584.8 467.6C1587.7 464.4 1589.2 459.4 1589.2 452.5V410.4H1597.4V452.5C1597.4 461.6 1595.2 468.5 1590.9 473C1586.5 477.5 1580 479.8 1571.2 479.8C1562.5 479.8 1555.9 477.5 1551.5 473C1547.1 468.5 1545 461.6 1545 452.5V410.4H1544.9Z" fill="black"/>
<path d="M1627.6 478.1V410.5H1663.3V417.8H1635.7V437.2H1663.3V444.7H1635.7V478.1H1627.6Z" fill="black"/>
<path d="M1689.7 478.1V410.5H1725.4V417.8H1697.8V437.2H1725.4V444.7H1697.8V478.1H1689.7Z" fill="black"/>
<path d="M1751.9 478.1V410.5H1787.6V417.8H1760V437.2H1787.6V444.7H1760V470.6H1787.6V478.1H1751.9Z" fill="black"/>
<path d="M1815.1 410.4H1823.2V452.5C1823.2 459.3 1824.7 464.4 1827.6 467.6C1830.5 470.8 1835.1 472.4 1841.3 472.4C1847.5 472.4 1852.1 470.8 1855 467.6C1857.9 464.4 1859.4 459.4 1859.4 452.5V410.4H1867.6V452.5C1867.6 461.6 1865.4 468.5 1861.1 473C1856.7 477.5 1850.2 479.8 1841.4 479.8C1832.7 479.8 1826.1 477.5 1821.7 473C1817.3 468.5 1815.2 461.6 1815.2 452.5V410.4H1815.1Z" fill="black"/>
<path d="M1897.7 478.1V410.5H1913.6C1918.1 410.5 1921.4 410.8 1923.6 411.3C1925.7 411.8 1927.6 412.7 1929.2 413.9C1931.2 415.5 1932.8 417.6 1933.9 420.2C1935 422.8 1935.6 425.8 1935.6 429C1935.6 434.5 1934.1 438.8 1931 441.6C1927.9 444.5 1923.4 445.9 1917.4 445.9H1916L1941.8 478.1H1931.6L1906.9 445.9H1905.7V478.1H1897.7ZM1905.6 417.2V439.8H1911.7C1918 439.8 1922.2 439 1924.3 437.4C1926.4 435.8 1927.5 433 1927.5 428.9C1927.5 424.6 1926.4 421.5 1924.2 419.8C1922 418.1 1917.8 417.2 1911.7 417.2H1905.6Z" fill="black"/>
<path d="M1964.1 474.4C1964.1 472.9 1964.6 471.6 1965.7 470.5C1966.8 469.4 1968.1 468.9 1969.6 468.9C1971.1 468.9 1972.4 469.4 1973.5 470.5C1974.6 471.6 1975.1 472.9 1975.1 474.4C1975.1 475.9 1974.6 477.2 1973.5 478.3C1972.5 479.4 1971.2 479.9 1969.6 479.9C1968.1 479.9 1966.8 479.4 1965.7 478.3C1964.6 477.2 1964.1 475.9 1964.1 474.4ZM1965.9 462.7V408.9H1973.3V462.7H1965.9Z" fill="black"/>
<path d="M399 367.8L591.6 62.4002H435.3V25.2002H660.7L469.9 329H652.9V367.9H399V367.8Z" fill="black"/>
<path d="M1040.2 197.1C1040.2 221.6 1035.7 244.7 1026.6 266.4C1017.5 288.1 1004.4 307.4 987 324.2C969.7 341.1 949.7 354 927.2 363.2C904.6 372.3 881.3 376.9 857.1 376.9C832.9 376.9 809.6 372.3 787.2 363.2C764.8 354.1 744.9 341.1 727.6 324.2C710.1 307.2 696.8 287.8 687.7 266.2C678.6 244.5 674 221.5 674 197.2C674 172.7 678.6 149.6 687.7 127.8C696.8 106 710.1 86.5999 727.6 69.5999C744.8 52.8999 764.6 39.9999 787.1 30.9999C809.6 21.9999 832.9 17.3999 857.1 17.3999C881.5 17.3999 904.9 21.8999 927.5 30.9999C950.1 40.0999 969.9 52.8999 987.1 69.5999C1004.4 86.4999 1017.6 105.8 1026.7 127.5C1035.6 149.3 1040.2 172.5 1040.2 197.1ZM857 338.5C875.7 338.5 893.6 335 910.5 327.9C927.4 320.8 942.7 310.5 956.3 296.9C969.7 283.5 980 268.3 987 251.3C994 234.3 997.5 216.3 997.5 197.2C997.5 178 993.9 159.8 986.8 142.4C979.7 125.1 969.5 109.8 956.2 96.4999C942.8 83.0999 927.6 72.8999 910.6 65.7999C893.7 58.7999 875.7 55.2999 856.8 55.2999C837.7 55.2999 819.7 58.7999 802.7 65.7999C785.7 72.7999 770.6 82.9999 757.5 96.4999C744.1 110.1 733.8 125.4 726.8 142.6C719.8 159.8 716.3 177.9 716.3 197.1C716.3 216.1 719.8 234.1 726.7 250.9C733.6 267.8 743.9 283 757.5 296.8C771.2 310.5 786.5 320.9 803.3 327.9C820.3 335 838.1 338.5 857 338.5Z" fill="black"/>
<path d="M1082.3 367.8V25.1001H1263V62.3001H1123V160.6H1263V198.5H1123V367.7H1082.3V367.8Z" fill="black"/>
<path d="M1301 367.8V25.1001H1481.7V62.3001H1341.7V160.6H1481.7V198.5H1341.7V329.8H1481.7V367.7H1301V367.8Z" fill="black"/>
<path d="M1862.7 204.4H1870C1900.3 204.4 1923.2 197.1 1938.9 182.5C1954.6 167.9 1962.4 146.6 1962.4 118.5C1962.4 102.3 1959.6 87.5001 1954 74.1001C1948.4 60.8001 1940.5 50.1001 1930.4 42.2001C1922.3 36.0001 1912.9 31.6001 1902.2 29.0001C1891.5 26.4001 1874.7 25.1001 1851.8 25.1001H1795.3H1774H1753.9V238.3C1753.9 272.9 1746.5 298.4 1731.8 314.6C1717.1 330.8 1693.9 338.9 1662.4 338.9C1630.9 338.9 1607.8 330.8 1593 314.6C1578.3 298.4 1570.9 272.9 1570.9 238.3V25.1001H1529.7V238.3C1529.7 284.6 1540.7 319.3 1562.8 342.3C1584.9 365.3 1618.1 376.8 1662.4 376.8C1706.9 376.8 1740.1 365.3 1762.2 342.3C1784.3 319.3 1795.3 284.6 1795.3 238.3V59.5001H1842.2C1873.4 59.5001 1894.5 63.9001 1905.6 72.7001C1916.7 81.5001 1922.2 96.9001 1922.2 118.9C1922.2 139.3 1916.8 153.7 1906.1 161.8C1895.3 170 1874 174.1 1842.2 174.1H1816.6V204.3L1941.9 367.7H1993.6L1862.7 204.4Z" fill="black"/>
<path d="M257.9 121.2C257.9 121.2 187.3 149 100.9 121.2C100.9 121.2 103.9 187.8 149.6 233.5C149.6 233.5 177.4 262.3 208.2 233.5C239 204.7 254.9 164.9 257.9 121.2Z" fill="black"/>
<path d="M80 89.4002V70.5002C80 70.5002 67.1 67.5002 63.1 63.5002C59.1 59.5002 59.1 49.6002 64.1 45.6002C69.1 41.6002 164.5 3.90028 164.5 3.90028C164.5 3.90028 177.4 -4.09972 195.3 3.90028C213.2 11.9002 290.7 43.7002 290.7 43.7002C290.7 43.7002 299.6 45.7002 298.7 55.6002C297.7 65.5002 290.7 66.5002 290.7 66.5002L278.8 70.5002V89.4002C278.8 89.4002 182.4 142.1 80 89.4002Z" fill="black"/>
<path d="M330.4 284.2C288.5 265.1 253.4 244.4 253.4 244.4C253.4 244.4 225.7 291.1 179.3 292.1C132.9 293.1 103.2 244.4 103.2 244.4L28.0999 284.2C28.0999 284.2 0.399902 294.1 0.399902 320C0.399902 345.9 0.399902 435.3 0.399902 435.3H360.1V331.9C360.2 331.9 363.2 299.1 330.4 284.2ZM48.1999 327.9L39.2999 308L91.9999 277.2L100.9 298.1L48.1999 327.9ZM200.2 358.8V425.4H159.4V358.8L139.5 335.9L159.4 313H200.2L220.1 336.9L200.2 358.8ZM310.6 327.9L257.9 298.1L266.8 277.2L319.5 308L310.6 327.9Z" fill="black"/>
<path d="M360.3 459.8H0.5V481.4H360.3V459.8Z" fill="black"/>
</g>
<defs>
<clipPath id="clip0_1102_1254">
<rect width="1994" height="494" fill="white"/>
</clipPath>
</defs>
</svg>
